<?xml version="1.0" encoding="UTF-8"?>
<!DOCTYPE svg PUBLIC "-//W3C//DTD SVG 1.1//EN" "http://www.w3.org/Graphics/SVG/1.1/DTD/svg11.dtd">
<!-- Creator: CorelDRAW -->
<svg xmlns="http://www.w3.org/2000/svg" xml:space="preserve" width="4.476mm" height="4.4746mm" version="1.1" style="shape-rendering:geometricPrecision; text-rendering:geometricPrecision; image-rendering:optimizeQuality; fill-rule:evenodd; clip-rule:evenodd"
viewBox="0 0 447.6 447.46"
 xmlns:xlink="http://www.w3.org/1999/xlink"
 xmlns:xodm="http://www.corel.com/coreldraw/odm/2003">
 <defs>
  <style type="text/css">
   <![CDATA[
    .fil0 {fill:black}
   ]]>
  </style>
 </defs>
 <g id="Слой_x0020_1">
  <metadata id="CorelCorpID_0Corel-Layer"/>
  <path class="fil0" d="M220.25 385.97l22.9 22.32c-0.88,3.3 -8.7,9 -11.09,11.36 -2.85,2.82 -9.49,8.88 -11.36,11.69l-22.91 -22.61 22.46 -22.76zm155.15 -155.43l23.05 -22.75 23.34 23.04 -23.06 22.75 -23.33 -23.04zm-333.05 23.04l-22.75 -22.45c0.89,-2.92 13.79,-14.68 16.85,-17.73 1.9,-1.9 3.62,-4.74 6.35,-5.47l22.46 23.05 -22.91 22.6zm313.24 -23.05l18.91 19.22 -134.74 135.04 -19.51 -19.2 -17.73 18.02 -135.05 -135.34 18.03 -17.74 -16.84 -16.54 135.04 -134.75 16.55 16.25 18.04 -17.72 135.04 134.74 -17.74 18.02zm-158.09 -177.89l22.46 -22.75c2.82,0.86 22.04,20.89 23.19,22.6l-22.9 23.2 -22.75 -23.05zm-20.1 0.3l16.84 16.55c-7.38,5.22 -110.69,109.81 -126.77,125.88 -2.44,2.44 -6.16,6.71 -8.71,8.42l-16.41 -16.09 -42.84 43.14 42.84 42.55 15.09 -14.77 135.03 134.74 -14.77 15.07 42.55 42.86 43.15 -42.86 -13.89 -13.59 135.04 -134.75 13.6 13.3 42.85 -42.55 -42.41 -43 -15.23 14.91c-2.5,-1.72 -6.65,-6.11 -8.41,-8.41 -3.42,-4.49 -103.92,-104.17 -121.6,-121.9 -1.56,-1.56 -2.59,-3.38 -4.88,-3.99 0.6,-2.23 12.53,-13.86 14.78,-15.37 -2.12,-3.16 -14.16,-15.51 -18.18,-19.05l-13.59 -13.01c-2.81,-2.81 -8.9,-8.27 -10.78,-11.08l-43.3 43z"/>
 </g>
</svg>
