<?xml version="1.0" encoding="UTF-8"?>
<!DOCTYPE svg PUBLIC "-//W3C//DTD SVG 1.1//EN" "http://www.w3.org/Graphics/SVG/1.1/DTD/svg11.dtd">
<!-- Creator: CorelDRAW -->
<svg xmlns="http://www.w3.org/2000/svg" xml:space="preserve" width="52.6704mm" height="52.4954mm" version="1.1" style="shape-rendering:geometricPrecision; text-rendering:geometricPrecision; image-rendering:optimizeQuality; fill-rule:evenodd; clip-rule:evenodd"
viewBox="0 0 5267.04 5249.54"
 xmlns:xlink="http://www.w3.org/1999/xlink"
 xmlns:xodm="http://www.corel.com/coreldraw/odm/2003">
 <defs>
  <style type="text/css">
   <![CDATA[
    .fil0 {fill:#F3F0EB}
    .fil1 {fill:#979695}
    .fil2 {fill:#91908F;fill-rule:nonzero}
   ]]>
  </style>
 </defs>
 <g id="Слой_x0020_1">
  <metadata id="CorelCorpID_0Corel-Layer"/>
  <g>
   <path class="fil0" d="M1395.93 247.01l2280.65 0c770,0 1400,630 1400,1400l0 2200c0,770 -630,1400 -1400,1400l-2280.65 0c-770,0 -1400,-630 -1400,-1400l0 -2200c0,-770 630,-1400 1400,-1400z"/>
   <path id="_1" class="fil1" d="M1395.93 247.01l2280.65 0c770,0 1400,630 1400,1400l0 2200c0,770 -630,1400 -1400,1400l-2280.65 0c-770,0 -1400,-630 -1400,-1400l0 -2200c0,-770 630,-1400 1400,-1400zm2134.36 232.04l-2280.65 0c-347.86,0 -644.12,122.32 -841.16,319.36 -140.54,140.54 -227.79,373.43 -227.79,664.71l0 2200c0,367.81 152.68,704.4 398.65,950.37 247.72,247.72 588.62,401.48 962.88,401.48l2280.65 0c347.86,0 644.12,-122.32 841.16,-319.36 140.54,-140.54 227.79,-373.43 227.79,-664.71l0 -2200c0,-367.81 -152.68,-704.4 -398.65,-950.37 -247.72,-247.72 -588.62,-401.48 -962.88,-401.48z"/>
  </g>
  <g>
   <path class="fil2" d="M841.7 2243.26c-99.1,-60.9 -140.56,-160.16 -92.6,-221.68 47.96,-61.52 167.2,-62.02 266.3,-1.12l-173.7 222.8zm2208.81 1357.47l-2208.81 -1357.47 173.7 -222.8 2208.81 1357.47 99.87 210.9 -273.57 11.9zm173.7 -222.8c99.1,60.9 140.56,160.16 92.6,221.68 -47.96,61.52 -167.2,62.02 -266.3,1.12l173.7 -222.8zm2019.95 -3118.08l-1920.08 3328.98 -373.44 -199 1920.08 -3328.98 373.44 199zm-373.44 -199c38.58,-66.89 153.47,-76.58 256.59,-21.63 103.12,54.95 155.43,153.74 116.85,220.63l-373.44 -199z"/>
  </g>
 </g>
</svg>
