<?xml version="1.0" encoding="UTF-8"?>
<!DOCTYPE svg PUBLIC "-//W3C//DTD SVG 1.1//EN" "http://www.w3.org/Graphics/SVG/1.1/DTD/svg11.dtd">
<!-- Creator: CorelDRAW -->
<svg xmlns="http://www.w3.org/2000/svg" xml:space="preserve" width="189.679mm" height="189.679mm" version="1.1" style="shape-rendering:geometricPrecision; text-rendering:geometricPrecision; image-rendering:optimizeQuality; fill-rule:evenodd; clip-rule:evenodd"
viewBox="0 0 18967.92 18967.92"
 xmlns:xlink="http://www.w3.org/1999/xlink"
 xmlns:xodm="http://www.corel.com/coreldraw/odm/2003">
 <defs>
  <style type="text/css">
   <![CDATA[
    .str3 {stroke:#222222;stroke-width:564.44;stroke-miterlimit:22.9256}
    .str2 {stroke:#222222;stroke-width:564.44;stroke-linecap:round;stroke-miterlimit:22.9256}
    .str0 {stroke:black;stroke-width:846.67;stroke-linecap:round;stroke-linejoin:round;stroke-miterlimit:22.9256}
    .str1 {stroke:black;stroke-width:1322.92;stroke-linecap:round;stroke-linejoin:round;stroke-miterlimit:22.9256}
    .fil0 {fill:none}
    .fil1 {fill:#222222;fill-rule:nonzero}
   ]]>
  </style>
 </defs>
 <g id="Слой_x0020_1">
  <metadata id="CorelCorpID_0Corel-Layer"/>
  <path class="fil0 str0" d="M14323.44 7768.99l-10545.63 3650.41 3650.41 1216.8m6895.22 -4867.21l-6895.22 4867.21m6895.22 -4867.21l-3244.81 8517.62 -3650.41 -3650.41"/>
  <path class="fil0 str1" d="M9476.83 18303.93c4870.8,0 8819.44,-3948.64 8819.44,-8819.44 0,-4870.85 -3948.64,-8819.44 -8819.44,-8819.44 -4870.85,0 -8819.44,3948.59 -8819.44,8819.44 0,4870.8 3948.59,8819.44 8819.44,8819.44z"/>
  <g id="_2590360237584">
   <circle class="fil0 str2" cx="9453.21" cy="3131.48" r="1085.61"/>
   <path class="fil0 str3" d="M10220.91 2480.12c85.89,-148.76 213.99,-268.71 368.02,-344.69 154.07,-75.97 327.2,-104.55 497.51,-82.13 170.27,22.42 330.12,94.84 459.26,208.1 129.14,113.25 221.81,262.26 266.27,428.18 44.43,165.92 38.7,341.29 -16.5,503.94 -55.23,162.66 -157.45,305.29 -293.72,409.86 -136.26,104.56 -300.49,166.37 -471.89,177.61 -171.4,11.23 -342.27,-28.62 -491.04,-114.5"/>
   <path class="fil0 str3" d="M8685.51 2480.12c-85.9,-148.76 -213.98,-268.71 -368.04,-344.69 -154.05,-75.97 -327.18,-104.55 -497.48,-82.13 -170.3,22.42 -330.13,94.84 -459.27,208.1 -129.15,113.25 -221.8,262.26 -266.26,428.18 -44.46,165.92 -38.72,341.29 16.5,503.94 55.21,162.66 157.42,305.29 293.69,409.86 136.28,104.56 300.5,166.37 471.9,177.61 171.41,11.23 342.29,-28.62 491.05,-114.5"/>
   <path class="fil0 str2" d="M9453.21 5085.58c1771.8,0 2229.19,1433.96 2347.26,2174.26 37.78,236.83 -153.33,431.2 -393.17,431.2l-3908.19 0c-239.83,0 -430.93,-194.37 -393.16,-431.2 118.06,-740.3 575.44,-2174.26 2347.26,-2174.26z"/>
   <path class="fil1" d="M12621.67 6351.92l-210.61 52.76 210.61 -52.76zm-2696.4 -1229.04l-160.32 -146.38 -269.45 295.06 394.16 65.49 35.61 -214.17zm1777.89 1699.67l-208.57 60.36 45.37 156.76 163.2 0 0 -217.12zm-730.1 -1954.09c446.27,0 759.71,218.29 989.34,524.09 234.23,311.96 371.75,705.08 448.66,1012.13l421.26 -105.48c-83.03,-331.46 -238.27,-788.63 -522.66,-1167.38 -288.95,-384.82 -719.89,-697.61 -1336.6,-697.61l0 434.25zm-887.46 400.8c217.29,-237.96 501.29,-400.8 887.46,-400.8l0 -434.25c-528.56,0 -923.38,230.41 -1208.11,542.29l320.65 292.76zm-195.94 67.79c998.99,166.01 1421.68,912.34 1604.93,1545.86l417.13 -120.72c-204.57,-707.12 -713.29,-1647.82 -1950.84,-1853.48l-71.22 428.34zm2340.53 1268.38l-527.03 0 0 434.24 527.03 0 0 -434.24zm180.87 -200.75c23.36,93.32 -45.16,200.75 -180.87,200.75l0 434.24c378.1,0 703.57,-335.36 602.13,-740.47l-421.26 105.48z"/>
   <path class="fil1" d="M8981.14 5122.88l35.61 214.17 394.16 -65.49 -269.45 -295.06 -160.32 146.38zm-2696.42 1229.04l210.61 52.76 -210.61 -52.76zm918.53 470.63l0 217.12 163.21 0 45.36 -156.76 -208.57 -60.36zm730.1 -1954.09c386.18,0 670.17,162.84 887.43,400.8l320.68 -292.76c-284.73,-311.88 -679.53,-542.29 -1208.11,-542.29l0 434.25zm-1438.02 1536.22c76.9,-307.05 214.44,-700.17 448.67,-1012.13 229.63,-305.8 543.06,-524.09 989.35,-524.09l0 -434.25c-616.71,0 -1047.64,312.79 -1336.6,697.61 -284.37,378.75 -439.65,835.92 -522.65,1167.38l421.23 105.48zm180.88 200.75c-135.71,0 -204.24,-107.43 -180.88,-200.75l-421.23 -105.48c-101.46,405.11 223.99,740.47 602.11,740.47l0 -434.24zm527.04 0l-527.04 0 0 434.24 527.04 0 0 -434.24zm208.57 277.48c183.27,-633.52 605.93,-1379.85 1604.93,-1545.86l-71.22 -428.34c-1237.55,205.66 -1746.26,1146.36 -1950.84,1853.48l417.13 120.72z"/>
  </g>
 </g>
</svg>
