<svg width="22" height="20" viewBox="0 0 22 20" fill="none" xmlns="http://www.w3.org/2000/svg">
<path d="M10.1024 0.203125C10.6715 -0.0664062 11.3285 -0.0664062 11.8976 0.203125L20.2469 4.14844C20.5715 4.30078 20.7778 4.63281 20.7778 5C20.7778 5.36719 20.5715 5.69922 20.2469 5.85156L11.8976 9.79688C11.3285 10.0664 10.6715 10.0664 10.1024 9.79688L1.75312 5.85156C1.42847 5.69531 1.22222 5.36328 1.22222 5C1.22222 4.63672 1.42847 4.30078 1.75312 4.14844L10.1024 0.203125ZM18.2149 8.1875L20.2469 9.14844C20.5715 9.30078 20.7778 9.63281 20.7778 10C20.7778 10.3672 20.5715 10.6992 20.2469 10.8516L11.8976 14.7969C11.3285 15.0664 10.6715 15.0664 10.1024 14.7969L1.75312 10.8516C1.42847 10.6953 1.22222 10.3633 1.22222 10C1.22222 9.63672 1.42847 9.30078 1.75312 9.14844L3.78507 8.1875L9.59062 10.9297C10.4844 11.3516 11.5156 11.3516 12.4094 10.9297L18.2149 8.1875ZM12.4094 15.9297L18.2149 13.1875L20.2469 14.1484C20.5715 14.3008 20.7778 14.6328 20.7778 15C20.7778 15.3672 20.5715 15.6992 20.2469 15.8516L11.8976 19.7969C11.3285 20.0664 10.6715 20.0664 10.1024 19.7969L1.75312 15.8516C1.42847 15.6953 1.22222 15.3633 1.22222 15C1.22222 14.6367 1.42847 14.3008 1.75312 14.1484L3.78507 13.1875L9.59062 15.9297C10.4844 16.3516 11.5156 16.3516 12.4094 15.9297Z" fill="black"/>
</svg>
