<svg width="23" height="17" viewBox="0 0 23 17" fill="none" xmlns="http://www.w3.org/2000/svg">
<path d="M20.7 4.687H16.1V8.79111C16.1 10.4863 14.55 11.8689 12.65 11.8689L9.2 11.8689V12.8943C9.2 14.0245 10.2332 14.9175 11.4677 14.9175L15.9886 14.9173L18.9624 16.909C19.223 17.0891 19.55 16.9416 19.55 16.6851V14.946H20.7C21.9668 14.946 23 14.0242 23 12.9228V6.7102C23 5.60722 21.9686 4.687 20.7 4.687ZM14.95 8.79111V2.60609C14.95 1.50471 13.9186 0.582886 12.65 0.582886H2.3C1.0332 0.582886 0 1.50471 0 2.60609V8.76226C0 9.91974 1.0332 10.8432 2.3 10.8432L3.45 10.8435V12.5829C3.45 12.8394 3.77793 12.9876 4.00703 12.8354L6.98086 10.8437L12.65 10.84C13.9186 10.8432 14.95 9.91974 14.95 8.79111ZM7.49297 9.19191C6.99703 9.19191 6.6125 8.84883 6.6125 8.40635C6.6125 7.96484 6.99739 7.62176 7.49189 7.62176C7.98675 7.62176 8.37128 7.96516 8.37128 8.40635C8.36984 8.84883 7.98531 9.19191 7.49297 9.19191ZM9.38328 5.67776L8.119 6.36424V6.41326C8.119 6.732 7.81669 7.00162 7.45955 7.00162C7.1024 7.00162 6.83172 6.73264 6.83172 6.41522V6.02084C6.83172 5.8247 6.94165 5.6287 7.16148 5.5059L8.728 4.67225C8.92041 4.57417 9.0303 4.40253 9.0303 4.20637C9.0303 3.91209 8.75545 3.66706 8.42583 3.66706H6.99703C6.6672 3.66706 6.39256 3.91222 6.39256 4.20637C6.39256 4.52511 6.09026 4.79473 5.73311 4.79473C5.37585 4.79473 5.07366 4.52502 5.07366 4.20637C5.07366 3.25024 5.92573 2.49002 6.99739 2.49002H8.42627C9.49828 2.49162 10.35 3.25152 10.35 4.20925C10.35 4.79601 9.99422 5.36033 9.38328 5.67776Z" fill="black"/>
</svg>
