<svg width="21" height="19" viewBox="0 0 21 19" fill="none" xmlns="http://www.w3.org/2000/svg">
<path d="M20.6028 8.69331L18.6676 7.12225L18.6677 2.47165C18.6677 2.17307 18.4068 1.96093 18.1172 1.96093L15.8167 1.96068C15.4943 1.96068 15.2662 2.20326 15.2662 2.4714V4.28057L11.3688 1.11647C11.1489 0.937823 10.8744 0.848633 10.6002 0.848633C10.3743 0.848633 10.0844 0.911137 9.8317 1.11647L0.398337 8.69331C-0.409945 9.34947 0.0950762 10.5603 1.16688 10.5603H2.33427L2.33384 15.9415C2.33384 17.1371 3.37837 18.0757 4.63436 18.0757H16.2682C17.557 18.0757 18.5687 17.1067 18.5687 15.9415L18.6341 10.5603L19.7679 10.5603C20.4147 10.5603 20.935 10.0732 20.935 9.5084C20.9674 9.20065 20.8617 8.90301 20.6028 8.69331ZM12.8335 10.9493C12.8335 11.3507 12.4826 11.6721 12.0544 11.6721H8.94709C8.5187 11.6721 8.16797 11.3465 8.16797 10.9493V8.06759C8.16797 7.66578 8.51888 7.34481 8.94709 7.34481H12.0552C12.4835 7.34481 12.8343 7.66612 12.8343 8.06759V10.9493H12.8335Z" fill="black"/>
</svg>
