<svg width="29" height="24" viewBox="0 0 29 24" fill="none" xmlns="http://www.w3.org/2000/svg">
<path d="M0 17.9953L2.9 17.9971C3.7043 17.9971 4.35 17.3273 4.35 16.4957V6.014H0V17.9953ZM2.175 15.0046C2.57148 15.0046 2.9 15.3383 2.9 15.7542C2.9 16.1639 2.57148 16.5037 2.175 16.5037C1.77852 16.5037 1.45 16.1624 1.45 15.7546C1.45 15.3374 1.77852 15.0046 2.175 15.0046ZM15.805 2.99994C15.4452 2.99994 15.0954 3.13911 14.8299 3.39032L10.372 7.60775C10.3675 7.61713 10.3675 7.6265 10.3584 7.6265C9.60625 8.35775 9.61984 9.52494 10.2633 10.2515C10.841 10.8656 12.0477 11.0774 12.8067 10.3804C12.8144 10.3734 12.8189 10.3734 12.8234 10.3687L16.443 6.94213C16.7375 6.66693 17.202 6.6845 17.468 6.989C17.7398 7.2935 17.7172 7.76807 17.4227 8.04932L16.2391 9.16822L22.8375 14.7046C22.9678 14.8216 23.0867 14.9388 23.1943 15.0675V5.95775C21.3374 4.03775 18.8226 2.96338 16.1981 2.96338L15.805 2.99994ZM15.1616 10.1906L13.8022 11.4792C12.4541 12.7499 10.3924 12.6271 9.18938 11.2743C7.975 9.89994 8.07016 7.76713 9.39328 6.51088L13.0998 2.99994H12.8008C10.1817 2.99994 7.66234 4.08182 5.80906 5.99525L5.8 16.4906L6.62695 16.4923L10.7277 20.3276C11.9738 21.3762 13.7977 21.177 14.8059 19.8942L15.6269 20.6086C16.3465 21.1758 17.4113 21.1008 18.0004 20.3568L19.4223 18.5474L19.6658 18.7583C20.2889 19.2739 21.201 19.1802 21.7049 18.5357L22.1371 17.9835C22.6409 17.339 22.5465 16.4001 21.9244 15.8774L15.1616 10.1906ZM24.65 6.01869V16.4999C24.65 17.3259 25.2957 18.0023 26.0592 18.0023L29 17.9999V6.00463L24.65 6.01869ZM26.825 16.4999C26.4285 16.4999 26.1 16.1603 26.1 15.7504C26.1 15.3344 26.4285 15.0009 26.825 15.0009C27.2215 15.0009 27.55 15.3374 27.55 15.7546C27.55 16.1624 27.2238 16.4999 26.825 16.4999Z" fill="black"/>
</svg>
