<svg width="20" height="20" viewBox="0 0 20 20" fill="none" xmlns="http://www.w3.org/2000/svg">
<g clip-path="url(#clip0_56_73)">
<g clip-path="url(#clip1_56_73)">
<path d="M14.9648 17.4998H2.46484V4.99976H8.5625L11.0625 2.49976H2.46484C1.11914 2.49976 0 3.6189 0 4.99976V17.4998C0 18.8806 1.11914 19.9998 2.46484 19.9998H14.9297C16.3102 19.9998 17.3945 18.8806 17.3945 17.4998L17.3944 8.9021L14.9295 11.4017V17.4998H14.9648ZM19.4492 1.6478L18.3504 0.548584C17.618 -0.183838 16.4309 -0.183838 15.6988 0.548584L14.1902 2.05757L17.9406 5.80796L19.4492 4.29897C20.1836 3.56733 20.1836 2.38022 19.4492 1.6478ZM5.75391 10.7185L5.01016 14.438C4.94461 14.766 5.23379 15.0552 5.56172 14.9896L9.28164 14.2459C9.46313 14.2095 9.62977 14.1203 9.76055 13.9895L17.0574 6.69265L13.307 2.94226L6.00781 10.2419C5.87891 10.3709 5.78906 10.5388 5.75391 10.7185Z" fill="black"/>
</g>
</g>
<defs>
<clipPath id="clip0_56_73">
<rect width="20" height="20" fill="white"/>
</clipPath>
<clipPath id="clip1_56_73">
<rect width="20" height="20" fill="white"/>
</clipPath>
</defs>
</svg>
