<?xml version="1.0" encoding="UTF-8"?>
<!DOCTYPE svg PUBLIC "-//W3C//DTD SVG 1.1//EN" "http://www.w3.org/Graphics/SVG/1.1/DTD/svg11.dtd">
<!-- Creator: CorelDRAW -->
<svg xmlns="http://www.w3.org/2000/svg" xml:space="preserve" width="204.823mm" height="204.755mm" version="1.1" style="shape-rendering:geometricPrecision; text-rendering:geometricPrecision; image-rendering:optimizeQuality; fill-rule:evenodd; clip-rule:evenodd"
viewBox="0 0 20482.26 20475.54"
 xmlns:xlink="http://www.w3.org/1999/xlink"
 xmlns:xodm="http://www.corel.com/coreldraw/odm/2003">
 <defs>
  <style type="text/css">
   <![CDATA[
    .fil0 {fill:black}
   ]]>
  </style>
 </defs>
 <g id="Слой_x0020_1">
  <metadata id="CorelCorpID_0Corel-Layer"/>
  <path class="fil0" d="M10233.6 17443.68l1062.45 1035.03c-40.96,153.38 -403.9,417.69 -514.51,527.13 -132.24,130.85 -439.96,411.74 -527.12,541.91l-1062.44 -1048.22 1041.62 -1055.85zm7195.78 -7208.96l1069.21 -1054.98 1082.39 1068.86 -1069.21 1054.98 -1082.39 -1068.86zm-15446.54 1068.86l-1054.98 -1041.45c41.31,-135.3 639.49,-680.61 781.13,-822.24 88.1,-88.12 167.89,-219.7 294.67,-253.56l1041.62 1069.04 -1062.44 1048.21zm14528.07 -1068.88l876.96 891.28 -6249.45 6263.12 -904.87 -890.54 -822.14 835.63 -6263.29 -6277.09 835.88 -822.4 -780.98 -767.52 6263.31 -6249.65 767.41 753.95 836.49 -822.14 6263.11 6249.44 -822.43 835.92zm-7332.12 -8250.92l1041.46 -1054.97c131.05,40.01 1022.42,968.69 1075.8,1048.38l-1062.28 1075.8 -1054.98 -1069.21zm-932.19 14.02l781.05 767.58c-342.28,242.42 -5134.04,5092.93 -5879.57,5838.46 -113.24,113.23 -285.75,311.22 -404.32,390.61l-761.02 -746.6 -1986.81 2000.8 1987.12 1973.51 699.43 -684.94 6263.04 6249.38 -685.4 698.83 1973.6 1987.59 2001.11 -1987.5 -643.97 -630.55 6263.29 -6249.62 630.33 616.91 1987.59 -1973.61 -1966.89 -1994.3 -706.23 691.76c-115.93,-79.79 -308.74,-283.47 -390.22,-390.23 -158.82,-208.13 -4819.75,-4831.29 -5639.84,-5653.56 -72.39,-72.58 -120.19,-156.73 -226.14,-185.02 27.64,-103.54 581.22,-643.01 685.27,-712.69 -98.29,-146.8 -656.56,-719.54 -843.1,-883.8l-630.25 -603.26c-130.46,-130.47 -412.84,-383.42 -500.25,-513.96l-2007.82 1994.21z"/>
 </g>
</svg>
