
        <svg xmlns="http://www.w3.org/2000/svg" xmlns:xlink="http://www.w3.org/1999/xlink" version="1.1" width="3162.208309618669" height="1185.1732965214742" viewBox="0 0 3162.208309618669 1185.1732965214742">
			
			<g transform="scale(8.11041548093341) translate(10, 10)">
				<defs id="SvgjsDefs12624"/><g id="SvgjsG12625" featureKey="symbolFeature-0" transform="matrix(2.87828947368421,0,0,2.87828947368421,0,17)" fill="#000"><g xmlns="http://www.w3.org/2000/svg" display="none"><rect x="-247.328" y="-186.656" display="inline" width="473.333" height="236"/></g><g xmlns="http://www.w3.org/2000/svg" display="none"><g display="inline"><g><path d="M16.204,29.814L2.39,16L16.204,2.185L30.019,16L16.204,29.814z M3.804,16l12.4,12.4l12.4-12.4l-12.4-12.4     L3.804,16z"/></g><g><g><rect x="13.81" y="0.907" transform="matrix(0.7071 -0.7071 0.7071 0.7071 2.4965 12.2207)" width="4.379" height="4.379"/></g><g><rect x="13.81" y="26.713" transform="matrix(0.7071 -0.7071 0.7071 0.7071 -15.7514 19.7793)" width="4.379" height="4.379"/></g><g><rect x="0.907" y="13.81" transform="matrix(-0.7071 -0.7071 0.7071 -0.7071 -6.0272 29.5035)" width="4.379" height="4.379"/></g><g><rect x="26.713" y="13.81" transform="matrix(-0.7071 -0.7071 0.7071 -0.7071 38.0272 47.7514)" width="4.379" height="4.379"/></g></g></g></g><g xmlns="http://www.w3.org/2000/svg"><g><g><g><rect x="2.242" y="9.049" transform="matrix(0.7071 -0.7071 0.7071 0.7071 -3.9551 9.5486)" width="14.614" height="1"/></g><g><rect x="15.349" y="22.156" transform="matrix(0.7071 -0.7071 0.7071 0.7071 -9.3843 22.656)" width="14.614" height="1"/></g></g><g><g><rect x="9.049" y="15.349" transform="matrix(0.7071 -0.7071 0.7071 0.7071 -13.223 13.3866)" width="1" height="14.614"/></g><g><rect x="22.156" y="2.242" transform="matrix(0.7071 -0.7071 0.7071 0.7071 -0.1164 18.8159)" width="1" height="14.614"/></g></g><g><g><path d="M16,1.414l1.683,1.683L16,4.779l-1.683-1.683L16,1.414 M16,0l-3.097,3.097L16,6.194l3.097-3.097L16,0L16,0z"/></g><g><path d="M16,27.221l1.683,1.683L16,30.586l-1.683-1.683L16,27.221 M16,25.806l-3.097,3.097L16,32l3.097-3.097L16,25.806      L16,25.806z"/></g><g><path d="M3.097,14.317L4.779,16l-1.683,1.683L1.414,16L3.097,14.317 M3.097,12.903L0,16l3.097,3.097L6.194,16L3.097,12.903      L3.097,12.903z"/></g><g><path d="M28.903,14.317L30.586,16l-1.683,1.683L27.221,16L28.903,14.317 M28.903,12.903L25.806,16l3.097,3.097L32,16      L28.903,12.903L28.903,12.903z"/></g></g></g></g><g xmlns="http://www.w3.org/2000/svg" display="none"><line display="inline" stroke="#222831" stroke-miterlimit="10" x1="4.382" y1="14.715" x2="14.715" y2="4.382"/><line display="inline" stroke="#222831" stroke-miterlimit="10" x1="27.823" y1="17.489" x2="17.489" y2="27.823"/><line display="inline" stroke="#222831" stroke-miterlimit="10" x1="14.715" y1="27.823" x2="4.382" y2="17.489"/><line display="inline" stroke="#222831" stroke-miterlimit="10" x1="17.489" y1="4.382" x2="27.823" y2="14.715"/><g display="inline"><rect x="14.31" y="1.407" transform="matrix(0.7071 -0.7071 0.7071 0.7071 2.4968 12.2209)" width="3.38" height="3.38"/><g><path d="M16,1.414l1.683,1.683L16,4.779l-1.683-1.683L16,1.414 M16,0l-3.097,3.097L16,6.194l3.097-3.097L16,0     L16,0z"/></g></g><g display="inline"><rect x="14.311" y="27.213" transform="matrix(0.7071 -0.7071 0.7071 0.7071 -15.7511 19.7794)" width="3.379" height="3.379"/><g><path d="M16,27.221l1.683,1.683L16,30.586l-1.683-1.683L16,27.221 M16,25.806l-3.097,3.097L16,32l3.097-3.097     L16,25.806L16,25.806z"/></g></g><g display="inline"><rect x="1.407" y="14.31" transform="matrix(0.7071 -0.7071 0.7071 0.7071 -10.4064 6.8761)" width="3.379" height="3.379"/><g><path d="M3.097,14.317L4.779,16l-1.683,1.683L1.414,16L3.097,14.317 M3.097,12.903L0,16l3.097,3.097L6.194,16L3.097,12.903     L3.097,12.903z"/></g></g><g display="inline"><rect x="27.213" y="14.31" transform="matrix(0.7073 -0.707 0.707 0.7073 -2.8497 25.1175)" width="3.38" height="3.38"/><g><path d="M28.903,14.317L30.586,16l-1.683,1.683L27.221,16L28.903,14.317 M28.903,12.903L25.806,16l3.097,3.097L32,16     L28.903,12.903L28.903,12.903z"/></g></g></g><g xmlns="http://www.w3.org/2000/svg" display="none"><line display="inline" stroke="#222831" stroke-miterlimit="10" x1="4.382" y1="14.715" x2="14.715" y2="4.382"/><line display="inline" stroke="#222831" stroke-miterlimit="10" x1="27.823" y1="17.489" x2="17.489" y2="27.823"/><line display="inline" stroke="#222831" stroke-miterlimit="10" x1="14.715" y1="27.823" x2="4.382" y2="17.489"/><line display="inline" stroke="#222831" stroke-miterlimit="10" x1="17.489" y1="4.382" x2="27.823" y2="14.715"/><rect x="13.81" y="0.907" transform="matrix(0.7071 -0.7071 0.7071 0.7071 2.4965 12.2207)" display="inline" width="4.379" height="4.379"/><rect x="13.81" y="26.713" transform="matrix(0.7071 -0.7071 0.7071 0.7071 -15.7514 19.7793)" display="inline" width="4.379" height="4.379"/><rect x="0.907" y="13.81" transform="matrix(-0.7071 -0.7071 0.7071 -0.7071 -6.0272 29.5035)" display="inline" width="4.379" height="4.379"/><rect x="26.713" y="13.81" transform="matrix(-0.7071 -0.7071 0.7071 -0.7071 38.0272 47.7514)" display="inline" width="4.379" height="4.379"/></g></g><g id="SvgjsG12626" featureKey="nameFeature-0" transform="matrix(2.826237547590046,0,0,2.826237547590046,117.79432792130895,-19.89673244204773)" fill="#000"><path d="M3.44 25.4 c0.48 0.88 0.16 1.88 -0.72 2.16 c-0.56 -0.2 -1.08 -0.4 -1.2 -1.04 c0.56 -0.4 0.96 -1.24 1.92 -1.12 z M4.44 37.52 l0 0.08 c-0.24 0.12 -0.48 0.24 -0.68 0.4 c0.2 0.04 0.56 -0.16 0.68 -0.4 c0.72 -0.12 1.2 -0.6 1.76 -0.96 c0.56 -0.16 0.96 -0.72 1.64 -0.92 c0.72 -0.64 1.48 -1 2.36 -1.52 c-0.04 0.16 -0.2 0.2 -0.12 0.4 c-0.56 0.08 -1.04 0.48 -1.24 0.8 c-1.52 0.72 -3.04 1.88 -4.56 2.8 c-0.08 0 -0.12 0 -0.12 0.08 c0.08 0 0.12 0 0.12 -0.08 c0.64 -0.36 1.44 -0.68 1.8 -1.04 c0.84 -0.4 1.8 -1.16 2.76 -1.76 c0.28 0.04 0.24 -0.24 0.48 -0.2 c0.04 0.16 -0.12 0.12 -0.08 0.28 c-0.2 0 -0.4 0 -0.4 0.2 c-0.04 0 -0.04 0.04 -0.04 0.04 c-0.08 0.04 -0.12 0.08 -0.2 0.12 c0 0.08 0.04 0.16 0.16 0.12 c-0.04 0.16 -0.12 0.08 -0.24 0.08 c0.04 0.2 -0.04 0.28 -0.16 0.4 c-0.12 0 -0.16 -0.04 -0.2 -0.16 c0 -0.12 0.08 -0.12 0.16 -0.12 c-0.36 -0.2 -0.52 0.6 -0.96 0.64 c0.04 0.12 0.2 0.12 0.08 0.28 c-0.12 0 -0.28 0.04 -0.24 -0.16 c-0.08 0 -0.04 0.16 -0.16 0.12 c-0.04 0.16 0.24 0 0.16 0.2 c-0.2 0.12 -0.16 -0.12 -0.4 -0.08 c-0.08 0.2 0.12 0.12 0.08 0.24 c-0.16 0.04 -0.12 -0.12 -0.28 -0.08 c-0.08 0.16 0.16 0.04 0.12 0.16 c-0.36 0.32 -1.04 0.88 -1.76 1.24 c-0.08 0 -0.04 0.12 -0.04 0.2 c-0.28 0 -0.4 0.2 -0.44 0.4 c-2 1.48 -5.72 2 -6.52 -1.04 c-0.04 -0.76 0.04 -1.08 0.2 -1.88 c0.68 -1.68 0.84 -3.6 2.28 -4.68 c0.76 0.08 1.16 0.56 1.32 1.28 c-0.12 0.04 -0.24 0.08 -0.4 0.08 c-0.8 1.36 -1.52 3.12 -1.76 4.72 c-0.28 0.36 -0.2 0.8 -0.12 1.36 c1.4 0.2 3.28 -0.72 4.52 -1.4 c0 -0.08 -0.08 -0.12 -0.04 -0.2 c0.24 -0.04 0.2 -0.12 0.48 -0.04 z M8.48 35.88 c0 0.04 -0.04 -0.04 0 0 l0 0 z M7.04 36.68 c-0.12 0.16 0.16 -0.12 0 0 l0 0 z M4.2 37.6 c-0.12 0.16 0.16 -0.12 0 0 l0 0 z M6.36 37.6 c-0.12 0.16 0.16 -0.12 0 0 l0 0 z M3.84 38.44 c0.16 0 0.24 -0.04 0.2 -0.16 c-0.12 0 -0.16 0.08 -0.2 0.16 z M10.32 34.2 c0.12 0 0.2 0 0.2 -0.08 l0.12 0 c0 -0.08 -0.04 -0.12 -0.12 -0.12 c0.12 -0.16 0.32 -0.24 0.4 -0.48 c-1.76 0.8 -3.24 2.16 -4.92 2.88 c-0.12 0.04 0.12 0.08 0.12 0.16 c-0.56 0.16 -0.8 0.64 -1.36 0.76 c0 -0.04 0 -0.08 -0.04 -0.08 c2.2 -1.56 4.4 -3.08 6.96 -4.24 c-0.04 0.12 -0.28 0.12 -0.32 0.24 c0.08 0.16 0.16 -0.12 0.32 -0.04 c-0.44 0.4 -0.72 0.96 -1.4 1.16 c0 -0.08 0.08 -0.08 0.04 -0.16 z M10.96 33.519999999999996 c0.08 0 0.2 0 0.2 -0.12 c-0.08 0 -0.2 0 -0.2 0.12 z M10.8 33.92 c0.08 0.2 0.08 -0.2 0 0 l0 0 z M4.8 37.24 c0.2 0.04 0.04 -0.16 0 0 l0 0 z M10.52 34.12 c-0.08 0 -0.16 0 -0.2 0.08 l-0.12 0 c0.04 -0.12 0.16 -0.12 0.24 -0.2 c0 0.08 0.08 0.04 0.08 0.12 z M10.2 34.72 c-0.04 0.08 -0.12 0.08 -0.2 0.12 c0 -0.12 0.08 -0.12 0.2 -0.12 z M9.44 35.16 c0.04 -0.2 0.24 -0.28 0.52 -0.28 c-0.12 0.16 -0.32 0.24 -0.52 0.28 z M9.32 35.2 c0 -0.04 0.04 -0.04 0.12 -0.04 c-0.04 0.04 -0.04 0.04 -0.12 0.04 z M9.2 35.6 c0 -0.16 0.2 0.04 0 0 l0 0 z M8.84 35.68 l0.12 0 l0 0.16 c-0.08 0 -0.2 0 -0.16 -0.12 c0.04 0 0.04 0 0.04 -0.04 z M8.08 36.4 l0 0 c0.04 0.04 -0.04 0 0 0 z M7.92 36.52 c0.04 -0.12 0.24 -0.04 0.24 0 c-0.08 0.12 -0.12 0.04 -0.24 0 z M6.12 36.56 c0.04 0 0.04 0 0.04 0.04 c-0.04 0 -0.04 0 -0.04 -0.04 z M7.8 36.56 c0.24 0.08 -0.12 0.4 -0.24 0.28 c0.04 -0.12 0.2 -0.12 0.24 -0.28 z M6.16 36.6 c0.04 0 0.04 0 0.04 0.04 c-0.04 0 -0.04 0 -0.04 -0.04 z M4.52 37.24 l0.16 0 c0.04 0.08 -0.16 0.16 0 0.16 c-0.08 0.16 -0.16 -0.08 -0.16 -0.16 z M4.76 37.32 l0 0 c-0.08 0.04 0 0.04 0 0 z M4.44 37.52 c0 -0.08 0.08 -0.04 0 0 l0 0 z M17.64 30.96 c0.04 0.08 0.12 0.12 0.12 0.24 c0.4 -0.04 0.6 0.12 0.84 0.24 c0 0.04 -0.08 0.04 -0.12 0.04 c0.36 0.36 0.84 0.88 0.6 1.44 c0.04 0.12 0.2 -0.16 0.32 0 c0 0.16 -0.12 0.2 -0.08 0.4 c-0.08 0.04 -0.12 -0.04 -0.28 0.04 c0.16 0.08 0.08 0.44 0.2 0.28 c0.16 0.16 -0.16 0.32 -0.2 0.44 c0.12 0 0.12 -0.08 0.24 -0.04 c-0.32 0.32 -0.2 0.8 -0.52 1.2 c0 0.04 0.12 0.04 0.2 0.04 c-0.44 1.08 -0.2 2.12 0.2 2.88 c-0.16 0.24 -0.36 0.04 -0.56 0.08 c-1.84 -1.4 -0.44 -3.96 -0.76 -6.2 c-0.64 0.4 -0.88 1.16 -1.48 1.56 c-0.44 0.88 -0.96 1.76 -1.6 2.48 c-0.76 1.24 -1.24 2.96 -2.92 3.12 c-1.2 -0.52 -0.88 -2.36 -0.36 -3.4 c0.24 -1.24 0.72 -2.28 1.12 -3.36 c0.52 0.04 1.24 0.04 1.6 0.56 c-0.2 0.6 -0.52 1.04 -0.68 1.64 c0.48 -0.32 0.64 -1 1.12 -1.32 c0.76 -1.04 1.32 -2.68 3 -2.36 z M16.76 31.4 l0.12 0 c0 -0.12 -0.04 -0.12 -0.12 -0.12 l0 0.12 z M17.32 31.4 c0.04 0 -0.04 -0.04 0 0 l0 0 z M17.04 31.560000000000002 c-0.28 0.2 -0.32 0.64 -0.68 0.72 c0 -0.04 -0.04 -0.04 -0.04 -0.08 c0 -0.12 0.16 -0.12 0.28 -0.16 c0 -0.12 0.16 -0.32 0.04 -0.4 c-0.04 0.12 -0.08 -0.08 -0.2 0 c-0.16 0.36 -0.52 0.44 -0.88 0.52 c-0.04 0.16 0.12 0.08 0.12 0.2 c-0.08 0 -0.16 0.08 -0.2 0.16 c-0.24 -0.04 -0.28 0.2 -0.36 0.32 c0.2 -0.08 0.48 -0.08 0.36 0.12 c-0.12 -0.12 -0.24 -0.04 -0.48 -0.04 c0 0.12 0.04 0.32 -0.12 0.24 c-0.04 0.24 0.2 0.16 0.24 0.32 c-0.12 0.04 -0.12 -0.08 -0.24 -0.04 c-0.04 0.12 -0.12 0.2 -0.16 0.28 c0.28 0.12 0.12 -0.2 0.36 -0.12 c-0.08 0.12 -0.08 0.28 -0.2 0.32 c0 -0.08 -0.16 -0.04 -0.2 -0.08 c-0.04 0.12 0.08 0.32 0 0.32 c-0.08 -0.04 -0.2 -0.16 -0.24 0 c0.28 0.08 0.12 0.2 0.04 0.4 c0.52 -0.04 0.28 -0.76 0.92 -0.68 c0.04 -0.12 0.12 -0.24 0.28 -0.24 c-0.08 -0.28 0.28 -0.4 0.48 -0.52 c0.12 -0.76 0.92 -1.08 1.08 -1.64 c-0.16 -0.04 -0.12 0.08 -0.2 0.08 l0 -0.12 c-0.16 0.08 -0.2 -0.08 -0.24 0.08 c0.04 0.04 0.12 0.08 0.24 0.04 z M16.68 31.52 c0.04 0.04 0 0 0 0 l0 0 z M16.560000000000002 32.480000000000004 c0.04 0.04 -0.04 0 0 0 l0 0 z M14.64 33.56 c0.2 0.04 0 -0.16 0 0 l0 0 z M14.4 34.76 c0.24 -0.04 0.04 -0.2 -0.04 -0.24 c-0.04 0.08 0.08 0.08 0.04 0.24 z M14.16 34.88 c0.08 0.16 0.12 -0.16 0 0 l0 0 z M18.2 35.24 c0.12 0.08 0.12 -0.24 0.04 -0.2 c0 0.08 -0.08 0.08 -0.04 0.2 z M18.2 35.519999999999996 l0 0.08 c0.12 0.08 0.12 -0.16 0.04 -0.12 c0 0 0 0.04 -0.04 0.04 z M18.04 35.96 c0.16 0 0.2 -0.12 0.24 -0.24 c-0.12 0 -0.28 0.04 -0.24 0.24 z M18.04 36.24 c0.12 0 0.2 -0.2 0.04 -0.2 c0 0.08 -0.04 0.12 -0.04 0.2 z M15.48 32.519999999999996 c-0.08 0.36 0.52 0.16 0.44 -0.16 c-0.12 0 -0.2 0.08 -0.2 0.24 c-0.12 0 -0.08 -0.12 -0.24 -0.08 z M16.36 32.36 c-0.16 0.08 -0.2 0.24 -0.32 0.32 c0.04 -0.16 0.12 -0.32 0.32 -0.32 z M15.96 32.76 c0.04 0.2 -0.2 0.32 -0.28 0.24 c0.12 -0.04 0.12 -0.24 0.28 -0.24 z M15.4 33.16 c-0.04 0.08 -0.08 0.16 -0.24 0.16 c0 -0.2 0.08 -0.24 0.24 -0.16 z M15.48 33.36 l0.12 0 l0 0.08 l-0.12 0 l0 -0.08 z M15.36 33.44 c0.2 0 0 0.36 -0.16 0.36 c-0.04 -0.2 0.2 -0.16 0.16 -0.36 z M19.240000000000002 33.480000000000004 c0.04 -0.16 0.04 0.2 0 0 l0 0 z M31.52 35.16 c0 0.04 0 0.12 0.08 0.12 c0.04 0 0.04 -0.04 0.08 -0.04 c0.04 -0.12 -0.08 -0.08 -0.16 -0.08 c1.08 -1 2.24 -1.8 3.32 -2.76 c0.04 0.08 0.08 0.16 0.2 0.16 c-0.2 0.68 -0.44 1.2 -1.04 1.48 c-0.08 0.16 0.08 0.08 0.16 0.08 c-0.16 0.24 -0.4 0.56 -0.6 0.48 c-0.12 0.04 0.04 0.08 0 0.2 c-0.44 0.16 -0.68 0.28 -0.88 0.72 c-0.56 0.04 -1 0.6 -1.48 0.88 c0.36 0.2 0.48 -0.44 0.96 -0.44 c0.04 0.12 -0.08 0.08 -0.08 0.2 c0.12 0 0.12 -0.16 0.32 -0.12 c0 -0.16 -0.12 -0.16 -0.04 -0.32 c0.36 0.16 0.48 -0.32 0.84 -0.32 l0 0.28 c-0.24 0 -0.4 0.32 -0.6 0.2 c0 0.08 0.04 0.16 0.08 0.16 c-0.92 0.96 -2.32 1.68 -3.32 2.48 c-0.04 0 -0.04 -0.08 -0.08 -0.12 c-1.56 1.44 -3.56 2.44 -5.04 3.96 c0.12 1.8 0.84 3.76 0.56 5.8 c-0.16 0.68 -0.56 1.52 -1 2.2 c-0.84 0.72 -2.2 1.68 -3.68 1.16 c-1.08 -0.64 -1.6 -1.84 -1.96 -3.16 c-0.08 -0.56 -0.16 -0.96 0 -1.44 c0.92 -2.4 2.72 -4.08 4.48 -5.84 c0.04 -0.44 -0.08 -0.84 -0.04 -1.32 l0.16 0 c-0.2 -1.4 0.08 -2.84 0.12 -4.72 c0.64 -1.36 0.92 -2.76 2.12 -3.56 c0.76 0.32 1.64 0.72 1.36 1.64 c-0.52 -0.04 -0.76 0.2 -1 0.4 c-1.16 2.36 -1.48 4.12 -1.2 6.76 c1.6 -1.04 3.24 -2.4 4.84 -3.28 c0 -0.08 -0.08 -0.08 -0.04 -0.16 c0.48 -0.16 0.6 -0.64 1.24 -0.68 c0 -0.08 -0.08 -0.12 0 -0.16 c0.16 0 0 0.04 0.04 0.16 c0.48 -0.36 0.64 -0.8 1.28 -1 z M34.4 33 c0.04 0 0 -0.04 0 0 l0 0 z M34.28 33.28 c-0.04 -0.16 0.08 -0.16 0.08 -0.24 c-0.16 -0.04 -0.24 0.2 -0.08 0.24 z M34 33.36 c-0.12 0.16 0.16 -0.12 0 0 l0 0 z M33.8 33.519999999999996 c-0.08 0.04 0 0.04 0 0 c0.04 -0.04 0 -0.08 0 0 z M34.12 33.64 c0.12 0.04 0.24 -0.12 0.12 -0.12 c-0.04 0.08 -0.16 0.04 -0.12 0.12 z M33.8 33.84 c0 0.08 0 0.12 0.04 0.16 c-0.28 0.08 -0.36 0.2 -0.52 0.44 c0.4 -0.08 0.6 -0.52 0.72 -0.64 c-0.04 -0.12 -0.16 0.04 -0.24 0.04 z M33.12 34.04 c-0.2 0.12 -0.4 0.24 -0.52 0.44 c0.2 -0.12 0.4 -0.24 0.52 -0.44 c0.08 0.04 0.2 -0.12 0.08 -0.16 c0 0.08 -0.08 0.08 -0.08 0.16 z M33.2 34.519999999999996 c0.08 0.2 0.08 -0.2 0 0 l0 0 z M32.72 34.96 c0.08 -0.12 0.2 0.04 0.36 0 c-0.16 -0.2 0 -0.2 0.04 -0.4 c-0.16 0.08 -0.52 0.2 -0.4 0.4 z M31.88 35 c-0.08 0.04 0 0.04 0 0 c0.16 -0.04 0.24 -0.16 0.36 -0.24 c-0.08 -0.08 -0.32 0.12 -0.36 0.24 z M32.36 35.08 c0.12 0.04 0.08 0.2 0.24 0.16 c0 -0.16 -0.12 -0.16 -0.2 -0.24 c0 0.04 -0.04 0.04 -0.04 0.08 z M31.68 35.64 c0.32 0.04 0.44 -0.48 0.68 -0.2 c0.04 -0.68 -0.6 0 -0.68 0.2 z M31.2 35.480000000000004 c0.08 0 0.12 -0.04 0.16 -0.08 c-0.12 0 -0.16 0.04 -0.16 0.08 z M31.04 35.56 c-0.16 -0.12 -0.12 0.2 0 0 l0 0 z M31.28 35.96 c-0.2 0 -0.32 0.12 -0.36 0.28 c-0.52 0.04 -0.8 0.32 -1.08 0.6 c0.16 0.08 0.2 -0.04 0.32 0.08 c0.08 -0.32 0.36 -0.48 0.72 -0.56 c-0.4 0.88 -1.32 1 -1.88 1.76 c0.6 -0.36 1.24 -0.68 1.72 -1.2 c-0.12 -0.08 -0.16 0.2 -0.2 0.04 c0.16 -0.16 0.72 -0.16 0.64 -0.44 c-0.04 0.2 -0.2 0.04 -0.2 -0.08 c0.12 -0.12 0.44 -0.28 0.32 -0.48 c0.2 0 0.28 -0.24 0.4 -0.16 c-0.04 -0.28 -0.32 -0.04 -0.44 0 c0 0.08 0.04 0.08 0.04 0.16 z M31.439999999999998 36 c0.04 0.2 0.04 -0.2 0 0 l0 0 z M32.44 36 c0.08 0.2 0.08 -0.2 0 0 l0 0 z M31.68 36.44 c0.04 0.04 -0.04 0 0 0 l0 0 z M29.48 36.68 c0.16 0 0.2 -0.16 0.28 -0.24 c-0.16 0.04 -0.28 0.08 -0.28 0.24 z M30.439999999999998 36.72 l0.08 0 l0 -0.08 l-0.08 0 l0 0.08 z M29.36 36.76 c0.04 0.04 0 0 0 0 l0 0 z M29.119999999999997 36.88 c0.2 0.04 0.04 -0.16 0 0 l0 0 z M29.56 37.08 c0.16 0 0.28 -0.04 0.24 -0.2 c-0.12 0 -0.24 0.04 -0.24 0.2 z M29.96 37 c0.04 0.16 0.12 -0.16 0 0 l0 0 z M25.64 40.44 c0.24 -0.04 0.24 -0.36 0.44 -0.44 c0.04 0.08 -0.16 0.16 0 0.2 c0 -0.12 0.16 -0.04 0.12 -0.2 l-0.12 0 c0.08 -0.16 -0.2 -0.36 0.12 -0.4 c0.08 0.08 0 0.16 -0.04 0.24 c0.16 -0.08 0.24 -0.08 0.16 0.12 c0.4 -0.2 0.68 -0.56 1.08 -0.72 c0 -0.16 -0.24 -0.12 -0.28 -0.24 c0.08 -0.12 0.16 -0.24 0.32 -0.24 c0.04 0.08 -0.24 0.16 -0.08 0.28 c0.52 0.08 0.68 -0.48 1.16 -0.6 c-0.08 -0.16 0.12 -0.28 0.12 -0.52 c0.24 -0.04 0.8 -0.48 0.88 -0.68 c0 0.12 -0.12 0.12 -0.16 0 c0 -0.12 0.2 -0.04 0.16 -0.16 c-0.32 0.16 -0.68 0.24 -0.8 0.56 c0 0.08 0.12 0 0.12 0.08 c-0.08 0.04 -0.12 0.12 -0.28 0.12 c-0.24 -0.2 -1 0.36 -1.2 0.68 c0.08 0 0.24 -0.08 0.24 0.04 c-0.08 0 -0.08 0.08 -0.16 0.08 c-0.08 -0.04 -0.16 -0.12 -0.32 -0.08 c-0.12 0.08 -0.16 0.48 -0.28 0.36 c0 -0.08 0.12 -0.04 0.08 -0.16 c-0.36 0.2 -1.16 0.6 -0.96 0.96 c-0.64 -0.24 -0.96 0.4 -0.96 1 c0.2 0.04 0.08 -0.24 0.28 -0.2 c0 0.12 -0.08 0.16 0.08 0.2 c0.08 -0.08 0.12 -0.2 0.28 -0.2 l0 -0.08 z M29.68 37.16 c-0.12 0.16 0.16 -0.12 0 0 l0 0 z M30 37.2 c-0.12 0.16 0.16 -0.12 0 0 l0 0 z M28.72 38.08 c0 0.04 -0.04 -0.04 0 0 l0 0 z M28.759999999999998 38.2 c-0.12 0.16 0.16 -0.08 0 0 l0 0 z M22.8 41 c0.04 -0.24 0 -0.68 -0.08 -0.92 c0.04 0.36 -0.04 0.68 0.08 0.92 z M24.68 40.36 l0.08 0 l0 -0.08 l-0.08 0 l0 0.08 z M24.24 40.56 c-0.04 0.36 0.28 0.36 0.04 0.64 c0.12 -0.04 0.16 0 0.16 0.12 c0.28 -0.12 0.68 -0.4 0.72 -0.6 c-0.08 0.08 -0.12 0.16 -0.24 0.2 c0 -0.24 0 -0.32 -0.12 -0.44 c-0.08 0.12 0.08 0.2 -0.04 0.28 c-0.04 0 -0.08 -0.2 -0.12 -0.04 c0.08 0.04 -0.04 0.28 -0.12 0.28 c0 -0.12 -0.12 -0.16 -0.12 -0.28 c0.12 -0.04 0.16 -0.24 0.24 -0.36 c-0.2 0.04 -0.24 0.16 -0.4 0.2 z M24.52 40.72 c0.04 0.04 0 -0.04 0 0 l0 0 z M24.32 41.44 c0.04 0.04 0 -0.04 0 0 l0 0 z M22.32 41.88 c-0.12 -0.04 -0.16 0.04 -0.2 0.12 c0.12 0 0.16 -0.08 0.2 -0.12 c0.12 0 0.16 -0.08 0.2 -0.16 c-0.12 0 -0.16 0.08 -0.2 0.16 z M21.919999999999998 42.28 c0 -0.04 0.12 -0.04 0.12 -0.12 l-0.16 0 c0 0.04 0 0.12 0.04 0.12 z M21.16 42.84 l0 0.08 l0.16 0 l0 -0.16 l-0.12 0 c0 0.04 0 0.08 -0.04 0.08 z M20.64 43.6 l0.08 0 c0 0.04 0.04 0.04 0.08 0.04 c-0.04 -0.24 0.2 -0.28 0.24 -0.48 c-0.2 0.08 -0.36 0.2 -0.4 0.44 z M19.6 49.6 c0.72 0.56 1.84 -0.08 2.52 -0.4 c1.52 -1.12 1.72 -3.92 1.16 -5.96 c0 0 0 -0.04 -0.04 -0.04 c-1.56 1.6 -3.6 3.32 -3.64 6.4 z M20.599999999999998 43.68 c-0.12 0.16 0.16 -0.12 0 0 l0 0 z M19.96 44.4 c0.24 -0.12 0.56 -0.4 0.48 -0.68 c-0.12 0.28 -0.4 0.36 -0.48 0.68 z M19.88 44.56 c0.04 0.04 -0.04 -0.04 0 0 l0 0 z M19.72 44.68 c0.04 0.04 0 0 0 0 l0 0 z M19.439999999999998 45.16 c0.16 -0.04 0.24 -0.16 0.28 -0.36 c-0.2 0 -0.2 0.24 -0.28 0.36 z M19.24 45.32 c0.24 0.08 -0.04 0.08 -0.04 0.24 c0.2 0 0.2 -0.16 0.24 -0.32 c-0.12 -0.04 -0.2 0 -0.2 0.08 z M19.119999999999997 45.76 c0.08 0 0.12 -0.04 0.12 -0.12 c-0.08 0.04 -0.16 0 -0.12 0.12 z M18.88 46.2 c0.12 0.04 0.12 -0.28 0.04 -0.24 c0.04 0.12 -0.08 0.12 -0.04 0.24 z M23.04 49.16 c0.04 0.04 -0.04 0 0 0 l0 0 z M23.759999999999998 50.16 c0.04 0.04 -0.04 0 0 0 l0 0 z M34.28 34.519999999999996 c-0.04 0.16 -0.2 0.2 -0.28 0.28 c-0.08 -0.24 0.16 -0.2 0.28 -0.28 z M34 34.92 c-0.08 0.32 -0.36 0.44 -0.68 0.52 c-0.16 -0.36 0.36 -0.44 0.68 -0.52 z M32.56 35.64 l0 0 s-0.04 -0.04 0 0 z M32.16 35.92 l0 0 c0.04 0.04 -0.04 -0.04 0 0 z M29.04 37.48 c0.16 -0.08 -0.12 0.16 0 0 l0 0 z M28.56 38.08 c0 0.16 -0.44 0.16 -0.28 0.32 c0 0.12 -0.24 0 -0.16 0.16 c-0.24 -0.2 0.24 -0.4 0.44 -0.48 z M27.919999999999998 38.2 c0.12 -0.16 0.08 0.16 0 0 l0 0 z M27.119999999999997 38.64 l0.08 0 l0 0.12 l-0.08 0 l0 -0.12 z M26.64 39.08 c-0.08 0.24 -0.32 0.36 -0.52 0.48 c0.12 -0.2 0.32 -0.36 0.52 -0.48 z M26.96 39.12 l0 0 c0.04 0.04 0 0 0 0 z M26.8 39.48 c-0.04 0.04 -0.08 0.08 -0.16 0.08 c-0.04 -0.12 0.08 -0.08 0.16 -0.08 z M25.759999999999998 39.84 l0 0 c0.04 0.04 0 0 0 0 z M25.52 39.88 c0.24 -0.24 -0.16 0.2 0 0 l0 0 z M25.759999999999998 39.96 c0.04 -0.04 0.04 0 0.08 0.04 l0 0.08 c-0.12 -0.08 -0.12 0.04 -0.2 -0.04 c0 -0.08 0.12 0 0.12 -0.08 z M25.2 40.24 l0 -0.16 c0.08 0 0.12 0.08 0.08 0.2 c-0.04 0 -0.04 -0.04 -0.08 -0.04 z M25.64 40.44 c-0.12 -0.04 -0.32 -0.2 -0.16 -0.32 c0.12 0.04 0.16 0.16 0.16 0.32 z M25.2 40.24 c0 0.04 -0.04 0.08 -0.04 0.12 c-0.12 0.04 -0.08 -0.2 0.04 -0.12 z M44.92 12.120000000000001 c-0.2 0.68 -0.16 1.56 -0.64 1.96 c-0.16 2.16 -1.2 4.24 -1.6 6.16 c0.92 0.12 2.16 0.08 3.16 0.04 c2.4 0.36 5.32 -0.16 7.68 1.16 c-0.2 0.08 -0.36 -0.04 -0.52 0.08 c-3 -1.08 -7.2 -0.56 -10.16 -1 c-0.2 0.04 -0.36 0.2 -0.4 0.44 c0 0.2 0.4 0.04 0.48 0.24 c0.04 -0.16 0.08 -0.36 0.16 -0.32 c0 0.2 0.48 0.36 0.64 0.08 c0.44 0.2 0.76 0.04 1.12 0.04 c0.12 0.04 0.08 0.2 0.16 0.28 c0.12 0 0.16 -0.04 0.16 -0.08 c0.08 0 0.04 0.08 0.08 0.08 c0.12 0 0.04 -0.16 -0.04 -0.16 c0 -0.12 0.16 0 0.16 0.08 c0.12 -0.04 -0.04 -0.16 0 -0.24 c0.48 0.6 1.32 0.12 1.88 0.4 c0.04 0 0.04 -0.04 0.04 -0.12 c0.24 0.16 0.28 -0.08 0.56 0.08 c0.12 -0.12 -0.24 -0.12 -0.24 -0.28 c0.16 0.08 0.4 0.04 0.44 0.04 c0.12 0.2 -0.08 0 -0.08 0.12 c0.52 0.36 1.24 0 1.8 0.24 c0.12 -0.04 0.2 -0.12 0.24 -0.24 c0.12 0.04 0 0.32 0.2 0.28 c0.12 -0.04 -0.08 -0.12 -0.04 -0.24 c0.12 0.16 0.36 0.28 0.28 0.48 c0.24 0 0.16 -0.08 0.16 -0.24 c0.16 0.16 0.36 -0.12 0.4 0.04 c0.12 0 0.04 -0.16 0.08 -0.24 c0.32 0.24 1 -0.08 1.6 0.24 c-0.4 0.12 -0.84 0.16 -1.32 0 c-0.16 0.08 -0.12 0.36 -0.36 0.32 c-0.16 0.04 -0.12 -0.16 -0.16 -0.24 c-0.12 0.28 -0.68 0.04 -0.64 0.36 c-0.2 0.04 -0.08 -0.24 -0.24 -0.24 c0 0.24 -0.12 0.12 -0.4 0.2 c0 -0.12 0.08 -0.12 0.16 -0.12 c0 -0.12 -0.28 -0.16 -0.2 0.04 c-0.12 -0.04 -0.08 -0.2 -0.28 -0.16 c-0.16 0 -0.16 0.12 -0.24 0.24 c-2.24 -0.28 -5.08 -0.2 -6.72 -0.12 c-0.2 0.08 -0.08 0.48 -0.32 0.48 c0 1.16 -0.72 2.2 -0.88 3.32 c-0.56 1.6 -1.36 3.68 -1.96 5.36 c-0.8 2.32 -2.4 3.84 -2.68 6.24 c0 0.56 0 1.04 -0.16 1.6 c0.04 0.68 0.08 1.44 -0.08 2.12 c0.04 1.92 0.2 4.12 1.52 5.24 c-1.96 -0.24 -2.4 -2.12 -2.72 -3.8 c-0.08 -0.88 -0.24 -2.16 -0.12 -3.16 c0.12 0 0.04 0.16 0.16 0.12 c0 -0.32 -0.08 -0.76 0.08 -0.96 c-0.24 0.12 -0.12 0.36 -0.2 0.52 c0 -0.72 -0.08 -1.4 0.24 -1.96 c-0.04 -0.56 0.04 -1.24 -0.32 -1.72 c0.2 -0.24 0.32 -0.56 0.56 -0.76 c0.6 -4.56 1.52 -7.92 2.64 -12.16 c-1.36 -0.24 -3.04 0.96 -4.24 0.16 c-0.2 -0.88 0 -1.88 1 -1.64 c1.08 -0.28 2.4 -0.28 3.8 -0.48 c0.64 -2 1.36 -4.64 2.08 -6.92 c0.76 -2.36 1.2 -5 2.96 -6.36 c1.56 0.12 1.8 1.88 1.36 3.4 c0.16 0.16 0.16 0.2 0.12 0.48 c0.08 0 0.04 -0.16 0.08 -0.2 c0.2 0.48 -0.36 0.88 -0.24 1.28 c-0.04 0 -0.04 -0.04 -0.12 -0.04 c-0.04 0.08 0 0.32 0.04 0.16 l0.04 0 z M42.92 11.120000000000001 c-0.08 -0.28 -0.2 0.16 0 0 c-0.04 0.08 -0.04 0.16 -0.12 0.16 c0 -0.12 -0.04 -0.08 -0.04 0 l-0.04 0 c-0.08 0.08 -0.08 0.2 -0.04 0.32 c-0.08 0 -0.04 0.04 -0.08 0.08 l-0.04 0 c0.04 0.24 -0.24 0.44 -0.08 0.64 c0.04 -0.24 0.16 -0.36 0.12 -0.64 c0.08 0 0.04 -0.04 0.08 -0.08 l0.04 0 c0 -0.08 0 -0.12 0.04 -0.12 c-0.76 2.72 -1.8 5.92 -2.6 8.8 c0.44 0.08 0.56 -0.04 0.96 0 c1.08 -4 2.6 -7.64 2.84 -11.56 c-0.44 0.68 -0.76 1.52 -1.04 2.4 z M44.64 9.120000000000001 c-0.16 0.16 0.16 0.16 0 0 l0 0 z M42.08 20.16 c-0.12 0.04 0.04 0.2 0 0 c0.2 -0.16 0 -0.24 -0.04 -0.4 c0.08 -0.24 0.28 -0.4 0.24 -0.72 c0.12 -0.08 0.16 0 0.28 -0.12 l0 -0.28 c-0.04 0 -0.12 0 -0.12 -0.04 c0.12 -0.24 0.08 -0.64 0.28 -0.76 c0 0.04 0 0.08 0.04 0.08 c0.04 -0.2 0.32 -0.4 0.16 -0.64 c-0.12 0.12 -0.04 0.36 -0.16 0.4 c-0.08 -0.24 0.12 -0.52 0.2 -0.72 c0.08 0 0 0.16 0.08 0.16 c0.2 -0.56 0.36 -0.92 0.48 -1.64 c-0.28 0.32 -0.28 1.2 -0.56 1.32 c0.56 -2.16 1.4 -4.4 1.68 -6.72 c0.04 0 0.04 -0.08 0 -0.08 c-0.08 -0.2 0.08 -0.24 0.12 -0.32 c-0.08 -0.04 -0.16 -0.12 -0.08 -0.2 c-0.28 0.68 -0.36 1.52 -0.44 2.2 c-0.08 0.04 -0.12 -0.04 -0.2 -0.04 c0 0.12 0.08 0.16 0.08 0.28 c-0.24 0.2 -0.56 1.04 -0.32 1.44 c-0.12 0.08 -0.16 -0.04 -0.28 0.04 c-0.44 2.32 -1.56 4.84 -1.96 6.92 c0.28 0.04 0.36 -0.16 0.48 -0.28 c0 0.08 0.04 0.08 0.04 0.12 z M43.08 10.399999999999999 c-0.04 0 0.04 0.04 0 0 c0.2 -0.08 -0.12 -0.16 0 0 z M42.2 10.719999999999999 c0.2 0.04 0 -0.16 0 0 l0 0 z M42.92 10.760000000000002 c0 0.04 -0.04 0 0 0 l0 0 z M42.12 10.8 c0.04 0.04 0 0 0 0 l0 0 z M44.2 10.920000000000002 c0.2 0.04 0 -0.16 0 0 l0 0 z M44.16 11.239999999999998 c0.04 0.2 0.04 -0.2 0 0 l0 0 z M44.88 11.36 c0.04 0 -0.04 -0.04 0 0 l0 0 z M44.84 11.399999999999999 c-0.08 0.28 0.2 0 0 0 l0 0 z M41.88 11.52 c0.04 0.04 0 0 0 0 l0 0 z M44.76 11.96 c0.08 -0.04 0.12 -0.28 0 -0.32 c0 0.16 -0.16 0.24 0 0.32 z M42.28 12.64 c0.16 0.08 0.12 -0.24 0.04 -0.24 c0.04 0.12 -0.04 0.12 -0.04 0.24 z M41.56 12.68 c-0.04 0 -0.04 0.08 -0.04 0.12 c-0.16 0.04 0.04 0.24 0 0 c0.04 0 0.04 -0.08 0.04 -0.12 c0.16 0 -0.04 -0.2 0 0 z M44.2 12.719999999999999 l0.08 0 l0 -0.08 l-0.08 0 l0 0.08 z M42.24 13.04 c0 -0.08 0.2 -0.32 0 -0.32 c0.04 0.16 -0.16 0.24 0 0.32 z M41.08 12.96 l0 0.12 c0.12 0.08 0.16 -0.16 0.04 -0.16 c0 0.04 0 0.08 -0.04 0.04 z M41.4 13.079999999999998 c0.08 0.2 0.08 -0.2 0 0 l0 0 z M44.6 13.280000000000001 c0 -0.04 0.08 -0.24 0 -0.24 c-0.04 0 -0.12 0.2 0 0.24 z M41 13.440000000000001 c-0.08 0.04 0 0.08 0 0 c0.08 -0.04 0.08 -0.2 0.12 -0.28 c-0.12 0 -0.12 0.16 -0.12 0.28 z M42.08 13.52 c0.04 -0.08 0.16 -0.32 0.04 -0.36 c0 0.08 -0.12 0.32 -0.04 0.36 z M44.12 13.2 c0.04 0.2 0.04 -0.16 0 0 l0 0 z M41.32 13.399999999999999 c0 0 0 -0.04 0.04 -0.04 c0 -0.04 0 -0.12 -0.08 -0.08 c0 0.04 0 0.12 0.04 0.12 z M41.24 13.84 c-0.08 -0.16 0.16 -0.32 -0.08 -0.32 c0.04 0.08 -0.04 0.32 0.08 0.32 z M43.96 13.559999999999999 l0 0.08 c0.12 0.08 0.16 -0.16 0.04 -0.12 c0 0 0 0.04 -0.04 0.04 z M40.88 13.8 c-0.04 0.04 0 0.04 0 0 l0.04 0 c-0.04 -0.16 0.08 -0.12 0.08 -0.24 c-0.16 -0.04 -0.08 0.16 -0.12 0.24 z M42 13.84 c0 -0.04 0.12 -0.2 0 -0.2 c0 0.04 -0.12 0.2 0 0.2 z M43.96 13.920000000000002 c0 0 0.12 -0.16 0 -0.16 c0 0 -0.12 0.16 0 0.16 z M40.84 14.079999999999998 c-0.04 -0.08 0.16 -0.16 0 -0.2 c0 0.04 -0.12 0.2 0 0.2 z M41.84 14.04 c0.2 0.04 0 -0.16 0 0 l0 0 z M43.72 14.48 c0.2 0.04 0.04 -0.24 0.24 -0.2 c-0.12 -0.12 0.12 -0.28 -0.08 -0.28 c-0.04 0.16 -0.12 0.28 -0.16 0.48 z M41.04 14.36 c0 -0.08 0.16 -0.36 0 -0.32 c0.04 0.12 -0.16 0.24 0 0.32 z M44.16 14.239999999999998 c0 -0.04 0 -0.08 0.04 -0.08 c0 -0.04 0 -0.08 -0.08 -0.08 c0 0.04 -0.04 0.12 0.04 0.16 z M40.6 14.719999999999999 c-0.16 0.08 0.16 0.12 0 0 l0.04 0 c0.04 -0.16 0.2 -0.4 0.12 -0.56 c-0.08 0.2 -0.12 0.36 -0.16 0.56 z M41.76 14.280000000000001 c0.16 0.16 0.08 -0.16 0 0 l0 0 z M41.76 14.600000000000001 c-0.04 -0.08 0.12 -0.16 0 -0.2 c0 0.04 -0.12 0.2 0 0.2 z M40.88 14.719999999999999 c-0.16 0.08 0.16 0.12 0 0 c0.16 -0.08 -0.04 -0.28 0 0 z M43.72 14.600000000000001 c0.04 0.2 0.04 -0.2 0 0 l0 0 z M40.76 15.079999999999998 c0.12 0.04 0.12 -0.08 0.12 -0.2 c-0.16 -0.04 -0.04 0.16 -0.12 0.2 z M41.6 15 c0.04 0.04 0 -0.04 0 0 l0 0 z M40.36 15.440000000000001 c0.16 -0.12 0.24 -0.28 0.16 -0.44 c-0.04 0.16 -0.12 0.24 -0.16 0.44 z M43.96 15.120000000000001 l0.08 0 l0 -0.08 l-0.08 0 l0 0.08 z M41.56 15.2 c-0.08 0 0 0.04 0 0 c0.08 -0.04 0 -0.08 0 0 z M40.68 15.32 c0.08 0.2 0.08 -0.2 0 0 l0 0 z M43.480000000000004 15.440000000000001 c0.04 0 0 -0.04 0 0 l0 0 z M40.6 15.48 l0 0.08 c0.12 0.08 0.16 -0.16 0.04 -0.12 c0 0 0 0.04 -0.04 0.04 z M40.28 16 c-0.04 -0.16 0.32 -0.44 0.04 -0.52 c0.08 0.24 -0.2 0.4 -0.04 0.52 z M41.36 15.68 c0.04 0 0 -0.04 0 0 l0 0 z M43.76 15.719999999999999 c-0.04 0.28 0.04 -0.2 0 0 l0 0 z M40.56 15.760000000000002 l0 0 c0.08 -0.24 -0.12 0.24 0 0 z M40.519999999999996 16.08 c0 0 0 -0.04 0.04 -0.04 c0 -0.04 -0.04 -0.12 -0.12 -0.08 c0.04 0.04 0 0.12 0.08 0.12 z M40.08 16.4 c0.12 0 0.2 -0.24 0.08 -0.32 c-0.04 0.08 0 0.24 -0.08 0.32 z M41.24 16.16 c-0.04 0.28 0 -0.2 0 0 l0 0 z M40.32 16.8 c0.04 -0.12 0.16 -0.36 0.04 -0.48 c0.04 0.2 -0.16 0.4 -0.04 0.48 z M39.72 17.52 c-0.24 0.8 -0.64 2.04 -0.76 2.8 c0.28 -0.76 0.76 -2.12 0.76 -2.8 c0.16 -0.28 0.4 -0.72 0.36 -1.08 c-0.2 0.2 -0.28 0.76 -0.36 1.08 z M41.12 16.56 c-0.12 0.16 0.16 -0.08 0 0 l0 0 z M40.2 16.96 l-0.04 0 c-0.08 0.48 -0.24 0.68 -0.28 1.16 c0.16 -0.2 0.32 -0.76 0.32 -1.16 c0.08 -0.04 0 -0.04 0 0 z M40.4 16.96 c-0.04 0.28 0.04 -0.2 0 0 l0 0 z M41 16.96 c0 0.04 -0.04 0 0 0 l0 0 z M41 17.28 c-0.04 -0.04 0 -0.16 -0.08 -0.16 c-0.04 0.04 -0.04 0.16 0.08 0.16 z M40.8 17.68 c0.04 0.04 -0.04 0 0 0 l0 0 z M40.76 17.88 c0 0.04 -0.04 -0.04 0 0 l0 0 z M42.72 18.08 c0.04 0.04 0.04 0 0 0 c-0.04 -0.08 -0.08 0 0 0 z M39.24 20.32 c0.32 -0.68 0.44 -1.36 0.68 -2.12 l-0.12 0 c-0.16 0.84 -0.48 1.44 -0.56 2.12 z M40.56 18.44 c0.16 0.04 0.08 -0.16 0.12 -0.2 c-0.12 -0.04 -0.04 0.16 -0.12 0.2 z M42.56 18.56 c0.04 0 0 -0.04 0 0 l0 0 z M40.4 19.08 c-0.04 0.04 0 0.04 0 0 c0.08 -0.04 0.08 -0.12 0.12 -0.2 c-0.16 -0.04 -0.08 0.12 -0.12 0.2 z M40.28 19.64 c0 0 0.08 -0.2 0 -0.24 c0.04 0.12 -0.16 0.2 0 0.24 z M42.32 19.44 c0.04 0.04 0 0 0 0 l0 0 z M42.24 19.76 c-0.12 0.16 0.16 -0.12 0 0 l0 0 z M40.16 19.84 c-0.04 0.28 0.04 -0.2 0 0 l0 0 z M41.72 20.88 c0 0.08 0.04 0 0 0 c0 -0.08 0.16 -0.08 0.12 -0.24 c-0.12 0 -0.36 -0.08 -0.48 0.08 c0.24 0.08 -0.2 0 -0.04 0.36 c0.12 0 0.12 -0.16 0.32 -0.08 c0 -0.08 0.04 -0.08 0.08 -0.12 z M40.6 20.88 c0 -0.08 -0.08 -0.12 -0.16 -0.16 c-0.2 0.08 -0.32 0 -0.4 0.12 c0.2 -0.04 0.12 0.24 0.4 0.2 c0.08 -0.12 -0.12 -0.2 0 -0.24 c0.04 0.08 0.08 0.08 0.08 0.2 c0.16 0.08 0.52 -0.08 0.36 -0.28 c0 0.24 -0.12 0.04 -0.28 -0.08 c-0.08 0.12 0.16 0.2 0 0.24 z M41.88 20.72 c0.04 0 0 -0.04 0 0 l0 0 z M44.64 21.24 c0.16 0.16 0.08 -0.16 0 0 l0 0 z M41.480000000000004 21.32 c0.04 0 0.04 0.04 0.08 0.04 c0 -0.04 0 -0.16 -0.08 -0.12 l0 0.08 z M49.96 21.6 c0 -0.08 -0.04 -0.12 -0.08 -0.12 c0 0.08 -0.04 0.16 0.08 0.12 z M49.68 21.6 l0.08 0 l0 -0.08 l-0.08 0 l0 0.08 z M46.92 21.72 c0.04 -0.12 -0.08 -0.08 -0.12 -0.16 c0 0.12 0.04 0.16 0.12 0.16 z M47.28 21.68 c0.04 0.16 0.04 -0.2 0 0 l0 0 z M40.519999999999996 25.2 c0.12 -0.04 0 -0.12 0.12 -0.24 c-0.04 0.04 -0.12 0.04 -0.12 -0.04 c0.16 -0.28 0.44 -0.52 0.28 -0.96 c0.12 -0.04 0.12 0 0.24 -0.08 c0.04 -0.36 0.12 -0.8 0.28 -1 c-0.12 -0.04 -0.16 -0.44 0.04 -0.48 l0 0.08 c-0.12 0 0.04 0.2 0 0 c0.12 -0.12 0.12 -0.48 0 -0.56 c-0.08 0.04 -0.2 0 -0.36 0.04 c-0.2 1.12 -0.76 1.92 -0.88 2.84 c-0.28 0.52 -0.56 1.2 -0.68 1.92 l-0.12 -0.12 c-0.08 0.2 0.08 0.48 0 0.52 c-0.12 0.04 0 -0.2 -0.16 -0.12 c-0.16 0.96 -0.6 1.6 -0.88 2.52 c0.2 -0.12 0.12 -0.12 0.32 0 c0.32 -1 0.88 -1.96 1.2 -2.88 c0.12 0 -0.04 0.24 0.08 0.2 c0 -0.08 0.04 -0.12 0.08 -0.12 c0.04 -0.2 -0.16 -0.12 -0.12 -0.32 c0.12 0.04 0.16 0.12 0.24 0 c-0.12 -0.16 -0.12 -0.52 0.12 -0.32 c0.16 -0.24 -0.16 -0.16 -0.12 -0.44 c0.12 0 0.08 0.12 0.12 0.12 c0.16 -0.16 -0.12 -0.2 0 -0.32 c0.08 0.04 0.12 0.08 0.2 0.12 c0 -0.16 0.08 -0.2 0.12 -0.36 z M39.64 22.04 c-0.68 2.24 -0.96 4.4 -1.72 6.52 c0.16 0.36 -0.28 0.72 -0.04 0.92 c0.96 -2.48 1.96 -5.08 2.68 -7.48 c-0.44 -0.08 -0.64 0.08 -0.92 0.04 z M37.72 24.8 c-0.28 0.44 -0.52 1.08 -0.32 1.48 c0.4 -1.28 0.68 -2.92 1.04 -4.08 l-0.16 0 c-0.2 1.08 -0.52 1.56 -0.56 2.6 z M38.48 22.76 c0.16 -0.04 0.32 -0.48 0.16 -0.52 c-0.08 0.2 -0.12 0.4 -0.16 0.52 z M38.28 23.88 c0.04 -0.4 0.4 -0.88 0.16 -1.08 c0.04 0.4 -0.36 0.76 -0.16 1.08 z M38.12 24.08 c0.2 0.04 0 -0.16 0 0 l0 0 z M38.12 24.32 c0.12 0.04 0.12 -0.24 0 -0.16 l0 0.16 z M38.12 24.48 c0.04 0.2 0.04 -0.16 0 0 l0 0 z M37.88 25.52 c-0.08 0 0 0.04 0 0 l0.04 0 c0.08 -0.2 0.08 -0.48 0.12 -0.68 c-0.16 0.08 -0.2 0.48 -0.16 0.68 z M37.72 26.28 c-0.04 -0.24 0.2 -0.44 0.04 -0.64 c-0.04 0.16 -0.2 0.56 -0.04 0.64 z M37.88 26 c0 0 -0.04 -0.04 0 0 l0 0 z M37.56 26.72 c0 -0.16 0.2 -0.36 0 -0.4 c0 0.12 -0.08 0.24 0 0.4 z M36.56 29.6 c-0.04 0.04 0 0.12 -0.08 0.12 c-0.08 -0.24 -0.16 0.16 0 0 c0.08 0.32 -0.16 0.12 -0.2 0.2 c0.04 0.04 0.12 0.04 0.16 0.08 c-0.24 0.64 -0.48 1.2 -0.4 1.8 c-0.16 0.08 -0.12 0.24 -0.16 0.56 c-0.08 0.08 -0.16 0.4 -0.04 0.6 c-0.08 -0.08 -0.16 -0.04 -0.12 0.08 c0.04 0 0.12 0 0.12 0.04 c0 0.16 -0.2 0.2 -0.24 0.36 c0.04 0.04 0.16 0 0.16 0.08 c-0.16 0 -0.24 0.2 -0.04 0.24 c-0.12 0.08 -0.32 0.32 -0.12 0.44 c-0.08 -0.24 0.28 -0.28 0.12 -0.44 c0 -0.12 0.04 -0.04 0.08 -0.04 c0.28 -1.8 0.56 -2.8 0.76 -4.12 c0.24 -1.2 0.72 -2.08 0.68 -3.24 c-0.16 0.28 -0.16 0.88 -0.32 1.16 c0.2 0.2 -0.28 0.4 -0.08 0.68 c-0.08 0.04 -0.12 -0.16 -0.12 0.04 c0.2 0.28 -0.36 1.04 -0.28 1.36 l0.12 0 z M37.44 26.880000000000003 c0.04 0.04 -0.04 0 0 0 l0 0 z M37.32 27.52 c0.08 -0.24 0.2 -0.32 0.08 -0.52 c0.04 0.2 -0.2 0.36 -0.08 0.52 z M39.72 27.119999999999997 c0.04 -0.04 0.12 -0.08 0 -0.12 c0 0.04 -0.08 0.12 0 0.12 z M39.6 27.48 c-0.12 0.16 0.16 -0.12 0 0 l0 0 z M37.2 27.96 c0.12 0 0.08 -0.16 0.12 -0.24 c-0.12 -0.04 -0.12 0.08 -0.12 0.24 z M37.16 28.08 c0.2 0.08 0 -0.12 0 0 l0 0 z M36.96 29 l-0.04 0 c0 0.28 -0.2 0.36 -0.08 0.6 c-0.2 0.16 -0.12 0.6 -0.24 0.84 c0.28 -0.2 0.12 -0.56 0.24 -0.84 c0.16 -0.08 0.08 -0.32 0.12 -0.6 c0.16 -0.08 0.16 -0.52 0.12 -0.72 c-0.04 0.24 -0.12 0.6 -0.12 0.72 z M38.2 29.759999999999998 c0 -0.04 0.08 -0.08 0 -0.12 c0 0.04 -0.08 0.12 0 0.12 z M38.44 29.68 c0.04 0.04 0 0 0 0 l0 0 z M38.16 30.119999999999997 c0.04 0.2 0.04 -0.2 0 0 l0 0 z M36.6 30.6 c0.04 0.04 0 -0.04 0 0 l0 0 z M36.56 30.8 c0.08 0.16 0.08 -0.2 0 0 l0 0 z M36.36 31.92 c0 -0.2 0.28 -0.56 0.16 -0.84 c-0.04 0.24 -0.24 0.6 -0.16 0.84 z M36.2 32.88 c0.04 -0.28 0.28 -0.56 0.08 -0.8 c-0.04 0.32 -0.16 0.52 -0.08 0.8 z M35.08 37.04 l0 0 c0.2 0 -0.04 0.28 0 0 z M35.12 37.6 c0.04 -0.12 0.12 -0.2 -0.04 -0.24 c0.04 0.08 -0.04 0.24 0.04 0.24 z M35.48 37.6 c0.2 0.04 0 -0.16 0 0 l0 0 z M35.08 37.8 c0 -0.08 0.08 -0.12 0 -0.16 c0 0.08 -0.08 0.12 0 0.16 z M35.48 37.8 c0.12 0.2 0.04 -0.16 0 0 l0 0 z M35.4 38.12 c0.16 0.08 0.16 -0.2 0.08 -0.2 c0 0.12 -0.08 0.12 -0.08 0.2 z M35.04 38.28 c0.12 0 0.2 -0.08 0.2 -0.2 c-0.12 0 -0.2 0.08 -0.2 0.2 z M35.4 39.04 c-0.04 0.28 0.04 -0.2 0 0 l0 0 z M35.36 39.24 c0.08 0.16 0.12 -0.2 0 0 l0 0 z M35.04 39.6 c-0.04 -0.04 0.04 -0.24 -0.04 -0.24 c-0.04 0.12 -0.12 0.24 0.04 0.24 z M35.4 39.84 c0 -0.08 0.08 -0.32 -0.08 -0.28 c0.04 0.08 0 0.24 0.08 0.28 z M35.12 39.92 c-0.04 -0.2 0.12 -0.28 -0.04 -0.32 c0.04 0.16 -0.12 0.28 0.04 0.32 z M35.36 40.4 c0.04 -0.12 0.08 -0.32 0 -0.44 c-0.04 0.04 -0.08 0.36 0 0.44 z M35.08 40.04 c0.04 0.2 0.04 -0.2 0 0 l0 0 z M35.08 40.4 c-0.04 0.2 0.16 0 0 0 c-0.04 -0.12 0.16 -0.16 0 -0.2 c0 0.04 -0.08 0.04 -0.08 0.08 c0.04 0.04 0 0.12 0.08 0.12 z M35.36 41.2 c-0.04 -0.24 0.08 -0.56 -0.04 -0.72 c0.04 0.32 -0.12 0.52 0.04 0.72 z M35.12 40.8 c0 -0.04 0.08 -0.24 -0.04 -0.24 c-0.08 0.08 -0.08 0.24 0.04 0.24 z M35.04 41.04 c-0.04 0.32 0.04 -0.16 0 0 l0 0 z M35.32 41.28 c-0.08 0.48 0.16 0.52 0 0 l0 0 z M45.32 8.879999999999999 l0 0 c-0.04 0.32 0 -0.16 0 0 z M45.24 9.239999999999998 c0.08 -0.16 0.16 0.16 0 0 l0 0 z M44.64 10 c-0.08 0 -0.04 0.08 0 0.08 l0 -0.08 z M45.16 10.280000000000001 c-0.04 -0.36 0.16 -0.16 0 0 l0 0 z M45.16 10.280000000000001 c0 0.08 -0.08 0.04 0 0 l0 0 z M42.76 11.280000000000001 l0.04 0 c0 0.08 0.04 0.2 -0.04 0.2 l0 -0.2 z M44.92 12.120000000000001 c0 -0.08 0.08 -0.04 0 0 l0 0 z M43.96 12.36 c0.08 -0.16 0.16 0.16 0 0 l0 0 z M43.92 12.48 c0.16 0.2 -0.12 0.28 0 0 l0 0 z M43.8 12.8 c0.08 0 0.12 0.04 0.12 0.12 c-0.12 0.04 -0.08 -0.04 -0.12 -0.12 z M43.64 13.64 c0 -0.12 0.2 0.04 0 0 l0 0 z M43.519999999999996 14.079999999999998 c-0.04 -0.2 0.16 0 0 0 l0 0 z M43.519999999999996 14.079999999999998 c0.04 0.2 -0.12 0 0 0 l0 0 z M43.08 15.559999999999999 c0.08 -0.2 0.08 0.2 0 0 l0 0 z M42.84 16.08 l0.12 0 l0 0.2 l-0.12 0 l0 -0.2 z M42.72 16.68 l0 0 c0.04 0.04 -0.04 -0.04 0 0 z M42.480000000000004 17.64 l0 0 c0.04 0.04 -0.04 -0.04 0 0 z M42.32 18.8 l0.12 0 l0 0.08 c-0.04 0 -0.04 0.04 -0.08 0.04 l-0.08 0 l0 -0.08 c0.04 0 0.04 -0.04 0.04 -0.04 z M44.24 20.8 c-0.32 0.16 -0.24 -0.12 0 0 l0 0 z M45.16 21.2 c-0.12 -0.08 -0.16 -0.2 -0.2 -0.36 c0.12 0.08 0.16 0.2 0.2 0.36 z M46.44 20.88 c0.08 -0.16 0.16 0.16 0 0 l0 0 z M46.76 20.88 c0.2 0.04 0.32 0.08 0.36 0.24 c-0.2 0 -0.24 -0.24 -0.32 0 c-0.16 0.08 -0.08 -0.2 -0.04 -0.24 z M48.32 20.96 c0.16 -0.04 0.04 0.16 0.16 0.16 c-0.08 0.16 -0.12 -0.12 -0.16 -0.16 z M45.72 21.04 l0 0 c0.04 0.04 0 0 0 0 z M45.88 21 c0.08 0 0.12 0.04 0.2 0.04 c0 0.08 -0.28 0.08 -0.2 -0.04 z M48.92 21.04 c0 -0.04 0.08 -0.04 0.12 -0.04 l0 0.12 c-0.04 0 -0.08 -0.08 -0.12 -0.08 z M49.2 21 c0.12 0 0.12 0.16 0.04 0.24 c-0.12 0 0 -0.16 -0.04 -0.24 z M46.32 21.08 c0.08 -0.16 0.16 0.16 0 0 l0 0 z M46.519999999999996 21.08 c0.04 -0.2 0.04 0.2 0 0 l0 0 z M47.28 21.08 c0.04 -0.2 0.04 0.2 0 0 l0 0 z M48.6 21.04 c0.04 0.04 0.08 0.04 0.16 0.04 c0 0.08 -0.16 0.04 -0.16 0.16 c-0.12 -0.04 0.08 -0.12 0 -0.2 z M48.24 21.12 l0 0 c-0.04 -0.04 -0.08 0.04 0 0 z M48.24 21.12 l0 0 c0.04 0.08 0.04 0 0 0 z M49.72 21.2 c0.08 -0.16 0.12 0.16 0 0 l0 0 z M50.44 21.2 c0.08 0 0.12 0.08 0.08 0.16 c-0.08 0 -0.08 -0.08 -0.08 -0.16 z M50.64 21.2 c0.04 0 0.08 0.08 0.08 0.16 c-0.08 0 -0.08 -0.08 -0.08 -0.16 z M52.760000000000005 21.52 c0.04 -0.2 0.04 0.2 0 0 l0 0 z M51.6 21.72 c0.04 -0.2 0.04 0.2 0 0 l0 0 z M51.36 21.8 c0 -0.12 0.2 0.04 0 0 l0 0 z M40.84 23.68 c0.12 -0.12 0 0.44 0 0 l0 0 z M40.36 24.32 c0 -0.16 0.2 0.04 0 0 l0 0 z M40.519999999999996 25.2 c-0.08 0 -0.12 -0.08 -0.08 -0.08 s0.08 0.04 0.08 0.08 z M39.44 26.8 l0 0 c0.04 0.04 0 0 0 0 z M38.52 29.240000000000002 l0 0 c0.04 0.04 0 0 0 0 z M36.04 31.560000000000002 c0.04 -0.2 0.04 0.2 0 0 l0 0 z M36 32.04 l0 0 c0.04 0.04 -0.04 -0.04 0 0 z M35.88 32.36 c0.08 0 0.04 0.08 0 0 l0 0 z M35.04 36.84 l0 0 c0.04 0.04 -0.04 -0.04 0 0 z M35 42.36 l0 0.12 c-0.08 0 -0.12 -0.04 -0.12 -0.12 l0.12 0 z M49.24 36.24 c0.04 0 0.04 -0.04 0.04 -0.04 c-0.04 -0.08 -0.04 0 -0.04 0.04 c-0.16 0.12 -0.48 0.2 -0.44 0.36 c-0.16 0.2 -0.4 0.2 -0.64 0.36 c-1.64 1.04 -3.72 4.48 -6.04 3.56 c-0.08 -0.28 -0.24 -0.48 -0.32 -0.72 c0 -0.2 -0.16 0.08 -0.16 -0.08 c-0.12 -0.2 -0.2 -0.4 -0.32 -0.6 c0.56 -2.8 2.08 -4.64 3.56 -6.6 c0.56 -0.44 1.24 -0.96 2.16 -0.96 c0.88 0.2 1.92 0.48 2.08 1.56 c0.08 0.6 -0.16 1 -0.4 1.4 c0.32 0 0.68 -0.32 1.2 -0.24 c0.72 0.28 0.84 1.76 0.32 2.28 c0.36 0.6 -0.36 1.48 -0.08 2.16 c4 -0.64 6.24 -3.48 8.68 -5.84 c-0.28 2.12 -2.44 3.2 -3.84 4.64 c-0.92 0.52 -1.6 1 -2.6 1.44 c0.08 0.12 0.24 -0.12 0.4 -0.08 c-0.04 0.12 -0.2 0.08 -0.2 0.2 c1.64 -0.56 2.68 -1.92 4.08 -2.56 c-0.04 -0.12 -0.16 0.04 -0.24 0 c0.08 -0.12 0.2 -0.36 0.28 -0.08 c0.12 -0.28 0.56 -0.76 1.12 -0.88 c-1.72 2.08 -3.92 3.48 -6.56 4.72 c-0.36 0.04 -0.64 -0.08 -1 -0.08 c-0.6 -0.2 -0.8 -0.52 -1.08 -1.04 c-0.04 -0.8 -0.08 -2.04 0.04 -2.92 z M42.88 39 c2.04 -1 3.32 -2.68 4.96 -4.08 c-0.32 -0.28 -0.12 -1.24 -0.2 -1.6 c-2.64 0.84 -3.6 3.36 -4.76 5.68 z M58.36000000000001 33.8 c0.04 0.16 0.12 -0.2 0 0 l0 0 z M58.120000000000005 34.08 c0.08 0.08 0.16 -0.04 0.2 -0.16 c-0.12 0.04 -0.24 0.04 -0.2 0.16 z M53.28 37.88 c-0.04 -0.08 -0.12 -0.08 -0.12 0 c-0.12 -0.04 -0.16 0.04 -0.2 0.12 c0.12 0 0.16 -0.08 0.2 -0.12 l0.12 0 c-0.08 0.16 -0.28 0.2 -0.44 0.28 c0 -0.08 0.2 -0.16 0 -0.16 c-0.08 0.16 -0.16 0.4 -0.4 0.2 c-0.04 0.12 -0.16 0.32 0 0.32 c2.16 -1.12 4.24 -2.6 5.64 -4.4 c-1.56 1.32 -3 2.72 -4.8 3.76 z M48.56 35.16 c-0.16 0.24 0.28 0.08 0 0 l0 0 z M48.24 35.480000000000004 c0.04 0.08 0.32 -0.08 0.16 -0.16 c0 0.12 -0.2 0 -0.16 0.16 z M48.00000000000001 35.72 c-0.12 -0.04 -0.2 0.16 -0.12 0.16 c0 -0.08 0.12 -0.04 0.12 -0.16 c0.04 0 0.04 0.04 0.08 0.04 c0.04 -0.04 0.04 -0.08 0.04 -0.16 c-0.08 0 -0.12 0.04 -0.12 0.12 z M48.24 35.84 c0 0.04 -0.04 0 0 0 l0 0 z M47.080000000000005 36.48 c-0.12 0.16 0.16 -0.12 0 0 l0 0 z M46.92 36.6 c0.04 0.04 0 0 0 0 l0 0 z M48.56 36.6 c0.24 0.08 0.04 -0.12 0 0 l0 0 z M48.36000000000001 36.76 c0.2 0.04 0 -0.16 0 0 l0 0 z M52.64 38.2 c0.04 0.04 -0.04 0 0 0 l0 0 z M42.6 38.28 c0.2 0.08 0 -0.12 0 0 l0 0 z M42.56 38.52 c-0.08 0.12 -0.28 0.36 -0.2 0.44 c0.08 -0.12 0.2 -0.2 0.2 -0.44 c0.08 0 0 -0.04 0 0 z M52.080000000000005 39.16 c0.08 -0.04 0.24 -0.04 0.28 -0.16 c-0.16 0 -0.32 0 -0.28 0.16 z M42.32000000000001 39.12 c-0.12 0.16 0.16 -0.12 0 0 l0 0 z M52.160000000000004 39.32 c0.16 -0.08 0.36 -0.08 0.4 -0.24 c-0.16 0.04 -0.32 0.08 -0.4 0.24 z M42.32000000000001 39.32 c0.08 -0.16 -0.2 -0.16 -0.2 -0.08 c0.08 0 0.12 0.08 0.2 0.08 z M58.160000000000004 34.92 c0.12 0.08 -0.04 0.24 -0.16 0.2 c0.04 -0.08 0.16 -0.08 0.16 -0.2 z M58.080000000000005 35.28 c0.04 0.16 -0.28 0.24 -0.24 0.04 c0.08 0.04 0.08 -0.08 0.24 -0.04 z M57.60000000000001 35.36 c0.04 -0.16 0.04 0.2 0 0 l0 0 z M53.120000000000005 38.72 c0 0.12 -0.16 0.08 -0.16 0.16 c-0.12 -0.04 0.08 -0.16 0.16 -0.16 z M65.12 30.96 c0.04 0.08 0.12 0.12 0.12 0.24 c0.4 -0.04 0.6 0.12 0.84 0.24 c0 0.04 -0.08 0.04 -0.12 0.04 c0.36 0.36 0.84 0.88 0.6 1.44 c0.04 0.12 0.2 -0.16 0.32 0 c0 0.16 -0.12 0.2 -0.08 0.4 c-0.08 0.04 -0.12 -0.04 -0.28 0.04 c0.16 0.08 0.08 0.44 0.2 0.28 c0.16 0.16 -0.16 0.32 -0.2 0.44 c0.12 0 0.12 -0.08 0.24 -0.04 c-0.32 0.32 -0.2 0.8 -0.52 1.2 c0 0.04 0.12 0.04 0.2 0.04 c-0.44 1.08 -0.2 2.12 0.2 2.88 c-0.16 0.24 -0.36 0.04 -0.56 0.08 c-1.84 -1.4 -0.44 -3.96 -0.76 -6.2 c-0.64 0.4 -0.88 1.16 -1.48 1.56 c-0.44 0.88 -0.96 1.76 -1.6 2.48 c-0.76 1.24 -1.24 2.96 -2.92 3.12 c-1.2 -0.52 -0.88 -2.36 -0.36 -3.4 c0.24 -1.24 0.72 -2.28 1.12 -3.36 c0.52 0.04 1.24 0.04 1.6 0.56 c-0.2 0.6 -0.52 1.04 -0.68 1.64 c0.48 -0.32 0.64 -1 1.12 -1.32 c0.76 -1.04 1.32 -2.68 3 -2.36 z M64.24000000000001 31.4 l0.12 0 c0 -0.12 -0.04 -0.12 -0.12 -0.12 l0 0.12 z M64.80000000000001 31.4 c0.04 0 -0.04 -0.04 0 0 l0 0 z M64.52000000000001 31.560000000000002 c-0.28 0.2 -0.32 0.64 -0.68 0.72 c0 -0.04 -0.04 -0.04 -0.04 -0.08 c0 -0.12 0.16 -0.12 0.28 -0.16 c0 -0.12 0.16 -0.32 0.04 -0.4 c-0.04 0.12 -0.08 -0.08 -0.2 0 c-0.16 0.36 -0.52 0.44 -0.88 0.52 c-0.04 0.16 0.12 0.08 0.12 0.2 c-0.08 0 -0.16 0.08 -0.2 0.16 c-0.24 -0.04 -0.28 0.2 -0.36 0.32 c0.2 -0.08 0.48 -0.08 0.36 0.12 c-0.12 -0.12 -0.24 -0.04 -0.48 -0.04 c0 0.12 0.04 0.32 -0.12 0.24 c-0.04 0.24 0.2 0.16 0.24 0.32 c-0.12 0.04 -0.12 -0.08 -0.24 -0.04 c-0.04 0.12 -0.12 0.2 -0.16 0.28 c0.28 0.12 0.12 -0.2 0.36 -0.12 c-0.08 0.12 -0.08 0.28 -0.2 0.32 c0 -0.08 -0.16 -0.04 -0.2 -0.08 c-0.04 0.12 0.08 0.32 0 0.32 c-0.08 -0.04 -0.2 -0.16 -0.24 0 c0.28 0.08 0.12 0.2 0.04 0.4 c0.52 -0.04 0.28 -0.76 0.92 -0.68 c0.04 -0.12 0.12 -0.24 0.28 -0.24 c-0.08 -0.28 0.28 -0.4 0.48 -0.52 c0.12 -0.76 0.92 -1.08 1.08 -1.64 c-0.16 -0.04 -0.12 0.08 -0.2 0.08 l0 -0.12 c-0.16 0.08 -0.2 -0.08 -0.24 0.08 c0.04 0.04 0.12 0.08 0.24 0.04 z M64.16000000000001 31.52 c0.04 0.04 0 0 0 0 l0 0 z M64.04 32.480000000000004 c0.04 0.04 -0.04 0 0 0 l0 0 z M62.120000000000005 33.56 c0.2 0.04 0 -0.16 0 0 l0 0 z M61.88000000000001 34.76 c0.24 -0.04 0.04 -0.2 -0.04 -0.24 c-0.04 0.08 0.08 0.08 0.04 0.24 z M61.64000000000001 34.88 c0.08 0.16 0.12 -0.16 0 0 l0 0 z M65.68 35.24 c0.12 0.08 0.12 -0.24 0.04 -0.2 c0 0.08 -0.08 0.08 -0.04 0.2 z M65.68 35.519999999999996 l0 0.08 c0.12 0.08 0.12 -0.16 0.04 -0.12 c0 0 0 0.04 -0.04 0.04 z M65.52000000000001 35.96 c0.16 0 0.2 -0.12 0.24 -0.24 c-0.12 0 -0.28 0.04 -0.24 0.24 z M65.52000000000001 36.24 c0.12 0 0.2 -0.2 0.04 -0.2 c0 0.08 -0.04 0.12 -0.04 0.2 z M62.96000000000001 32.519999999999996 c-0.08 0.36 0.52 0.16 0.44 -0.16 c-0.12 0 -0.2 0.08 -0.2 0.24 c-0.12 0 -0.08 -0.12 -0.24 -0.08 z M63.84000000000001 32.36 c-0.16 0.08 -0.2 0.24 -0.32 0.32 c0.04 -0.16 0.12 -0.32 0.32 -0.32 z M63.440000000000005 32.76 c0.04 0.2 -0.2 0.32 -0.28 0.24 c0.12 -0.04 0.12 -0.24 0.28 -0.24 z M62.88000000000001 33.16 c-0.04 0.08 -0.08 0.16 -0.24 0.16 c0 -0.2 0.08 -0.24 0.24 -0.16 z M62.96000000000001 33.36 l0.12 0 l0 0.08 l-0.12 0 l0 -0.08 z M62.84000000000001 33.44 c0.2 0 0 0.36 -0.16 0.36 c-0.04 -0.2 0.2 -0.16 0.16 -0.36 z M66.72000000000001 33.480000000000004 c0.04 -0.16 0.04 0.2 0 0 l0 0 z M80.60000000000001 12.120000000000001 c-0.2 0.68 -0.16 1.56 -0.64 1.96 c-0.16 2.16 -1.2 4.24 -1.6 6.16 c0.92 0.12 2.16 0.08 3.16 0.04 c2.4 0.36 5.32 -0.16 7.68 1.16 c-0.2 0.08 -0.36 -0.04 -0.52 0.08 c-3 -1.08 -7.2 -0.56 -10.16 -1 c-0.2 0.04 -0.36 0.2 -0.4 0.44 c0 0.2 0.4 0.04 0.48 0.24 c0.04 -0.16 0.08 -0.36 0.16 -0.32 c0 0.2 0.48 0.36 0.64 0.08 c0.44 0.2 0.76 0.04 1.12 0.04 c0.12 0.04 0.08 0.2 0.16 0.28 c0.12 0 0.16 -0.04 0.16 -0.08 c0.08 0 0.04 0.08 0.08 0.08 c0.12 0 0.04 -0.16 -0.04 -0.16 c0 -0.12 0.16 0 0.16 0.08 c0.12 -0.04 -0.04 -0.16 0 -0.24 c0.48 0.6 1.32 0.12 1.88 0.4 c0.04 0 0.04 -0.04 0.04 -0.12 c0.24 0.16 0.28 -0.08 0.56 0.08 c0.12 -0.12 -0.24 -0.12 -0.24 -0.28 c0.16 0.08 0.4 0.04 0.44 0.04 c0.12 0.2 -0.08 0 -0.08 0.12 c0.52 0.36 1.24 0 1.8 0.24 c0.12 -0.04 0.2 -0.12 0.24 -0.24 c0.12 0.04 0 0.32 0.2 0.28 c0.12 -0.04 -0.08 -0.12 -0.04 -0.24 c0.12 0.16 0.36 0.28 0.28 0.48 c0.24 0 0.16 -0.08 0.16 -0.24 c0.16 0.16 0.36 -0.12 0.4 0.04 c0.12 0 0.04 -0.16 0.08 -0.24 c0.32 0.24 1 -0.08 1.6 0.24 c-0.4 0.12 -0.84 0.16 -1.32 0 c-0.16 0.08 -0.12 0.36 -0.36 0.32 c-0.16 0.04 -0.12 -0.16 -0.16 -0.24 c-0.12 0.28 -0.68 0.04 -0.64 0.36 c-0.2 0.04 -0.08 -0.24 -0.24 -0.24 c0 0.24 -0.12 0.12 -0.4 0.2 c0 -0.12 0.08 -0.12 0.16 -0.12 c0 -0.12 -0.28 -0.16 -0.2 0.04 c-0.12 -0.04 -0.08 -0.2 -0.28 -0.16 c-0.16 0 -0.16 0.12 -0.24 0.24 c-2.24 -0.28 -5.08 -0.2 -6.72 -0.12 c-0.2 0.08 -0.08 0.48 -0.32 0.48 c0 1.16 -0.72 2.2 -0.88 3.32 c-0.56 1.6 -1.36 3.68 -1.96 5.36 c-0.8 2.32 -2.4 3.84 -2.68 6.24 c0 0.56 0 1.04 -0.16 1.6 c0.04 0.68 0.08 1.44 -0.08 2.12 c0.04 1.92 0.2 4.12 1.52 5.24 c-1.96 -0.24 -2.4 -2.12 -2.72 -3.8 c-0.08 -0.88 -0.24 -2.16 -0.12 -3.16 c0.12 0 0.04 0.16 0.16 0.12 c0 -0.32 -0.08 -0.76 0.08 -0.96 c-0.24 0.12 -0.12 0.36 -0.2 0.52 c0 -0.72 -0.08 -1.4 0.24 -1.96 c-0.04 -0.56 0.04 -1.24 -0.32 -1.72 c0.2 -0.24 0.32 -0.56 0.56 -0.76 c0.6 -4.56 1.52 -7.92 2.64 -12.16 c-1.36 -0.24 -3.04 0.96 -4.24 0.16 c-0.2 -0.88 0 -1.88 1 -1.64 c1.08 -0.28 2.4 -0.28 3.8 -0.48 c0.64 -2 1.36 -4.64 2.08 -6.92 c0.76 -2.36 1.2 -5 2.96 -6.36 c1.56 0.12 1.8 1.88 1.36 3.4 c0.16 0.16 0.16 0.2 0.12 0.48 c0.08 0 0.04 -0.16 0.08 -0.2 c0.2 0.48 -0.36 0.88 -0.24 1.28 c-0.04 0 -0.04 -0.04 -0.12 -0.04 c-0.04 0.08 0 0.32 0.04 0.16 l0.04 0 z M78.60000000000001 11.120000000000001 c-0.08 -0.28 -0.2 0.16 0 0 c-0.04 0.08 -0.04 0.16 -0.12 0.16 c0 -0.12 -0.04 -0.08 -0.04 0 l-0.04 0 c-0.08 0.08 -0.08 0.2 -0.04 0.32 c-0.08 0 -0.04 0.04 -0.08 0.08 l-0.04 0 c0.04 0.24 -0.24 0.44 -0.08 0.64 c0.04 -0.24 0.16 -0.36 0.12 -0.64 c0.08 0 0.04 -0.04 0.08 -0.08 l0.04 0 c0 -0.08 0 -0.12 0.04 -0.12 c-0.76 2.72 -1.8 5.92 -2.6 8.8 c0.44 0.08 0.56 -0.04 0.96 0 c1.08 -4 2.6 -7.64 2.84 -11.56 c-0.44 0.68 -0.76 1.52 -1.04 2.4 z M80.32000000000001 9.120000000000001 c-0.16 0.16 0.16 0.16 0 0 l0 0 z M77.76 20.16 c-0.12 0.04 0.04 0.2 0 0 c0.2 -0.16 0 -0.24 -0.04 -0.4 c0.08 -0.24 0.28 -0.4 0.24 -0.72 c0.12 -0.08 0.16 0 0.28 -0.12 l0 -0.28 c-0.04 0 -0.12 0 -0.12 -0.04 c0.12 -0.24 0.08 -0.64 0.28 -0.76 c0 0.04 0 0.08 0.04 0.08 c0.04 -0.2 0.32 -0.4 0.16 -0.64 c-0.12 0.12 -0.04 0.36 -0.16 0.4 c-0.08 -0.24 0.12 -0.52 0.2 -0.72 c0.08 0 0 0.16 0.08 0.16 c0.2 -0.56 0.36 -0.92 0.48 -1.64 c-0.28 0.32 -0.28 1.2 -0.56 1.32 c0.56 -2.16 1.4 -4.4 1.68 -6.72 c0.04 0 0.04 -0.08 0 -0.08 c-0.08 -0.2 0.08 -0.24 0.12 -0.32 c-0.08 -0.04 -0.16 -0.12 -0.08 -0.2 c-0.28 0.68 -0.36 1.52 -0.44 2.2 c-0.08 0.04 -0.12 -0.04 -0.2 -0.04 c0 0.12 0.08 0.16 0.08 0.28 c-0.24 0.2 -0.56 1.04 -0.32 1.44 c-0.12 0.08 -0.16 -0.04 -0.28 0.04 c-0.44 2.32 -1.56 4.84 -1.96 6.92 c0.28 0.04 0.36 -0.16 0.48 -0.28 c0 0.08 0.04 0.08 0.04 0.12 z M78.76 10.399999999999999 c-0.04 0 0.04 0.04 0 0 c0.2 -0.08 -0.12 -0.16 0 0 z M77.88000000000001 10.719999999999999 c0.2 0.04 0 -0.16 0 0 l0 0 z M78.60000000000001 10.760000000000002 c0 0.04 -0.04 0 0 0 l0 0 z M77.80000000000001 10.8 c0.04 0.04 0 0 0 0 l0 0 z M79.88000000000001 10.920000000000002 c0.2 0.04 0 -0.16 0 0 l0 0 z M79.84 11.239999999999998 c0.04 0.2 0.04 -0.2 0 0 l0 0 z M80.56 11.36 c0.04 0 -0.04 -0.04 0 0 l0 0 z M80.52000000000001 11.399999999999999 c-0.08 0.28 0.2 0 0 0 l0 0 z M77.56 11.52 c0.04 0.04 0 0 0 0 l0 0 z M80.44000000000001 11.96 c0.08 -0.04 0.12 -0.28 0 -0.32 c0 0.16 -0.16 0.24 0 0.32 z M77.96000000000001 12.64 c0.16 0.08 0.12 -0.24 0.04 -0.24 c0.04 0.12 -0.04 0.12 -0.04 0.24 z M77.24000000000001 12.68 c-0.04 0 -0.04 0.08 -0.04 0.12 c-0.16 0.04 0.04 0.24 0 0 c0.04 0 0.04 -0.08 0.04 -0.12 c0.16 0 -0.04 -0.2 0 0 z M79.88000000000001 12.719999999999999 l0.08 0 l0 -0.08 l-0.08 0 l0 0.08 z M77.92 13.04 c0 -0.08 0.2 -0.32 0 -0.32 c0.04 0.16 -0.16 0.24 0 0.32 z M76.76 12.96 l0 0.12 c0.12 0.08 0.16 -0.16 0.04 -0.16 c0 0.04 0 0.08 -0.04 0.04 z M77.08000000000001 13.079999999999998 c0.08 0.2 0.08 -0.2 0 0 l0 0 z M80.28 13.280000000000001 c0 -0.04 0.08 -0.24 0 -0.24 c-0.04 0 -0.12 0.2 0 0.24 z M76.68 13.440000000000001 c-0.08 0.04 0 0.08 0 0 c0.08 -0.04 0.08 -0.2 0.12 -0.28 c-0.12 0 -0.12 0.16 -0.12 0.28 z M77.76 13.52 c0.04 -0.08 0.16 -0.32 0.04 -0.36 c0 0.08 -0.12 0.32 -0.04 0.36 z M79.80000000000001 13.2 c0.04 0.2 0.04 -0.16 0 0 l0 0 z M77 13.399999999999999 c0 0 0 -0.04 0.04 -0.04 c0 -0.04 0 -0.12 -0.08 -0.08 c0 0.04 0 0.12 0.04 0.12 z M76.92 13.84 c-0.08 -0.16 0.16 -0.32 -0.08 -0.32 c0.04 0.08 -0.04 0.32 0.08 0.32 z M79.64 13.559999999999999 l0 0.08 c0.12 0.08 0.16 -0.16 0.04 -0.12 c0 0 0 0.04 -0.04 0.04 z M76.56 13.8 c-0.04 0.04 0 0.04 0 0 l0.04 0 c-0.04 -0.16 0.08 -0.12 0.08 -0.24 c-0.16 -0.04 -0.08 0.16 -0.12 0.24 z M77.68 13.84 c0 -0.04 0.12 -0.2 0 -0.2 c0 0.04 -0.12 0.2 0 0.2 z M79.64 13.920000000000002 c0 0 0.12 -0.16 0 -0.16 c0 0 -0.12 0.16 0 0.16 z M76.52000000000001 14.079999999999998 c-0.04 -0.08 0.16 -0.16 0 -0.2 c0 0.04 -0.12 0.2 0 0.2 z M77.52000000000001 14.04 c0.2 0.04 0 -0.16 0 0 l0 0 z M79.4 14.48 c0.2 0.04 0.04 -0.24 0.24 -0.2 c-0.12 -0.12 0.12 -0.28 -0.08 -0.28 c-0.04 0.16 -0.12 0.28 -0.16 0.48 z M76.72000000000001 14.36 c0 -0.08 0.16 -0.36 0 -0.32 c0.04 0.12 -0.16 0.24 0 0.32 z M79.84 14.239999999999998 c0 -0.04 0 -0.08 0.04 -0.08 c0 -0.04 0 -0.08 -0.08 -0.08 c0 0.04 -0.04 0.12 0.04 0.16 z M76.28 14.719999999999999 c-0.16 0.08 0.16 0.12 0 0 l0.04 0 c0.04 -0.16 0.2 -0.4 0.12 -0.56 c-0.08 0.2 -0.12 0.36 -0.16 0.56 z M77.44000000000001 14.280000000000001 c0.16 0.16 0.08 -0.16 0 0 l0 0 z M77.44000000000001 14.600000000000001 c-0.04 -0.08 0.12 -0.16 0 -0.2 c0 0.04 -0.12 0.2 0 0.2 z M76.56 14.719999999999999 c-0.16 0.08 0.16 0.12 0 0 c0.16 -0.08 -0.04 -0.28 0 0 z M79.4 14.600000000000001 c0.04 0.2 0.04 -0.2 0 0 l0 0 z M76.44000000000001 15.079999999999998 c0.12 0.04 0.12 -0.08 0.12 -0.2 c-0.16 -0.04 -0.04 0.16 -0.12 0.2 z M77.28 15 c0.04 0.04 0 -0.04 0 0 l0 0 z M76.04 15.440000000000001 c0.16 -0.12 0.24 -0.28 0.16 -0.44 c-0.04 0.16 -0.12 0.24 -0.16 0.44 z M79.64 15.120000000000001 l0.08 0 l0 -0.08 l-0.08 0 l0 0.08 z M77.24000000000001 15.2 c-0.08 0 0 0.04 0 0 c0.08 -0.04 0 -0.08 0 0 z M76.36000000000001 15.32 c0.08 0.2 0.08 -0.2 0 0 l0 0 z M79.16000000000001 15.440000000000001 c0.04 0 0 -0.04 0 0 l0 0 z M76.28 15.48 l0 0.08 c0.12 0.08 0.16 -0.16 0.04 -0.12 c0 0 0 0.04 -0.04 0.04 z M75.96000000000001 16 c-0.04 -0.16 0.32 -0.44 0.04 -0.52 c0.08 0.24 -0.2 0.4 -0.04 0.52 z M77.04 15.68 c0.04 0 0 -0.04 0 0 l0 0 z M79.44000000000001 15.719999999999999 c-0.04 0.28 0.04 -0.2 0 0 l0 0 z M76.24000000000001 15.760000000000002 l0 0 c0.08 -0.24 -0.12 0.24 0 0 z M76.2 16.08 c0 0 0 -0.04 0.04 -0.04 c0 -0.04 -0.04 -0.12 -0.12 -0.08 c0.04 0.04 0 0.12 0.08 0.12 z M75.76 16.4 c0.12 0 0.2 -0.24 0.08 -0.32 c-0.04 0.08 0 0.24 -0.08 0.32 z M76.92 16.16 c-0.04 0.28 0 -0.2 0 0 l0 0 z M76 16.8 c0.04 -0.12 0.16 -0.36 0.04 -0.48 c0.04 0.2 -0.16 0.4 -0.04 0.48 z M75.4 17.52 c-0.24 0.8 -0.64 2.04 -0.76 2.8 c0.28 -0.76 0.76 -2.12 0.76 -2.8 c0.16 -0.28 0.4 -0.72 0.36 -1.08 c-0.2 0.2 -0.28 0.76 -0.36 1.08 z M76.80000000000001 16.56 c-0.12 0.16 0.16 -0.08 0 0 l0 0 z M75.88000000000001 16.96 l-0.04 0 c-0.08 0.48 -0.24 0.68 -0.28 1.16 c0.16 -0.2 0.32 -0.76 0.32 -1.16 c0.08 -0.04 0 -0.04 0 0 z M76.08000000000001 16.96 c-0.04 0.28 0.04 -0.2 0 0 l0 0 z M76.68 16.96 c0 0.04 -0.04 0 0 0 l0 0 z M76.68 17.28 c-0.04 -0.04 0 -0.16 -0.08 -0.16 c-0.04 0.04 -0.04 0.16 0.08 0.16 z M76.48 17.68 c0.04 0.04 -0.04 0 0 0 l0 0 z M76.44000000000001 17.88 c0 0.04 -0.04 -0.04 0 0 l0 0 z M78.4 18.08 c0.04 0.04 0.04 0 0 0 c-0.04 -0.08 -0.08 0 0 0 z M74.92 20.32 c0.32 -0.68 0.44 -1.36 0.68 -2.12 l-0.12 0 c-0.16 0.84 -0.48 1.44 -0.56 2.12 z M76.24000000000001 18.44 c0.16 0.04 0.08 -0.16 0.12 -0.2 c-0.12 -0.04 -0.04 0.16 -0.12 0.2 z M78.24000000000001 18.56 c0.04 0 0 -0.04 0 0 l0 0 z M76.08000000000001 19.08 c-0.04 0.04 0 0.04 0 0 c0.08 -0.04 0.08 -0.12 0.12 -0.2 c-0.16 -0.04 -0.08 0.12 -0.12 0.2 z M75.96000000000001 19.64 c0 0 0.08 -0.2 0 -0.24 c0.04 0.12 -0.16 0.2 0 0.24 z M78 19.44 c0.04 0.04 0 0 0 0 l0 0 z M77.92 19.76 c-0.12 0.16 0.16 -0.12 0 0 l0 0 z M75.84 19.84 c-0.04 0.28 0.04 -0.2 0 0 l0 0 z M77.4 20.88 c0 0.08 0.04 0 0 0 c0 -0.08 0.16 -0.08 0.12 -0.24 c-0.12 0 -0.36 -0.08 -0.48 0.08 c0.24 0.08 -0.2 0 -0.04 0.36 c0.12 0 0.12 -0.16 0.32 -0.08 c0 -0.08 0.04 -0.08 0.08 -0.12 z M76.28 20.88 c0 -0.08 -0.08 -0.12 -0.16 -0.16 c-0.2 0.08 -0.32 0 -0.4 0.12 c0.2 -0.04 0.12 0.24 0.4 0.2 c0.08 -0.12 -0.12 -0.2 0 -0.24 c0.04 0.08 0.08 0.08 0.08 0.2 c0.16 0.08 0.52 -0.08 0.36 -0.28 c0 0.24 -0.12 0.04 -0.28 -0.08 c-0.08 0.12 0.16 0.2 0 0.24 z M77.56 20.72 c0.04 0 0 -0.04 0 0 l0 0 z M80.32000000000001 21.24 c0.16 0.16 0.08 -0.16 0 0 l0 0 z M77.16000000000001 21.32 c0.04 0 0.04 0.04 0.08 0.04 c0 -0.04 0 -0.16 -0.08 -0.12 l0 0.08 z M85.64000000000001 21.6 c0 -0.08 -0.04 -0.12 -0.08 -0.12 c0 0.08 -0.04 0.16 0.08 0.12 z M85.36000000000001 21.6 l0.08 0 l0 -0.08 l-0.08 0 l0 0.08 z M82.60000000000001 21.72 c0.04 -0.12 -0.08 -0.08 -0.12 -0.16 c0 0.12 0.04 0.16 0.12 0.16 z M82.96000000000001 21.68 c0.04 0.16 0.04 -0.2 0 0 l0 0 z M76.2 25.2 c0.12 -0.04 0 -0.12 0.12 -0.24 c-0.04 0.04 -0.12 0.04 -0.12 -0.04 c0.16 -0.28 0.44 -0.52 0.28 -0.96 c0.12 -0.04 0.12 0 0.24 -0.08 c0.04 -0.36 0.12 -0.8 0.28 -1 c-0.12 -0.04 -0.16 -0.44 0.04 -0.48 l0 0.08 c-0.12 0 0.04 0.2 0 0 c0.12 -0.12 0.12 -0.48 0 -0.56 c-0.08 0.04 -0.2 0 -0.36 0.04 c-0.2 1.12 -0.76 1.92 -0.88 2.84 c-0.28 0.52 -0.56 1.2 -0.68 1.92 l-0.12 -0.12 c-0.08 0.2 0.08 0.48 0 0.52 c-0.12 0.04 0 -0.2 -0.16 -0.12 c-0.16 0.96 -0.6 1.6 -0.88 2.52 c0.2 -0.12 0.12 -0.12 0.32 0 c0.32 -1 0.88 -1.96 1.2 -2.88 c0.12 0 -0.04 0.24 0.08 0.2 c0 -0.08 0.04 -0.12 0.08 -0.12 c0.04 -0.2 -0.16 -0.12 -0.12 -0.32 c0.12 0.04 0.16 0.12 0.24 0 c-0.12 -0.16 -0.12 -0.52 0.12 -0.32 c0.16 -0.24 -0.16 -0.16 -0.12 -0.44 c0.12 0 0.08 0.12 0.12 0.12 c0.16 -0.16 -0.12 -0.2 0 -0.32 c0.08 0.04 0.12 0.08 0.2 0.12 c0 -0.16 0.08 -0.2 0.12 -0.36 z M75.32000000000001 22.04 c-0.68 2.24 -0.96 4.4 -1.72 6.52 c0.16 0.36 -0.28 0.72 -0.04 0.92 c0.96 -2.48 1.96 -5.08 2.68 -7.48 c-0.44 -0.08 -0.64 0.08 -0.92 0.04 z M73.4 24.8 c-0.28 0.44 -0.52 1.08 -0.32 1.48 c0.4 -1.28 0.68 -2.92 1.04 -4.08 l-0.16 0 c-0.2 1.08 -0.52 1.56 -0.56 2.6 z M74.16000000000001 22.76 c0.16 -0.04 0.32 -0.48 0.16 -0.52 c-0.08 0.2 -0.12 0.4 -0.16 0.52 z M73.96000000000001 23.88 c0.04 -0.4 0.4 -0.88 0.16 -1.08 c0.04 0.4 -0.36 0.76 -0.16 1.08 z M73.80000000000001 24.08 c0.2 0.04 0 -0.16 0 0 l0 0 z M73.80000000000001 24.32 c0.12 0.04 0.12 -0.24 0 -0.16 l0 0.16 z M73.80000000000001 24.48 c0.04 0.2 0.04 -0.16 0 0 l0 0 z M73.56 25.52 c-0.08 0 0 0.04 0 0 l0.04 0 c0.08 -0.2 0.08 -0.48 0.12 -0.68 c-0.16 0.08 -0.2 0.48 -0.16 0.68 z M73.4 26.28 c-0.04 -0.24 0.2 -0.44 0.04 -0.64 c-0.04 0.16 -0.2 0.56 -0.04 0.64 z M73.56 26 c0 0 -0.04 -0.04 0 0 l0 0 z M73.24000000000001 26.72 c0 -0.16 0.2 -0.36 0 -0.4 c0 0.12 -0.08 0.24 0 0.4 z M72.24000000000001 29.6 c-0.04 0.04 0 0.12 -0.08 0.12 c-0.08 -0.24 -0.16 0.16 0 0 c0.08 0.32 -0.16 0.12 -0.2 0.2 c0.04 0.04 0.12 0.04 0.16 0.08 c-0.24 0.64 -0.48 1.2 -0.4 1.8 c-0.16 0.08 -0.12 0.24 -0.16 0.56 c-0.08 0.08 -0.16 0.4 -0.04 0.6 c-0.08 -0.08 -0.16 -0.04 -0.12 0.08 c0.04 0 0.12 0 0.12 0.04 c0 0.16 -0.2 0.2 -0.24 0.36 c0.04 0.04 0.16 0 0.16 0.08 c-0.16 0 -0.24 0.2 -0.04 0.24 c-0.12 0.08 -0.32 0.32 -0.12 0.44 c-0.08 -0.24 0.28 -0.28 0.12 -0.44 c0 -0.12 0.04 -0.04 0.08 -0.04 c0.28 -1.8 0.56 -2.8 0.76 -4.12 c0.24 -1.2 0.72 -2.08 0.68 -3.24 c-0.16 0.28 -0.16 0.88 -0.32 1.16 c0.2 0.2 -0.28 0.4 -0.08 0.68 c-0.08 0.04 -0.12 -0.16 -0.12 0.04 c0.2 0.28 -0.36 1.04 -0.28 1.36 l0.12 0 z M73.12 26.880000000000003 c0.04 0.04 -0.04 0 0 0 l0 0 z M73 27.52 c0.08 -0.24 0.2 -0.32 0.08 -0.52 c0.04 0.2 -0.2 0.36 -0.08 0.52 z M75.4 27.119999999999997 c0.04 -0.04 0.12 -0.08 0 -0.12 c0 0.04 -0.08 0.12 0 0.12 z M75.28 27.48 c-0.12 0.16 0.16 -0.12 0 0 l0 0 z M72.88000000000001 27.96 c0.12 0 0.08 -0.16 0.12 -0.24 c-0.12 -0.04 -0.12 0.08 -0.12 0.24 z M72.84 28.08 c0.2 0.08 0 -0.12 0 0 l0 0 z M72.64 29 l-0.04 0 c0 0.28 -0.2 0.36 -0.08 0.6 c-0.2 0.16 -0.12 0.6 -0.24 0.84 c0.28 -0.2 0.12 -0.56 0.24 -0.84 c0.16 -0.08 0.08 -0.32 0.12 -0.6 c0.16 -0.08 0.16 -0.52 0.12 -0.72 c-0.04 0.24 -0.12 0.6 -0.12 0.72 z M73.88000000000001 29.759999999999998 c0 -0.04 0.08 -0.08 0 -0.12 c0 0.04 -0.08 0.12 0 0.12 z M74.12 29.68 c0.04 0.04 0 0 0 0 l0 0 z M73.84 30.119999999999997 c0.04 0.2 0.04 -0.2 0 0 l0 0 z M72.28 30.6 c0.04 0.04 0 -0.04 0 0 l0 0 z M72.24000000000001 30.8 c0.08 0.16 0.08 -0.2 0 0 l0 0 z M72.04 31.92 c0 -0.2 0.28 -0.56 0.16 -0.84 c-0.04 0.24 -0.24 0.6 -0.16 0.84 z M71.88000000000001 32.88 c0.04 -0.28 0.28 -0.56 0.08 -0.8 c-0.04 0.32 -0.16 0.52 -0.08 0.8 z M70.76 37.04 l0 0 c0.2 0 -0.04 0.28 0 0 z M70.80000000000001 37.6 c0.04 -0.12 0.12 -0.2 -0.04 -0.24 c0.04 0.08 -0.04 0.24 0.04 0.24 z M71.16000000000001 37.6 c0.2 0.04 0 -0.16 0 0 l0 0 z M70.76 37.8 c0 -0.08 0.08 -0.12 0 -0.16 c0 0.08 -0.08 0.12 0 0.16 z M71.16000000000001 37.8 c0.12 0.2 0.04 -0.16 0 0 l0 0 z M71.08000000000001 38.12 c0.16 0.08 0.16 -0.2 0.08 -0.2 c0 0.12 -0.08 0.12 -0.08 0.2 z M70.72000000000001 38.28 c0.12 0 0.2 -0.08 0.2 -0.2 c-0.12 0 -0.2 0.08 -0.2 0.2 z M71.08000000000001 39.04 c-0.04 0.28 0.04 -0.2 0 0 l0 0 z M71.04 39.24 c0.08 0.16 0.12 -0.2 0 0 l0 0 z M70.72000000000001 39.6 c-0.04 -0.04 0.04 -0.24 -0.04 -0.24 c-0.04 0.12 -0.12 0.24 0.04 0.24 z M71.08000000000001 39.84 c0 -0.08 0.08 -0.32 -0.08 -0.28 c0.04 0.08 0 0.24 0.08 0.28 z M70.80000000000001 39.92 c-0.04 -0.2 0.12 -0.28 -0.04 -0.32 c0.04 0.16 -0.12 0.28 0.04 0.32 z M71.04 40.4 c0.04 -0.12 0.08 -0.32 0 -0.44 c-0.04 0.04 -0.08 0.36 0 0.44 z M70.76 40.04 c0.04 0.2 0.04 -0.2 0 0 l0 0 z M70.76 40.4 c-0.04 0.2 0.16 0 0 0 c-0.04 -0.12 0.16 -0.16 0 -0.2 c0 0.04 -0.08 0.04 -0.08 0.08 c0.04 0.04 0 0.12 0.08 0.12 z M71.04 41.2 c-0.04 -0.24 0.08 -0.56 -0.04 -0.72 c0.04 0.32 -0.12 0.52 0.04 0.72 z M70.80000000000001 40.8 c0 -0.04 0.08 -0.24 -0.04 -0.24 c-0.08 0.08 -0.08 0.24 0.04 0.24 z M70.72000000000001 41.04 c-0.04 0.32 0.04 -0.16 0 0 l0 0 z M71 41.28 c-0.08 0.48 0.16 0.52 0 0 l0 0 z M81 8.879999999999999 l0 0 c-0.04 0.32 0 -0.16 0 0 z M80.92 9.239999999999998 c0.08 -0.16 0.16 0.16 0 0 l0 0 z M80.32000000000001 10 c-0.08 0 -0.04 0.08 0 0.08 l0 -0.08 z M80.84 10.280000000000001 c-0.04 -0.36 0.16 -0.16 0 0 l0 0 z M80.84 10.280000000000001 c0 0.08 -0.08 0.04 0 0 l0 0 z M78.44000000000001 11.280000000000001 l0.04 0 c0 0.08 0.04 0.2 -0.04 0.2 l0 -0.2 z M80.60000000000001 12.120000000000001 c0 -0.08 0.08 -0.04 0 0 l0 0 z M79.64 12.36 c0.08 -0.16 0.16 0.16 0 0 l0 0 z M79.60000000000001 12.48 c0.16 0.2 -0.12 0.28 0 0 l0 0 z M79.48 12.8 c0.08 0 0.12 0.04 0.12 0.12 c-0.12 0.04 -0.08 -0.04 -0.12 -0.12 z M79.32000000000001 13.64 c0 -0.12 0.2 0.04 0 0 l0 0 z M79.2 14.079999999999998 c-0.04 -0.2 0.16 0 0 0 l0 0 z M79.2 14.079999999999998 c0.04 0.2 -0.12 0 0 0 l0 0 z M78.76 15.559999999999999 c0.08 -0.2 0.08 0.2 0 0 l0 0 z M78.52000000000001 16.08 l0.12 0 l0 0.2 l-0.12 0 l0 -0.2 z M78.4 16.68 l0 0 c0.04 0.04 -0.04 -0.04 0 0 z M78.16000000000001 17.64 l0 0 c0.04 0.04 -0.04 -0.04 0 0 z M78 18.8 l0.12 0 l0 0.08 c-0.04 0 -0.04 0.04 -0.08 0.04 l-0.08 0 l0 -0.08 c0.04 0 0.04 -0.04 0.04 -0.04 z M79.92 20.8 c-0.32 0.16 -0.24 -0.12 0 0 l0 0 z M80.84 21.2 c-0.12 -0.08 -0.16 -0.2 -0.2 -0.36 c0.12 0.08 0.16 0.2 0.2 0.36 z M82.12 20.88 c0.08 -0.16 0.16 0.16 0 0 l0 0 z M82.44000000000001 20.88 c0.2 0.04 0.32 0.08 0.36 0.24 c-0.2 0 -0.24 -0.24 -0.32 0 c-0.16 0.08 -0.08 -0.2 -0.04 -0.24 z M84 20.96 c0.16 -0.04 0.04 0.16 0.16 0.16 c-0.08 0.16 -0.12 -0.12 -0.16 -0.16 z M81.4 21.04 l0 0 c0.04 0.04 0 0 0 0 z M81.56 21 c0.08 0 0.12 0.04 0.2 0.04 c0 0.08 -0.28 0.08 -0.2 -0.04 z M84.60000000000001 21.04 c0 -0.04 0.08 -0.04 0.12 -0.04 l0 0.12 c-0.04 0 -0.08 -0.08 -0.12 -0.08 z M84.88000000000001 21 c0.12 0 0.12 0.16 0.04 0.24 c-0.12 0 0 -0.16 -0.04 -0.24 z M82 21.08 c0.08 -0.16 0.16 0.16 0 0 l0 0 z M82.2 21.08 c0.04 -0.2 0.04 0.2 0 0 l0 0 z M82.96000000000001 21.08 c0.04 -0.2 0.04 0.2 0 0 l0 0 z M84.28 21.04 c0.04 0.04 0.08 0.04 0.16 0.04 c0 0.08 -0.16 0.04 -0.16 0.16 c-0.12 -0.04 0.08 -0.12 0 -0.2 z M83.92 21.12 l0 0 c-0.04 -0.04 -0.08 0.04 0 0 z M83.92 21.12 l0 0 c0.04 0.08 0.04 0 0 0 z M85.4 21.2 c0.08 -0.16 0.12 0.16 0 0 l0 0 z M86.12 21.2 c0.08 0 0.12 0.08 0.08 0.16 c-0.08 0 -0.08 -0.08 -0.08 -0.16 z M86.32000000000001 21.2 c0.04 0 0.08 0.08 0.08 0.16 c-0.08 0 -0.08 -0.08 -0.08 -0.16 z M88.44000000000001 21.52 c0.04 -0.2 0.04 0.2 0 0 l0 0 z M87.28 21.72 c0.04 -0.2 0.04 0.2 0 0 l0 0 z M87.04 21.8 c0 -0.12 0.2 0.04 0 0 l0 0 z M76.52000000000001 23.68 c0.12 -0.12 0 0.44 0 0 l0 0 z M76.04 24.32 c0 -0.16 0.2 0.04 0 0 l0 0 z M76.2 25.2 c-0.08 0 -0.12 -0.08 -0.08 -0.08 s0.08 0.04 0.08 0.08 z M75.12 26.8 l0 0 c0.04 0.04 0 0 0 0 z M74.2 29.240000000000002 l0 0 c0.04 0.04 0 0 0 0 z M71.72000000000001 31.560000000000002 c0.04 -0.2 0.04 0.2 0 0 l0 0 z M71.68 32.04 l0 0 c0.04 0.04 -0.04 -0.04 0 0 z M71.56 32.36 c0.08 0 0.04 0.08 0 0 l0 0 z M70.72000000000001 36.84 l0 0 c0.04 0.04 -0.04 -0.04 0 0 z M70.68 42.36 l0 0.12 c-0.08 0 -0.12 -0.04 -0.12 -0.12 l0.12 0 z"/></g>
			</g>
		</svg>
	