<?xml version="1.0" encoding="UTF-8"?>
<svg id="_Слой_1" data-name="Слой 1" xmlns="http://www.w3.org/2000/svg" viewBox="0 0 64 64">
  <defs>
    <style>
      .cls-1 {
        fill: #f7f4e2;
      }

      .cls-2 {
        fill: #5c4b51;
      }
    </style>
  </defs>
  <circle class="cls-2" cx="32" cy="32" r="32"/>
  <g>
    <path class="cls-1" d="m32.14,45.75h-6.83l-5.9-11.21h-4.24v11.21h-5.9v-23.73c0-2.26.52-3.91,1.57-4.94,1.05-1.03,2.8-1.55,5.26-1.55h5.01c3,0,5.38.91,7.15,2.74,1.77,1.82,2.65,4.14,2.65,6.94,0,2.04-.53,3.8-1.59,5.28-1.06,1.49-2.37,2.51-3.93,3.08l6.75,12.18Zm-8.34-17.42c.81-.86,1.21-1.94,1.21-3.23s-.39-2.33-1.17-3.12c-.78-.79-1.82-1.19-3.12-1.19h-2.93c-1.76,0-2.63.89-2.63,2.67v6.15h5.56c1.25,0,2.27-.43,3.08-1.29Z"/>
    <path class="cls-1" d="m58.22,36.83c0,2.86-1.05,5.1-3.14,6.73-2.09,1.63-4.77,2.44-8.02,2.44-2.58,0-5.07-.71-7.47-2.12-1.19-.74-2.16-1.78-2.93-3.12s-1.15-2.88-1.15-4.61l5.35-.25c0,1.53.65,2.72,1.95,3.57,1.3.85,2.74,1.27,4.33,1.27,3.54,0,5.3-1.24,5.3-3.73,0-2.04-1.2-3.24-3.61-3.61l-4.92-.51c-2.46-.37-4.41-1.25-5.86-2.63-1.44-1.39-2.16-3.38-2.16-5.98s1.03-4.75,3.1-6.45,4.68-2.55,7.83-2.55,5.69.8,7.62,2.4c1.92,1.6,2.89,3.66,2.89,6.18l-5.26.25c-.48-2.46-2.14-3.69-4.97-3.69-1.73,0-3.08.37-4.05,1.1-.98.74-1.46,1.61-1.46,2.61s.35,1.8,1.06,2.38c.71.58,1.58.94,2.63,1.08l4.84.51c5.4.74,8.11,3.65,8.11,8.74Z"/>
  </g>
</svg>