<?xml version="1.0" encoding="UTF-8"?>
<!DOCTYPE svg PUBLIC "-//W3C//DTD SVG 1.1//EN" "http://www.w3.org/Graphics/SVG/1.1/DTD/svg11.dtd">
<!-- Creator: CorelDRAW -->
<svg xmlns="http://www.w3.org/2000/svg" xml:space="preserve" width="38.822mm" height="68.4624mm" version="1.1" style="shape-rendering:geometricPrecision; text-rendering:geometricPrecision; image-rendering:optimizeQuality; fill-rule:evenodd; clip-rule:evenodd"
viewBox="0 0 3882.2 6846.24"
 xmlns:xlink="http://www.w3.org/1999/xlink"
 xmlns:xodm="http://www.corel.com/coreldraw/odm/2003">
 <defs>
  <style type="text/css">
   <![CDATA[
    .fil2 {fill:#164746}
    .fil0 {fill:#192326}
    .fil3 {fill:#212A2E}
    .fil1 {fill:#394246}
    .fil5 {fill:#4A877B}
    .fil4 {fill:#5B9586}
   ]]>
  </style>
 </defs>
 <g id="Слой_x0020_1">
  <metadata id="CorelCorpID_0Corel-Layer"/>
  <g id="_2324364529472">
   <path class="fil0" d="M3.92 1514.99c20.36,12.47 41.65,25.34 64.16,38.69 605.45,359.09 1254.57,723.6 1862.18,1093.13 128.31,97.78 49.17,172.3 50.36,384.8l-3.38 1380.86c-211.65,54.94 -748.81,415.29 -934.08,538.11 -444.47,294.62 -433.45,319.18 -937.39,-18.22 -33.88,-22.68 -67.82,-44.76 -101.85,-66.34l0 1367.38c284.49,27.7 586.49,-296.02 1609.81,-1087.45l436.45 -380.48c275.24,-235.02 618.37,-485.08 908.96,-712.66 333.17,-260.91 698.99,-351.52 572.2,-1018.1 -44.02,-231.43 -635.53,-620.22 -841.21,-787.09l-1809.56 -1435.78c-286.49,-241.06 -565.63,-510.6 -876.65,-504.61l0 1207.76z"/>
   <path class="fil1" d="M3.92 307.23c311.02,-5.99 590.16,263.55 876.65,504.61l1809.56 1435.78c205.68,166.87 797.19,555.66 841.21,787.09 126.79,666.58 -239.03,757.19 -572.2,1018.1 -290.59,227.58 -633.72,477.64 -908.96,712.66l-436.45 380.48c-1023.32,791.43 -1325.32,1115.15 -1609.81,1087.45l0 308.31c246.68,13.98 491.89,-185.84 1020.88,-615.45l2323.23 -1839.06c192.76,-140.56 324.46,-282 463.86,-384.51l-130.88 415.05c249.52,-110.68 178.82,-551.36 179.24,-837.94 0.61,-418.37 -76.43,-513.28 -299,-703.31 -348.04,-297.15 -742.26,-587.66 -1105.71,-870.14 -381.09,-296.19 -717.94,-583.38 -1101.45,-873.66 -250.67,-189.73 -853.27,-747.88 -1162.19,-810.24 -63.02,-12.72 -125.81,-15.65 -187.98,-10.63l0 295.41z"/>
   <path class="fil2" d="M1767.35 2733.45l-719.07 467.62c-64.24,39.43 -326.12,209.31 -370.32,221.82 -86.04,24.36 -284.43,-78.07 -344.45,-161.74l-194.15 -86.44 -135.44 -69.87 0 1761.18c34.03,21.58 67.97,43.66 101.85,66.34 503.94,337.4 492.92,312.84 937.39,18.22 185.27,-122.82 722.43,-483.17 934.08,-538.11l3.38 -1380.86c-1.19,-212.5 77.95,-287.02 -50.36,-384.8l-162.91 86.64z"/>
   <path class="fil3" d="M3.92 6837.76c389.49,24.43 746.94,-382.21 1752.86,-1165.16 271.09,-211 518.41,-408.58 769.6,-607.34 181.58,-143.68 658.4,-557.38 825.11,-625.62l270.37 -204.74 59.15 -117.16 130.88 -415.05c-139.4,102.51 -271.1,243.95 -463.86,384.51l-2323.23 1839.06c-528.99,429.61 -774.2,629.43 -1020.88,615.45l0 296.05z"/>
   <path class="fil4" d="M3.92 2729.75c60.6,17.73 119.92,18.45 174.14,-14.1 -15.18,-27.53 -80.51,-81.45 -174.14,-149.08l0 163.18zm0 -365.57c235.97,132.3 421,228.06 529.76,136.44 -20.58,-54.16 -260.67,-222.18 -529.76,-396.99l0 260.55zm0 -364.02c179.21,102.13 624.43,379.12 792.17,326.33 14.37,-45.16 24.73,-7.24 0.68,-91.1 -0.97,-3.38 -30.12,-63.08 -36.35,-70.28 -39.45,-45.54 -106.18,-64.29 -152.54,-78.73l619.27 282.98c-240.57,130.28 -605.23,421.15 -858.48,574.81 -130.04,78.9 -260.98,82.8 -229.31,230.54l194.15 86.44c127.43,-39.27 54.61,1.24 178.56,-67.51 57.43,-31.85 110.58,-70.58 173.9,-113.09 6.6,-4.43 15.05,-10.35 21.69,-14.71 6.59,-4.34 15.06,-10.18 21.69,-14.4l134.36 -74.91c337.32,-177.25 670.03,-488.47 903.64,-243.08l162.91 -86.64c-607.61,-369.53 -1256.73,-734.04 -1862.18,-1093.13 -22.51,-13.35 -43.8,-26.22 -64.16,-38.69l0 485.17z"/>
   <path class="fil5" d="M3.92 3104.84l135.44 69.87c-31.67,-147.74 99.27,-151.64 229.31,-230.54 253.25,-153.66 617.91,-444.53 858.48,-574.81l-619.27 -282.98c46.36,14.44 113.09,33.19 152.54,78.73 6.23,7.2 35.38,66.9 36.35,70.28 24.05,83.86 13.69,45.94 -0.68,91.1 -167.74,52.79 -612.96,-224.2 -792.17,-326.33l0 103.47c269.09,174.81 509.18,342.83 529.76,396.99 -108.76,91.62 -293.79,-4.14 -529.76,-136.44l0 202.39c93.63,67.63 158.96,121.55 174.14,149.08 -54.22,32.55 -113.54,31.83 -174.14,14.1l0 375.09z"/>
   <path class="fil5" d="M333.51 3261.15c60.02,83.67 258.41,186.1 344.45,161.74 44.2,-12.51 306.08,-182.39 370.32,-221.82l719.07 -467.62c-233.61,-245.39 -566.32,65.83 -903.64,243.08l-134.36 74.91c-6.63,4.22 -15.1,10.06 -21.69,14.4 -6.64,4.36 -15.09,10.28 -21.69,14.71 -63.32,42.51 -116.47,81.24 -173.9,113.09 -123.95,68.75 -51.13,28.24 -178.56,67.51z"/>
  </g>
 </g>
</svg>
