<?xml version="1.0" encoding="UTF-8"?>
<!DOCTYPE svg PUBLIC "-//W3C//DTD SVG 1.1//EN" "http://www.w3.org/Graphics/SVG/1.1/DTD/svg11.dtd">
<!-- Creator: CorelDRAW -->
<svg xmlns="http://www.w3.org/2000/svg" xml:space="preserve" width="38.204mm" height="68.419mm" version="1.1" style="shape-rendering:geometricPrecision; text-rendering:geometricPrecision; image-rendering:optimizeQuality; fill-rule:evenodd; clip-rule:evenodd"
viewBox="0 0 3820.4 6841.9"
 xmlns:xlink="http://www.w3.org/1999/xlink"
 xmlns:xodm="http://www.corel.com/coreldraw/odm/2003">
 <defs>
  <style type="text/css">
   <![CDATA[
    .fil2 {fill:#164746}
    .fil0 {fill:#192326}
    .fil3 {fill:#212A2E}
    .fil6 {fill:#235659}
    .fil10 {fill:#25686B}
    .fil9 {fill:#256A76}
    .fil1 {fill:#394246}
    .fil5 {fill:#4A877B}
    .fil4 {fill:#5B9586}
    .fil8 {fill:#8D6F4D}
    .fil7 {fill:#968359}
   ]]>
  </style>
 </defs>
 <g id="Слой_x0020_1">
  <metadata id="CorelCorpID_0Corel-Layer"/>
  <g id="_2360806167216">
   <path class="fil0" d="M3810.68 6234.59l0 -1370.57c-264.64,-167.37 -535.28,-305.9 -830.3,-473.87 -151.46,-86.24 -324.32,-179.29 -474.79,-263.23 -611.77,-341.23 -475.16,-100.55 -474,-1026.22l17.73 -957.63c31.87,-151.17 291.94,-237.47 436.13,-331.13 985.33,-639.98 770.17,-639.63 1325.23,-298.81l0 -1203.99c-59.51,1.82 -120.2,13.78 -182.33,38 -223.03,86.94 -1548.64,1188.08 -1829.88,1414 -310.94,249.79 -600.39,473.23 -904.85,719.35 -376.85,304.62 -655.73,337.59 -532.39,1048.36 24.93,143.65 2268.79,1883.86 2670.13,2192.77 399.91,307.8 586.73,490.85 779.32,512.97z"/>
   <path class="fil1" d="M3810.68 6543.2l0 -308.61c-192.59,-22.12 -379.41,-205.17 -779.32,-512.97 -401.34,-308.91 -2645.2,-2049.12 -2670.13,-2192.77 -123.34,-710.77 155.54,-743.74 532.39,-1048.36 304.46,-246.12 593.91,-469.56 904.85,-719.35 281.24,-225.92 1606.85,-1327.06 1829.88,-1414 62.13,-24.22 122.82,-36.18 182.33,-38l0 -295.03c-438.9,39.02 -846.23,472.49 -1085.28,663.26l-2206.32 1744.41c-188.49,154.77 -403.1,246.41 -472.97,514.44 -38.84,149.03 -67.9,836.33 11.16,919.77l17.47 -197.26 0.67 -7.61c-0.47,2.42 -0.7,4.95 -0.67,7.61 1.21,142.58 706.36,626.76 856.66,741.25l1847.43 1469.61c536.14,426.42 785.88,656.21 1031.85,673.61z"/>
   <path class="fil2" d="M3810.68 4864.02l0 -1760.47 -630.75 -325.39c-73.05,121.49 -7.69,106.58 -137.66,223.66l183.74 194.22c164.45,19.37 433.61,-0.27 410.9,472.99 -11.57,241.15 -194.93,447.53 -353,528.93 -89.03,-37.71 -100.95,-73.04 -145.62,-133.88 -139.59,-230.23 -251.93,-428.47 -355.29,-719.5 -100.43,-66.18 -67.03,65.08 -77.43,-109.84 -0.59,-9.97 -1.33,-20.94 -2.24,-33 10.37,38.91 12.24,36.83 2.24,33 -8.12,-3.11 -24.05,-7.36 -49.6,8.19l15.06 739.63 -123.7 -46.5 -161.24 -1.17 -41.67 -114.34 -87.74 -9.66c-72.06,-40.03 -85.36,-1.7 -184.82,-7.06l-40.27 -703.13c-1.16,925.67 -137.77,684.99 474,1026.22 150.47,83.94 323.33,176.99 474.79,263.23 295.02,167.97 565.66,306.5 830.3,473.87z"/>
   <path class="fil3" d="M57.27 3855.99c1.64,291.73 237.23,308.78 298.76,449.36l330.57 233.62c261.39,168.21 520.71,407.16 771.61,604.41l1550.46 1236.65c356.75,293.19 584.89,442.97 802.01,459.05l0 -295.88c-245.97,-17.4 -495.71,-247.19 -1031.85,-673.61l-1847.43 -1469.61c-150.3,-114.49 -855.45,-598.67 -856.66,-741.25 -0.03,-2.66 0.2,-5.19 0.67,-7.61l-0.67 7.61 -17.47 197.26z"/>
   <path class="fil4" d="M3810.68 2729.76l0 -165.71c-338.01,-243.14 -1029.81,-657.15 -1086.7,-668.86 128.41,-91.01 446.36,137.6 749.56,285.71 120.65,58.93 233.73,123.69 337.14,181.73l0 -261.1c-311.18,-201.93 -659.16,-411.87 -750.85,-465.04 -14.11,-8.18 -22.15,-12.65 -23.05,-12.81 2.06,1.77 10.12,6.2 23.05,12.81 115.54,59.03 620.42,291.5 721.79,345.95 8.54,4.59 18.27,10 29.06,16.11l0 -485.42c-555.06,-340.82 -339.9,-341.17 -1325.23,298.81 -144.19,93.66 -404.26,179.96 -436.13,331.13l113.88 27.01c377.29,-63.79 -8.01,-318.06 884.96,151.02 164.84,86.6 286.96,161.09 452.71,244.66 93.04,46.91 203.21,130.9 309.81,164z"/>
   <path class="fil5" d="M3810.68 3103.55l0 -373.79c-106.6,-33.1 -216.77,-117.09 -309.81,-164 -165.75,-83.57 -287.87,-158.06 -452.71,-244.66 -892.97,-469.08 -507.67,-214.81 -884.96,-151.02 108.98,171.57 858.21,431.5 1016.73,608.08l630.75 325.39zm0 -539.5l0 -201.42c-103.41,-58.04 -216.49,-122.8 -337.14,-181.73 -303.2,-148.11 -621.15,-376.72 -749.56,-285.71 56.89,11.71 748.69,425.72 1086.7,668.86zm0 -462.52l0 -102.98c-10.79,-6.11 -20.52,-11.52 -29.06,-16.11 -101.37,-54.45 -606.25,-286.92 -721.79,-345.95 -12.93,-6.61 -20.99,-11.04 -23.05,-12.81 0.9,0.16 8.94,4.63 23.05,12.81 91.69,53.17 439.67,263.11 750.85,465.04z"/>
   <path class="fil6" d="M2031.59 3100.7l40.27 703.13c99.46,5.36 112.76,-32.97 184.82,7.06 -18.13,-129.12 -90.78,-1105.57 4.17,-1252.6 173.68,91.1 106.16,239.08 107.46,582.51 0.87,228.85 21.53,456.32 -23.89,679.75l41.67 114.34 161.24 1.17c-20.39,-204.67 -26.89,-380.44 -35.75,-582.24l31.49 -616.58c189.85,91.38 92.42,161.27 112.9,505.69 57.05,-34.72 66.14,29.29 47.36,-41.19 16.88,223.53 -26.49,72.89 79.67,142.84l-25.5 -399.8c146.04,-28.89 196.81,8.38 284.77,57.04 129.97,-117.08 64.61,-102.17 137.66,-223.66 -158.52,-176.58 -907.75,-436.51 -1016.73,-608.08l-113.88 -27.01 -17.73 957.63z"/>
   <path class="fil7" d="M2783 3344.58c103.36,291.03 215.7,489.27 355.29,719.5l106.58 -26.3c6.38,-186.56 48.7,-319.76 37.25,-468.13 -12.21,-158.29 -0.58,-268.26 -56.11,-373.61l-183.74 -194.22c-87.96,-48.66 -138.73,-85.93 -284.77,-57.04l25.5 399.8z"/>
   <path class="fil8" d="M3138.29 4064.08c44.67,60.84 56.59,96.17 145.62,133.88 158.07,-81.4 341.43,-287.78 353,-528.93 22.71,-473.26 -246.45,-453.62 -410.9,-472.99 55.53,105.35 43.9,215.32 56.11,373.61 11.45,148.37 -30.87,281.57 -37.25,468.13l-106.58 26.3z"/>
   <path class="fil9" d="M2256.68 3810.89l87.74 9.66c45.42,-223.43 24.76,-450.9 23.89,-679.75 -1.3,-343.43 66.22,-491.41 -107.46,-582.51 -94.95,147.03 -22.3,1123.48 -4.17,1252.6z"/>
   <path class="fil10" d="M2547.33 3936.06l123.7 46.5 -15.06 -739.63c-20.48,-344.42 76.95,-414.31 -112.9,-505.69l-31.49 616.58c8.86,201.8 15.36,377.57 35.75,582.24z"/>
  </g>
 </g>
</svg>
