<?xml version="1.0" encoding="UTF-8"?>
<!DOCTYPE svg PUBLIC "-//W3C//DTD SVG 1.1//EN" "http://www.w3.org/Graphics/SVG/1.1/DTD/svg11.dtd">
<!-- Creator: CorelDRAW -->
<svg xmlns="http://www.w3.org/2000/svg" xml:space="preserve" width="38.1174mm" height="68.2954mm" version="1.1" style="shape-rendering:geometricPrecision; text-rendering:geometricPrecision; image-rendering:optimizeQuality; fill-rule:evenodd; clip-rule:evenodd"
viewBox="0 0 3811.74 6829.54"
 xmlns:xlink="http://www.w3.org/1999/xlink"
 xmlns:xodm="http://www.corel.com/coreldraw/odm/2003">
 <defs>
  <style type="text/css">
   <![CDATA[
    .fil5 {fill:#0A0D0C}
    .fil0 {fill:#162225}
    .fil2 {fill:#1D282A}
    .fil1 {fill:#353E42}
    .fil9 {fill:#712F2E}
    .fil8 {fill:#736D52}
    .fil7 {fill:#8C4E30}
    .fil13 {fill:#968359}
    .fil10 {fill:#976A36}
    .fil14 {fill:#978E6C}
    .fil12 {fill:#A5A876}
    .fil3 {fill:#AA773B}
    .fil11 {fill:#AC7037}
    .fil4 {fill:#B68E48}
    .fil15 {fill:#B9945A}
    .fil17 {fill:#C59149}
    .fil16 {fill:#CCAB75}
    .fil6 {fill:#D1AD6D}
   ]]>
  </style>
 </defs>
 <g id="Слой_x0020_1">
  <metadata id="CorelCorpID_0Corel-Layer"/>
  <g id="_2323935037520">
   <g id="_2356903787168">
    <path class="fil0" d="M3795.67 6232.78l0 -1218.37c-204.67,-19.47 -447.12,-85.12 -604.37,-194.1 -120.73,-83.67 -301.78,-105.52 -456.09,-211.85 -102.05,-70.31 -104.49,-117.68 -406.52,-300.59 -153.93,-93.22 -95.89,-55.07 -233.49,-10.83 -9.65,-233.93 -61.55,-203.89 -219.99,-274.97l-31.22 -438.91c-140.56,-186.53 -176.58,51.76 -191.55,-316.56 17.79,-105.65 32.94,-77.79 137.28,-133.92 109.27,-58.77 97.49,-37 182.91,-116.65 -68.01,-130.14 22.04,-25.78 -135.13,-120.01 -28.04,-16.81 -38.39,-20.6 -66.02,-39.77 -31.19,-21.64 -40.26,-32.56 -60.63,-51.72 -48.48,-69.79 -112.08,-177.9 1.66,-240.92 25.86,-58.58 796.72,-560.81 932.93,-656.14 163.4,-114.37 316.91,-205.69 488.67,-325.32 220.64,-153.68 373.72,-191.96 558.83,29.16l102.73 71.52 0 -1368.36c-57.44,0.06 -114.54,10.96 -170.41,35.71l-2730.04 2137.32c-324.34,262.72 -701.37,397.8 -546.42,1061.14 47.43,203.03 1524.91,1289.15 1781.4,1489.45 323.76,252.84 606.84,462.56 916.72,704.36 180.15,140.57 451.32,457.84 748.75,490.33z"/>
    <path class="fil1" d="M3795.67 6524.05l0 -291.27c-297.43,-32.49 -568.6,-349.76 -748.75,-490.33 -309.88,-241.8 -592.96,-451.52 -916.72,-704.36 -256.49,-200.3 -1733.97,-1286.42 -1781.4,-1489.45 -154.95,-663.34 222.08,-798.42 546.42,-1061.14l2730.04 -2137.32c55.87,-24.75 112.97,-35.65 170.41,-35.71l0 -300.24c-376.04,31.97 -695.65,377.45 -911.49,543.46 -380.38,292.56 -742.05,580.34 -1102.95,872.82 -363.95,294.95 -727.16,584.38 -1101.63,873.33 -578.86,446.66 -674.94,368.33 -678.73,1343.46 501.5,536.33 364.25,318.83 891.2,720.88 483.6,368.97 2530.91,2081.44 2766.82,2140.49 45.21,11.31 90.93,16.09 136.78,15.38z"/>
    <g>
     <path class="fil2" d="M3795.67 6826.83l0 -302.78 0 302.78zm0 -302.78c-45.85,0.71 -91.57,-4.07 -136.78,-15.38 -235.91,-59.05 -2283.22,-1771.52 -2766.82,-2140.49 -526.95,-402.05 -389.7,-184.55 -891.2,-720.88 27.45,524.57 198.32,492.64 453.74,738.92l305.75 257.17c561.58,270.55 2503.4,2169.68 3035.31,2183.44l0 -302.78z"/>
    </g>
    <path class="fil3" d="M3795.67 3995.66l0 -640.37 -106.2 64.23c-111.29,18.88 -15.3,16.98 -78.75,-10.41 49.79,-22.1 114.06,-58.64 184.95,-102.42l0 -491.16 -509.9 323.56c-67.47,76.54 -19.21,-0.49 -86.82,126.58 206.38,-31.84 153.49,-82.1 284.78,-110.12 28.28,82.06 18.41,40.88 -43.86,149.2 -57.17,-19.63 -86.56,-33.31 -98.68,-42.59 -47.6,-36.44 171.08,-5.12 19.29,-0.66 -6.59,0.19 -13.02,0.41 -19.29,0.66 -283.05,11.14 -253.25,76.6 -323.52,140.54l-178.66 -34.33c75.03,118.18 649.94,475.9 956.66,627.29z"/>
    <path class="fil4" d="M3795.67 2815.53l0 -349.21c-46.99,24.59 -91.28,47.8 -127.56,70.82 -158.93,100.84 -316.23,216.17 -491.68,290.18 54.88,-69.6 2.27,-14.93 68.66,-72.64 78.39,-68.14 333.94,-234.33 550.58,-362.37l0 -709.48 -102.73 -71.52c-19.36,12.58 -712.82,759.63 -1217.26,863.49 90.98,-119.61 117.54,-116.47 256.69,-200.66 97.09,-58.75 152.96,-95.2 254.98,-167.99 167.44,-119.46 326.55,-235.83 471.11,-340.42 -132.9,-11.2 -1527.81,963.92 -1540.6,992.74 73.78,95.64 187.53,137.8 277.58,198.12 59.41,39.8 95.38,59.72 150.01,90.68 74.17,42.05 94.56,37.87 137.24,122.33l356.32 198.77 178.66 34.33c70.27,-63.94 40.47,-129.4 323.52,-140.54 6.27,-0.25 12.7,-0.47 19.29,-0.66 151.79,-4.46 -66.89,-35.78 -19.29,0.66 12.12,9.28 41.51,22.96 98.68,42.59 62.27,-108.32 72.14,-67.14 43.86,-149.2 -131.29,28.02 -78.4,78.28 -284.78,110.12 67.61,-127.07 19.35,-50.04 86.82,-126.58l509.9 -323.56z"/>
    <path class="fil5" d="M3795.67 5014.41l0 -123.44c-6.86,-3.92 -13.61,-8.29 -20.24,-13.14l-97.72 -101.5 -1600.9 -1080.92 -232.82 -112.25 31.22 438.91c158.44,71.08 210.34,41.04 219.99,274.97 137.6,-44.24 79.56,-82.39 233.49,10.83 302.03,182.91 304.47,230.28 406.52,300.59 154.31,106.33 335.36,128.18 456.09,211.85 157.25,108.98 399.7,174.63 604.37,194.1z"/>
    <path class="fil6" d="M1712.51 2563.61l-27.77 124.48c146.29,9.51 83.34,18.91 124.5,63.49l108.62 6.89c12.79,-28.82 1407.7,-1003.94 1540.6,-992.74 -144.56,104.59 -303.67,220.96 -471.11,340.42 -102.02,72.79 -157.89,109.24 -254.98,167.99 -139.15,84.19 -165.71,81.05 -256.69,200.66 504.44,-103.86 1197.9,-850.91 1217.26,-863.49 -185.11,-221.12 -338.19,-182.84 -558.83,-29.16 -171.76,119.63 -325.27,210.95 -488.67,325.32 -136.21,95.33 -907.07,597.56 -932.93,656.14z"/>
    <path class="fil7" d="M3795.67 4763.01l0 -247.19c-86.75,-59.68 -132.53,-80.02 -209.5,-215.19l-109.51 -38.62c-151.39,26.71 -157.84,93.37 -314.55,-13.85 -91.39,-62.52 -205.35,-113.03 -253.11,-201.35 -162.92,-34.62 -615.66,-325.29 -754.82,-439.27 -65.94,87.22 6.43,25.78 -77.37,87.87l1600.9 1080.92c36.32,-0.02 75.86,-4.69 117.96,-13.32z"/>
    <path class="fil7" d="M3795.67 4219.71l0 -224.05c-306.72,-151.39 -881.63,-509.11 -956.66,-627.29l-356.32 -198.77 -46.77 42.32c126.79,75.21 100.08,4.82 141.98,163.17l371.08 264.32c116.43,59.47 414.09,257.54 457.2,335.11 133.23,43.67 283.13,147.2 389.49,245.19z"/>
    <path class="fil8" d="M3795.67 4515.82l0 -151.36c-19.53,-12.35 -44.44,-27.22 -74.8,-36.52l-134.7 -27.31c76.97,135.17 122.75,155.51 209.5,215.19z"/>
    <path class="fil9" d="M3795.67 4890.97l0 -127.96c-42.1,8.63 -81.64,13.3 -117.96,13.32l97.72 101.5c6.63,4.85 13.38,9.22 20.24,13.14z"/>
    <path class="fil3" d="M1879.63 3400.43c8.33,5.94 19.4,13.42 25.02,17.76l122.09 97.14c5.95,4.09 15.34,8.71 21.38,12.72 115.31,76.49 40.83,-11.47 106.06,79.49 139.16,113.98 591.9,404.65 754.82,439.27 24.56,2.75 -151.36,-109.86 -202.5,-151.63 -106.26,-86.8 -175.31,-127.84 -170.73,-283.89 -33.07,-35.35 0.41,-5.48 -56.93,-52.15 -31.53,-25.67 -49.48,-36.17 -80.34,-60.16 -82.8,-64.35 -79.27,-59.93 -129.98,-127.02 -92.33,-51.07 -122.77,-60.04 -166.51,-168.12l-104.35 -8.09c-68.41,110.17 -119.44,100.75 -118.03,204.68z"/>
    <path class="fil10" d="M2909 4046.81c47.76,88.32 161.72,138.83 253.11,201.35 156.71,107.22 163.16,40.56 314.55,13.85 -72.84,-77.84 -60.64,-51.97 -144.75,-108.09 -16.7,-11.14 -52.86,-34.78 -63.66,-45.08 -57.88,-55.19 -34.67,-28.53 -77.28,-101.41 -81.69,-5.22 -122.27,-46.12 -188.69,-87.17l-148.19 -103.56c-45.05,-46.25 -16.99,-13.74 -54.7,-70.89l-263.62 -134.52c-4.58,156.05 64.47,197.09 170.73,283.89 51.14,41.77 227.06,154.38 202.5,151.63z"/>
    <path class="fil11" d="M1710.85 2804.53c20.37,19.16 29.44,30.08 60.63,51.72 27.63,19.17 37.98,22.96 66.02,39.77 157.17,94.23 67.12,-10.13 135.13,120.01 8.31,2.73 21.75,-2.73 25.05,7.82 4.44,14.17 43.99,19.22 45.77,20.53 87.77,64.46 38.18,37.04 65.16,73.85 99.3,43.42 188.9,92.62 267.38,147.74 82.85,44.35 110.5,69.2 201.91,109.12 -41.9,-158.35 -15.19,-87.96 -141.98,-163.17l46.77 -42.32c-42.68,-84.46 -63.07,-80.28 -137.24,-122.33 -54.63,-30.96 -90.6,-50.88 -150.01,-90.68 -90.05,-60.32 -203.8,-102.48 -277.58,-198.12l-108.62 -6.89c-56.44,22.13 -64.07,27.82 -98.39,52.95z"/>
    <path class="fil12" d="M2268.52 3371.96c50.71,67.09 47.18,62.67 129.98,127.02 30.86,23.99 48.81,34.49 80.34,60.16 57.34,46.67 23.86,16.8 56.93,52.15l263.62 134.52 149.59 -106.4 -371.08 -264.32c-91.41,-39.92 -119.06,-64.77 -201.91,-109.12 -36.29,39.48 -64.14,66.79 -107.47,105.99z"/>
    <path class="fil13" d="M3795.67 4364.46l0 -144.75c-106.36,-97.99 -256.26,-201.52 -389.49,-245.19l-35.44 36.69 -179.77 -3.78c42.61,72.88 19.4,46.22 77.28,101.41 10.8,10.3 46.96,33.94 63.66,45.08 84.11,56.12 71.91,30.25 144.75,108.09l109.51 38.62 134.7 27.31c30.36,9.3 55.27,24.17 74.8,36.52z"/>
    <path class="fil14" d="M2799.39 3745.81c37.71,57.15 9.65,24.64 54.7,70.89l148.19 103.56c66.42,41.05 107,81.95 188.69,87.17l179.77 3.78 35.44 -36.69c-43.11,-77.57 -340.77,-275.64 -457.2,-335.11l-149.59 106.4z"/>
    <path class="fil10" d="M3795.67 3355.29l0 -48.6c-70.89,43.78 -135.16,80.32 -184.95,102.42 63.45,27.39 -32.54,29.29 78.75,10.41l106.2 -64.23z"/>
    <path class="fil10" d="M1843.99 3583.16l232.82 112.25c83.8,-62.09 11.43,-0.65 77.37,-87.87 -65.23,-90.96 9.25,-3 -106.06,-79.49 -6.04,-4.01 -15.43,-8.63 -21.38,-12.72l-122.09 -97.14c-5.62,-4.34 -16.69,-11.82 -25.02,-17.76 -58.76,-52.45 -137.4,-82.15 -227.19,-133.83 14.97,368.32 50.99,130.03 191.55,316.56z"/>
    <path class="fil15" d="M1652.44 3266.6c89.79,51.68 168.43,81.38 227.19,133.83 -1.41,-103.93 49.62,-94.51 118.03,-204.68l104.35 8.09 6.6 -85.61c-26.98,-36.81 22.61,-9.39 -65.16,-73.85 -1.78,-1.31 -41.33,-6.36 -45.77,-20.53 -3.3,-10.55 -16.74,-5.09 -25.05,-7.82 -85.42,79.65 -73.64,57.88 -182.91,116.65 -104.34,56.13 -119.49,28.27 -137.28,133.92z"/>
    <path class="fil10" d="M3795.67 2466.32l0 -74.01c-216.64,128.04 -472.19,294.23 -550.58,362.37 -66.39,57.71 -13.78,3.04 -68.66,72.64 175.45,-74.01 332.75,-189.34 491.68,-290.18 36.28,-23.02 80.57,-46.23 127.56,-70.82z"/>
    <path class="fil16" d="M2102.01 3203.84c43.74,108.08 74.18,117.05 166.51,168.12 43.33,-39.2 71.18,-66.51 107.47,-105.99 -78.48,-55.12 -168.08,-104.32 -267.38,-147.74l-6.6 85.61z"/>
    <path class="fil17" d="M1710.85 2804.53c34.32,-25.13 41.95,-30.82 98.39,-52.95 -41.16,-44.58 21.79,-53.98 -124.5,-63.49l27.77 -124.48c-113.74,63.02 -50.14,171.13 -1.66,240.92z"/>
   </g>
  </g>
 </g>
</svg>
