<?xml version="1.0" encoding="UTF-8"?>
<!DOCTYPE svg PUBLIC "-//W3C//DTD SVG 1.1//EN" "http://www.w3.org/Graphics/SVG/1.1/DTD/svg11.dtd">
<!-- Creator: CorelDRAW -->
<svg xmlns="http://www.w3.org/2000/svg" xml:space="preserve" width="38.7356mm" height="68.3188mm" version="1.1" style="shape-rendering:geometricPrecision; text-rendering:geometricPrecision; image-rendering:optimizeQuality; fill-rule:evenodd; clip-rule:evenodd"
viewBox="0 0 3873.56 6831.88"
 xmlns:xlink="http://www.w3.org/1999/xlink"
 xmlns:xodm="http://www.corel.com/coreldraw/odm/2003">
 <defs>
  <style type="text/css">
   <![CDATA[
    .fil5 {fill:#0A0D0C}
    .fil0 {fill:#162225}
    .fil2 {fill:#1D282A}
    .fil1 {fill:#353E42}
    .fil8 {fill:#712F2E}
    .fil7 {fill:#736D52}
    .fil10 {fill:#754931}
    .fil6 {fill:#8C4E30}
    .fil9 {fill:#968359}
    .fil11 {fill:#976A36}
    .fil3 {fill:#AA773B}
    .fil4 {fill:#B68E48}
   ]]>
  </style>
 </defs>
 <g id="Слой_x0020_1">
  <metadata id="CorelCorpID_0Corel-Layer"/>
  <g id="_2323931292992">
   <g id="_2356903787168">
    <path class="fil0" d="M6.38 1688.14l803.94 559.71 1061.58 695.48c89.79,98.06 81.61,85.57 64.36,256.56 -54.02,28.31 -112.04,53.92 -180.1,93.75 -70.88,41.47 -115.88,85.57 -155.67,112.2 64.52,189.4 63.7,81.42 206.29,213.56 93.21,2.53 35.4,-10.19 61.51,51l-25.68 238.7c189.04,239.76 -181.38,361.96 -238.88,401.72 -770.78,532.93 -569.27,236.58 -852.27,417.79l-220.08 136.72c-85.75,55.58 -155.06,117.61 -253.29,141.2 -67.8,16.28 -164.35,19.31 -271.71,9.55l0 1218.39c98.72,9.49 200.26,-12.61 302.29,-83.2 306.89,-212.34 604.23,-478.53 906.07,-712.87 519.05,-402.99 1268.67,-910.38 1711.82,-1322.5 512.64,-476.73 670.31,-388.93 600.87,-1027.33 -26.92,-247.53 -629.74,-660.91 -834.77,-820.52l-1815.04 -1430.1c-180.58,-138.08 -531.43,-518.06 -871.24,-522.22l0 1372.41z"/>
    <path class="fil1" d="M6.38 315.73c339.81,4.16 690.66,384.14 871.24,522.22l1815.04 1430.1c205.03,159.61 807.85,572.99 834.77,820.52 69.44,638.4 -88.23,550.6 -600.87,1027.33 -443.15,412.12 -1192.77,919.51 -1711.82,1322.5 -301.84,234.34 -599.18,500.53 -906.07,712.87 -102.03,70.59 -203.57,92.69 -302.29,83.2l0 290.55c383.65,-9.9 774.57,-400.06 938.71,-549.08 279.67,-253.9 617.36,-486.88 922.74,-736.43 307.01,-250.88 597.19,-484.56 904.81,-719.57 224.19,-171.28 811.33,-525.4 929.72,-726.28 4.76,6.57 8.37,11.17 9.34,22.48 0.95,11.12 7.42,17.96 8.57,22.34 27.88,105.8 10.1,-3.82 14.99,68.23 14.92,219.84 -180.85,184.3 -208.73,389.16 238.14,-161.54 341.61,-248.19 335.47,-675.04 -4.55,-315.78 35.33,-649.54 -137.19,-868.07 -140.35,-177.78 -1860.23,-1491.2 -2193.2,-1758.81 -308.42,-247.88 -777.06,-662.65 -1106.15,-868.72 -145.34,-91 -285.72,-120.41 -419.08,-110.27l0 300.77z"/>
    <path class="fil2" d="M6.38 6827.96c451.99,5.57 1135.76,-672.57 1579.69,-1019.71 470.99,-368.32 979.45,-801.75 1469.46,-1141.4l471 -370.98c27.88,-204.86 223.65,-169.32 208.73,-389.16 -4.89,-72.05 12.89,37.57 -14.99,-68.23 -1.15,-4.38 -7.62,-11.22 -8.57,-22.34 -0.97,-11.31 -4.58,-15.91 -9.34,-22.48 -118.39,200.88 -705.53,555 -929.72,726.28 -307.62,235.01 -597.8,468.69 -904.81,719.57 -305.38,249.55 -643.07,482.53 -922.74,736.43 -164.14,149.02 -555.06,539.18 -938.71,549.08l0 302.94z"/>
    <path class="fil3" d="M6.38 3304.08c184.25,-114.24 411.25,-275.52 545.18,-359.3l66.25 -44.3c10.3,-7.23 78.95,-58.77 82.19,-61.2l141.82 -104.91c72.53,-47.06 62.49,-60.69 156.59,-44.6 -7.91,69.98 -80.78,112.58 -150.61,154.12l-841.42 508.88 0 646.96c55.01,26.97 101.06,47.09 133.48,57.61l1541.3 -929.73c117.72,-96.58 132.78,-27.87 190.74,-184.28l-1061.58 -695.48 -94.81 133.56c-57.53,43.94 -15.29,20.21 -103.49,47.11l-605.64 384.31 0 491.25z"/>
    <path class="fil4" d="M6.38 2389.88c154.74,-91.26 288.48,-162.29 321.61,-162.91 -64.12,101.68 -200.93,174.16 -321.61,237.32l0 348.54 605.64 -384.31c88.2,-26.9 45.96,-3.17 103.49,-47.11l94.81 -133.56 -803.94 -559.71 0 701.74z"/>
    <path class="fil5" d="M1842.61 3909.1c-140.97,40.13 -793.24,473.07 -974.18,582.38 -328.46,198.43 -648.12,516.67 -862.05,403.82l0 120.78c107.36,9.76 203.91,6.73 271.71,-9.55 98.23,-23.59 167.54,-85.62 253.29,-141.2l220.08 -136.72c283,-181.21 81.49,115.14 852.27,-417.79 57.5,-39.76 427.92,-161.96 238.88,-401.72z"/>
    <path class="fil6" d="M6.38 4762.81c386.79,-82.25 984.52,-491.93 1289.1,-694.85 63.46,-42.27 143.02,-92.74 212.62,-138.9l195.07 -177.68 -79.07 10.11 3.82 -79.66c-430.05,122.73 -1187.79,817.9 -1558.61,885.77 -23.36,-18.42 -44.11,-33.42 -62.93,-46.5l0 241.71z"/>
    <path class="fil6" d="M6.38 4226.41c13.55,12.65 26.35,25.2 38.27,37.48 180.55,-4.53 1217.74,-662.05 1314.14,-765.92 37.82,-138.22 -5.64,-45.09 90.34,-129.23 21.19,-18.56 44.62,-27.67 76.92,-55.13 67.42,-57.31 106.7,-97.61 155.11,-186l-1541.3 929.73c-32.42,-10.52 -78.47,-30.64 -133.48,-57.61l0 226.68z"/>
    <path class="fil7" d="M1358.79 3497.97c-96.4,103.87 -1133.59,761.39 -1314.14,765.92 20.44,143.26 8.14,135.12 -38.27,105.52l0 151.69c18.82,13.08 39.57,28.08 62.93,46.5 370.82,-67.87 1128.56,-763.04 1558.61,-885.77 9.67,-68.51 -18.24,-27.07 28.73,-68.76l150.13 6.33c-142.59,-132.14 -141.77,-24.16 -206.29,-213.56l-241.7 92.13z"/>
    <path class="fil8" d="M1703.17 3751.38l-195.07 177.68c-69.6,46.16 -149.16,96.63 -212.62,138.9 -304.58,202.92 -902.31,612.6 -1289.1,694.85l0 132.49c213.93,112.85 533.59,-205.39 862.05,-403.82 180.94,-109.31 833.21,-542.25 974.18,-582.38l25.68 -238.7 -165.12 80.98z"/>
    <path class="fil9" d="M6.38 4369.41c46.41,29.6 58.71,37.74 38.27,-105.52 -11.92,-12.28 -24.72,-24.83 -38.27,-37.48l0 143z"/>
    <path class="fil10" d="M1681.16 3127.61c-48.41,88.39 -87.69,128.69 -155.11,186 -32.3,27.46 -55.73,36.57 -76.92,55.13 -95.98,84.14 -52.52,-8.99 -90.34,129.23l241.7 -92.13c39.79,-26.63 84.79,-70.73 155.67,-112.2 68.06,-39.83 126.08,-65.44 180.1,-93.75 17.25,-170.99 25.43,-158.5 -64.36,-256.56 -57.96,156.41 -73.02,87.7 -190.74,184.28z"/>
    <path class="fil11" d="M6.38 3352.77l841.42 -508.88c69.83,-41.54 142.7,-84.14 150.61,-154.12 -94.1,-16.09 -84.06,-2.46 -156.59,44.6l-141.82 104.91c-3.24,2.43 -71.89,53.97 -82.19,61.2l-66.25 44.3c-133.93,83.78 -360.93,245.06 -545.18,359.3l0 48.69z"/>
    <path class="fil11" d="M6.38 2464.29c120.68,-63.16 257.49,-135.64 321.61,-237.32 -33.13,0.62 -166.87,71.65 -321.61,162.91l0 74.41z"/>
    <path class="fil11" d="M1627.92 3681.83l-3.82 79.66 79.07 -10.11 165.12 -80.98c-26.11,-61.19 31.7,-48.47 -61.51,-51l-150.13 -6.33c-46.97,41.69 -19.06,0.25 -28.73,68.76z"/>
   </g>
  </g>
 </g>
</svg>
