<?xml version="1.0" encoding="UTF-8"?>
<!DOCTYPE svg PUBLIC "-//W3C//DTD SVG 1.1//EN" "http://www.w3.org/Graphics/SVG/1.1/DTD/svg11.dtd">
<!-- Creator: CorelDRAW -->
<svg xmlns="http://www.w3.org/2000/svg" xml:space="preserve" width="38.7674mm" height="68.0954mm" version="1.1" style="shape-rendering:geometricPrecision; text-rendering:geometricPrecision; image-rendering:optimizeQuality; fill-rule:evenodd; clip-rule:evenodd"
viewBox="0 0 3876.74 6809.54"
 xmlns:xlink="http://www.w3.org/1999/xlink"
 xmlns:xodm="http://www.corel.com/coreldraw/odm/2003">
 <defs>
  <style type="text/css">
   <![CDATA[
    .fil0 {fill:#192326}
    .fil2 {fill:#212A2E}
    .fil9 {fill:#29445A}
    .fil6 {fill:#2A4767}
    .fil18 {fill:#376676}
    .fil1 {fill:#394246}
    .fil7 {fill:#397093}
    .fil3 {fill:#3B6687}
    .fil15 {fill:#467859}
    .fil12 {fill:#4A7699}
    .fil11 {fill:#528EA9}
    .fil5 {fill:#559069}
    .fil10 {fill:#5886AA}
    .fil4 {fill:#66A9BD}
    .fil13 {fill:#68936C}
    .fil8 {fill:#6CB2C4}
    .fil17 {fill:#90A669}
    .fil16 {fill:#CCBA3D}
    .fil14 {fill:#D9D859}
   ]]>
  </style>
 </defs>
 <g id="Слой_x0020_1">
  <metadata id="CorelCorpID_0Corel-Layer"/>
  <g id="_2323942626912">
   <path class="fil0" d="M7.97 3044.01c44.14,46 25.2,133.56 0,224.72l0 272.04c94.67,-36.23 87.5,-388.63 216.2,-327.69l63.74 -134.03c169.56,105.55 73.49,-72.81 72.4,145.21 -1.28,255.83 -297.65,-165.63 -352.34,-102.84l0 110.22c116.68,-47.2 308.93,-101.84 246.16,-134.39 1.01,203.17 689.95,29.64 568.33,107.28 -30.24,19.31 174.19,256.03 48.8,320.93 -104.87,54.28 -60.35,-72.84 -133.1,13.48 -103.84,123.21 716.42,131.89 566.58,248.44 -132.03,102.68 -155.61,-1.71 -286.29,59.36 -149.89,70.06 -8.67,-10.58 -67.34,56.44l-375.23 285.75c-178.19,148.75 -27.35,98.17 -133.53,107.88 -273.8,25.03 657.51,-685.28 495.17,-817.8 -224.34,-183.11 -380.49,-26.73 -609.98,-89.27 -233.07,-63.5 -136.81,1090.68 -319.57,1016.39l0 -24.21 326.17 -302.75c-42.3,-24.99 -240.16,272.21 -326.17,332.79l0 1811.68c328.81,22.33 672.11,-412.94 2002.45,-1434.19 316.32,-242.83 593.47,-461.37 906.75,-716.06 375.45,-305.25 688.69,-333.72 632.63,-994.16 -24.59,-289.65 -570.04,-617.88 -799.26,-789.01 -303.6,-226.66 -616.56,-489 -908.97,-714.98 -306.5,-236.85 -607.66,-466.13 -911,-711.27 -183.22,-148.07 -584.06,-550.2 -922.6,-556.89l0 2736.93z"/>
   <path class="fil1" d="M7.97 307.08c338.54,6.69 739.38,408.82 922.6,556.89 303.34,245.14 604.5,474.42 911,711.27 292.41,225.98 605.37,488.32 908.97,714.98 229.22,171.13 774.67,499.36 799.26,789.01 56.06,660.44 -257.18,688.91 -632.63,994.16 -313.28,254.69 -590.43,473.23 -906.75,716.06 -1330.34,1021.25 -1673.64,1456.52 -2002.45,1434.19l0 275.32c39.23,4.27 76.92,4.03 112.69,-1.5 321.25,-49.67 2427.88,-1810.03 2844.6,-2129.85 165.91,-127.34 293.69,-224.56 462.4,-349.99 94.1,-69.95 401.15,-380.15 440.12,-390.37 -1.71,-1005.04 -29.15,-817.51 -621.03,-1304.38 -344.99,-283.79 -738.38,-576.98 -1089.29,-851.22 -363.97,-284.45 -697.66,-563.37 -1066.05,-838.45 -257.21,-192.06 -632.95,-622.51 -1083.44,-617.38l0 291.26z"/>
   <path class="fil2" d="M7.97 6807.84c14.11,0.55 28.31,0.7 42.62,0.29 361.06,-10.35 649.97,-333.12 869.18,-498.35 406.16,-306.12 2105.7,-1687.14 2333.85,-1820.99l293.7 -210.74c68.67,-184.05 297.35,-77.15 320.46,-650.8 -38.97,10.22 -346.02,320.42 -440.12,390.37 -168.71,125.43 -296.49,222.65 -462.4,349.99 -416.72,319.82 -2523.35,2080.18 -2844.6,2129.85 -35.77,5.53 -73.46,5.77 -112.69,1.5l0 308.88z"/>
   <path class="fil3" d="M7.97 4891.84c73.01,-9.44 161.17,10.9 275.75,-29.03 87.5,-30.49 189.59,-77.04 277.73,-109.61 191.18,-70.68 363.44,-191.77 554.05,-239.72 96.28,-12.94 551.29,-260.85 654.96,-315.16 192.62,-100.9 418.93,-176.18 441.79,-318.09 24.74,-153.62 -49.81,-179.22 -49.95,-179.41 -21.76,101.49 -47.32,106.85 -293.09,226.27 -284.32,138.13 -706.37,469.11 -972.19,496.44 -42.98,55.35 -127.23,87.85 -200.1,121.73 -30.66,14.25 -225.46,97.04 -251.49,100.77 -226.01,32.32 -279.7,-226.5 -287.55,-436.05 111.39,19.94 95.51,36.99 187.23,52.59l-148.01 -97.26c93.29,-99.29 295.08,-172.75 435.86,-241.35 357.39,-174.15 261.5,-158.13 443.5,-91.82l-111.02 -115.37c108.35,-93.64 223.27,-128.45 327.08,-222.59 -72.37,-76.88 -37.23,-61.26 -133.36,-85.64 3.41,8.69 0.09,126.88 22.63,64.37 2.48,-6.86 5.58,27.57 9.95,38.21l-120.06 81.46c-186,21.02 -110.5,61.47 -269.5,136.77 -99.32,47.04 -188.6,86.87 -290.77,136.14 -239.23,115.35 -388.92,221.67 -503.44,303.76l0 722.59zm0 -1408.81c204.72,-97.25 435.07,-255.19 655.89,-292.11 -67.14,-71.63 16.29,-12.54 -65.25,-40.77l-78.67 -3.06c-5.56,-0.04 -14.01,1.32 -19.42,1.18l-83.41 -14.58 65.05 -98.81 1.35 -28.67c-76.36,7.03 -54.5,1.18 -118.59,28.75 -136.62,58.76 -74.43,88.69 -273.6,65.53l15.72 -68.61c1.47,-18.63 6.18,-24.42 10.78,-36.11l-109.85 32.11 0 455.15z"/>
   <path class="fil4" d="M7.97 1791.57l32.06 -10.98c26.71,140.66 25.53,426.71 -1.03,561.71 152.89,169.21 120.67,358.04 437.23,314.04 -8.81,-189.4 -31.61,-1430.12 -8.31,-1475.38 -88.4,-22.64 -263.28,41.29 -459.95,133.21l0 477.4z"/>
   <path class="fil4" d="M1292.52 3494.18c-103.81,94.14 -218.73,128.95 -327.08,222.59l111.02 115.37c22.84,124.46 -17.38,31.41 60.38,75.59 51.26,29.12 80.36,16.58 114.33,13.48 114.95,-0.86 83.66,11.13 182.6,46.25 5.7,136.26 12.24,33.48 -45.92,50.95 -54.7,-27.36 -49.67,-36.65 -22.84,19.69 -38.36,86.17 56.69,-0.22 -68.14,83.59 -25.16,16.89 -65.61,34.55 -90.01,48.89 -85.74,50.37 -93.36,74.41 -190.73,71.84 -18.03,113.66 22.04,30.39 -65.67,91.69 -3.89,2.73 -92.31,37.47 -98.26,40.22 45.56,77.21 -10.94,35.03 44.82,49.2 265.82,-27.33 687.87,-358.31 972.19,-496.44 245.77,-119.42 271.33,-124.78 293.09,-226.27 -136.64,-70.62 -476.45,-268.39 -618.13,-286.29l-251.65 79.65z"/>
   <path class="fil5" d="M7.97 3860.11c57.31,-26.16 116.42,-45.67 177.25,-50.31 111.04,9.72 60.21,3.15 253.76,-92.95 123.76,-61.45 183.17,-66.42 205.73,-140.39 57.4,-93.55 14.65,-51.33 96.13,-108.21 23.21,-16.19 42.16,-19.78 71.67,-33.97 31.53,-15.14 65.62,-31.63 94.68,-48.66l93.15 -61.17c-107.27,5.6 -88.74,-25.96 -175.99,3.33 -100.47,33.74 -27.03,40.28 -179.78,52.45 33.82,-137.21 -41.5,-33.88 102.52,-139.88l-83.23 -49.43c-220.82,36.92 -451.17,194.86 -655.89,292.11l0 377.08z"/>
   <path class="fil6" d="M7.97 1206.16c198.7,-91.47 322.67,-180.83 574.91,-223.57 -57.38,-83.93 -102.82,-89.98 -219.99,-51.49l-354.92 176.97 0 98.09z"/>
   <path class="fil7" d="M7.97 1314.17c196.67,-91.92 371.55,-155.85 459.95,-133.21 -23.3,45.26 -0.5,1285.98 8.31,1475.38 -16.67,71.2 -11.44,95.2 -67.65,145.29 -129.97,115.81 92.92,-67.12 -29.59,22.79l-261.17 171.35c-4.6,11.69 -9.31,17.48 -10.78,36.11l-15.72 68.61c199.17,23.16 136.98,-6.77 273.6,-65.53 64.09,-27.57 42.23,-21.72 118.59,-28.75 42.04,-11.67 -1.42,11.14 47.84,-21.92 0.52,-0.35 43.8,-35.29 43.85,-35.34 39.84,-41.21 47.16,-53.75 71.2,-111.63l-83.51 -20.25 -2.55 -1540.05c-2.57,-32.78 -5,-66.28 -13.66,-98.17 -61.49,-226.19 -350.62,30.24 -538.71,29.63l0 105.69z"/>
   <path class="fil8" d="M345.11 4262.57c133.22,13.32 213.48,117.29 319.08,104.49 37.67,-4.57 123.09,-54.37 147.28,-68.15 98.53,-56.15 85.58,-64.43 204.66,-56.49 3.88,-3.96 9.21,-10.09 11.56,-11.97l337.32 -192.35c-26.83,-56.34 -31.86,-47.05 22.84,-19.69 -40.28,-77.13 -57.11,-50.33 -136.68,-97.2 -33.97,3.1 -63.07,15.64 -114.33,-13.48 -77.76,-44.18 -37.54,48.87 -60.38,-75.59 -182,-66.31 -86.11,-82.33 -443.5,91.82 -140.78,68.6 -342.57,142.06 -435.86,241.35l148.01 97.26z"/>
   <path class="fil9" d="M185.22 3809.8c-60.83,4.64 -119.94,24.15 -177.25,50.31l0 43.49c42.1,-20.37 76.98,-37.28 98.08,-48.38l79.17 -45.42zm-177.25 359.45c114.52,-82.09 264.21,-188.41 503.44,-303.76 102.17,-49.27 191.45,-89.1 290.77,-136.14 159,-75.3 83.5,-115.75 269.5,-136.77 -159.97,37.22 -167.06,6.65 -321.45,-29.95 81.4,113.5 66.22,113.16 79.06,84.17 2.07,-4.68 9.97,9.13 14.75,13.9 -186.25,121.05 -438.99,206.08 -641.86,313.3 -44.4,23.46 -114.99,68.38 -194.21,113.1l0 82.15z"/>
   <path class="fil10" d="M7.97 1208.48c188.09,0.61 477.22,-255.82 538.71,-29.63 8.66,31.89 11.09,65.39 13.66,98.17l2.55 1540.05 83.51 20.25c48.33,-167.55 24.96,-726.43 24.78,-942.73 -0.2,-231.24 82.33,-807.63 -88.3,-912 -252.24,42.74 -376.21,132.1 -574.91,223.57l0 2.32z"/>
   <path class="fil11" d="M7.97 3027.88l109.85 -32.11 261.17 -171.35c122.51,-89.91 -100.38,93.02 29.59,-22.79 56.21,-50.09 50.98,-74.09 67.65,-145.29 -316.56,44 -284.34,-144.83 -437.23,-314.04l-29.12 -12.93c-0.58,3.44 -1.23,6.92 -1.91,10.42l0 688.09z"/>
   <path class="fil10" d="M897.02 4423.53c-55.76,-14.17 0.74,28.01 -44.82,-49.2 5.95,-2.75 94.37,-37.49 98.26,-40.22 87.71,-61.3 47.64,21.97 65.67,-91.69 -119.08,-7.94 -106.13,0.34 -204.66,56.49 -24.19,13.78 -109.61,63.58 -147.28,68.15 -105.6,12.8 -185.86,-91.17 -319.08,-104.49 -91.72,-15.6 -75.84,-32.65 -187.23,-52.59 7.85,209.55 61.54,468.37 287.55,436.05 26.03,-3.73 220.83,-86.52 251.49,-100.77 72.87,-33.88 157.12,-66.38 200.1,-121.73z"/>
   <path class="fil12" d="M482.16 3034.88l-65.05 98.81 83.41 14.58c5.41,0.14 13.86,-1.22 19.42,-1.18l78.67 3.06c81.54,28.23 -1.89,-30.86 65.25,40.77l83.23 49.43c127.91,21.3 127.08,30.03 229,89.45 52.61,30.67 131.72,59.99 183.07,78.74 96.13,24.38 60.99,8.76 133.36,85.64l251.65 -79.65c-90.98,-94.35 -358.15,-204.99 -476.73,-260.28 -210.77,-98.26 -312.24,-187.95 -585.28,-119.37z"/>
   <path class="fil13" d="M185.22 3809.8l-79.17 45.42c-21.1,11.1 -55.98,28.01 -98.08,48.38l0 183.5c79.22,-44.72 149.81,-89.64 194.21,-113.1 202.87,-107.22 455.61,-192.25 641.86,-313.3 -4.78,-4.77 -12.68,-18.58 -14.75,-13.9 -12.84,28.99 2.34,29.33 -79.06,-84.17l-105.52 13.83c-22.56,73.97 -81.97,78.94 -205.73,140.39 -193.55,96.1 -142.72,102.67 -253.76,92.95z"/>
   <path class="fil14" d="M7.97 1910.02c25.49,-13.11 -0.63,18.96 31.55,-43.47 -50.84,-32.18 40.14,-68.32 -31.55,-36.11l0 79.58z"/>
   <path class="fil15" d="M644.71 3576.46l105.52 -13.83c154.39,36.6 161.48,67.17 321.45,29.95l120.06 -81.46c-4.37,-10.64 -7.47,-45.07 -9.95,-38.21 -22.54,62.51 -19.22,-55.68 -22.63,-64.37 -51.35,-18.75 -130.46,-48.07 -183.07,-78.74 -101.92,-59.42 -101.09,-68.15 -229,-89.45 -144.02,106 -68.7,2.67 -102.52,139.88 152.75,-12.17 79.31,-18.71 179.78,-52.45 87.25,-29.29 68.72,2.27 175.99,-3.33l-93.15 61.17c-29.06,17.03 -63.15,33.52 -94.68,48.66 -29.51,14.19 -48.46,17.78 -71.67,33.97 -81.48,56.88 -38.73,14.66 -96.13,108.21z"/>
   <path class="fil16" d="M7.97 2339.79c0.68,-3.5 1.33,-6.98 1.91,-10.42 30.61,-166.61 32.41,-139.44 -1.5,-309.73 0.37,16.83 0.26,35.41 -0.41,55.23l0 264.92z"/>
   <path class="fil6" d="M7.97 4962.92c23.22,11.38 56.54,21.41 104.56,26.46 203.32,21.38 956.21,-411.53 1002.97,-475.9 -190.61,47.95 -362.87,169.04 -554.05,239.72 -88.14,32.57 -190.23,79.12 -277.73,109.61 -114.58,39.93 -202.74,19.59 -275.75,29.03l0 71.08z"/>
   <path class="fil17" d="M7.97 1830.44c71.69,-32.21 -19.29,3.93 31.55,36.11 -32.18,62.43 -6.06,30.36 -31.55,43.47l0 164.85c0.67,-19.82 0.78,-38.4 0.41,-55.23 33.91,170.29 32.11,143.12 1.5,309.73l29.12 12.93c26.56,-135 27.74,-421.05 1.03,-561.71l-32.06 10.98 0 38.87z"/>
   <path class="fil3" d="M1016.13 4242.42c97.37,2.57 104.99,-21.47 190.73,-71.84 24.4,-14.34 64.85,-32 90.01,-48.89 124.83,-83.81 29.78,2.58 68.14,-83.59l-337.32 192.35c-2.35,1.88 -7.68,8.01 -11.56,11.97z"/>
   <path class="fil18" d="M1387.85 4018.41c58.16,-17.47 51.62,85.31 45.92,-50.95 -98.94,-35.12 -67.65,-47.11 -182.6,-46.25 79.57,46.87 96.4,20.07 136.68,97.2z"/>
  </g>
 </g>
</svg>
