<?xml version="1.0" encoding="UTF-8"?>
<!DOCTYPE svg PUBLIC "-//W3C//DTD SVG 1.1//EN" "http://www.w3.org/Graphics/SVG/1.1/DTD/svg11.dtd">
<!-- Creator: CorelDRAW -->
<svg xmlns="http://www.w3.org/2000/svg" xml:space="preserve" width="38.1492mm" height="68.087mm" version="1.1" style="shape-rendering:geometricPrecision; text-rendering:geometricPrecision; image-rendering:optimizeQuality; fill-rule:evenodd; clip-rule:evenodd"
viewBox="0 0 3814.92 6808.7"
 xmlns:xlink="http://www.w3.org/1999/xlink"
 xmlns:xodm="http://www.corel.com/coreldraw/odm/2003">
 <defs>
  <style type="text/css">
   <![CDATA[
    .fil0 {fill:#192326}
    .fil2 {fill:#212A2E}
    .fil10 {fill:#29445A}
    .fil8 {fill:#2A4767}
    .fil13 {fill:#364A6A}
    .fil1 {fill:#394246}
    .fil9 {fill:#397093}
    .fil3 {fill:#3B6687}
    .fil15 {fill:#467859}
    .fil11 {fill:#528EA9}
    .fil7 {fill:#548595}
    .fil5 {fill:#55779A}
    .fil6 {fill:#559069}
    .fil4 {fill:#66A9BD}
    .fil12 {fill:#68936C}
    .fil18 {fill:#8B9958}
    .fil17 {fill:#90A669}
    .fil19 {fill:#B0A75B}
    .fil16 {fill:#CCBA3D}
    .fil14 {fill:#D9D859}
   ]]>
  </style>
 </defs>
 <g id="Слой_x0020_1">
  <metadata id="CorelCorpID_0Corel-Layer"/>
  <g id="_2360806880816">
   <path class="fil0" d="M3800.45 6223.66l0 -1807.43c-11.13,6.76 -20,8.74 -25.9,4.44 -248.14,-180.76 -186.76,-87.73 -522.66,-104.42 -13.23,-108.75 -269.77,-80.35 -157.8,-149.21 -138.43,-212.97 546.11,254.02 544.06,-60.96 -1.76,-269.41 -359.64,-311.52 -255.43,-513.18l-221.72 -305.79c212.97,-123.67 428.8,-190.96 625.39,-258.36 5.18,2.94 9.85,6.21 14.06,9.8l0 -2731.31c-31.09,-0.18 -61.63,3.02 -91.42,10.11 -196.36,46.73 -2312.45,1752.95 -2744.48,2098.22 -387.2,309.46 -674.88,336.25 -615.09,1021.65 21.79,249.82 202.18,310.15 350.77,432.95l1357.54 1077.43c307.97,241.4 587.27,474.01 901.28,721.2 434.61,342.13 636.33,537.45 841.4,554.86zm0 -1819.91l0 -15.93 -10.18 9.45c3.48,2.55 6.88,4.71 10.18,6.48zm0 -860.77l0 -252.43c-28.37,100.43 -58.88,201.58 -16.31,253.2 5.75,0.71 11.17,0.42 16.31,-0.77zm0 -308.58l0 -100.93c-3.34,11.71 -3.65,29.55 -0.27,54.92l-40.23 64.31 -26.97 43.12c-20.06,-11.68 -5.31,-26.57 26.97,-43.12 11.53,-5.91 25.29,-12.03 40.5,-18.3z"/>
   <path class="fil1" d="M3800.45 6498.64l0 -274.98c-205.07,-17.41 -406.79,-212.73 -841.4,-554.86 -314.01,-247.19 -593.31,-479.8 -901.28,-721.2l-1357.54 -1077.43c-148.59,-122.8 -328.98,-183.13 -350.77,-432.95 -59.79,-685.4 227.89,-712.19 615.09,-1021.65 432.03,-345.27 2548.12,-2051.49 2744.48,-2098.22 29.79,-7.09 60.33,-10.29 91.42,-10.11l0 -291.06c-63.35,1.27 -128.17,11.19 -194.34,31.62 -238.55,73.66 -2740.15,2087.41 -3251.32,2497.85 -198.56,159.43 -327.07,260.95 -335.87,604.67 -6.84,266.76 -70.66,732.7 110.06,884.62l-58.71 -326.39c87.42,53.91 131.8,116.91 215.32,188.5l2100.34 1639.52c311.8,258.49 963.56,907.82 1414.52,962.07z"/>
   <path class="fil2" d="M3800.45 6807.95l0 -309.31c-450.96,-54.25 -1102.72,-703.58 -1414.52,-962.07l-2100.34 -1639.52c-83.52,-71.59 -127.9,-134.59 -215.32,-188.5l58.71 326.39c31.69,154.9 183.46,150.86 243.21,283.55l235.94 175.82c254.29,132.55 1934.85,1521.85 2335.39,1825.27 212.23,160.77 502.52,471.16 856.93,488.37z"/>
   <path class="fil3" d="M3800.45 4893l0 -719.12c-204.35,146.53 -297.27,213.3 -597.3,110.83 -183.51,-62.68 -383.39,-176.6 -536.77,-279.03 66.1,-94.16 409.2,-217.05 519.05,-249.42 173.21,-66.12 350.69,-208.49 528.62,-233.04 28.19,-10.69 57.03,-23.21 86.4,-37.02l0 -456.25 -49.48 14.47c-18.38,-158.94 -22.24,-174.81 -132.4,-254.36l-492.46 284.24c-2.27,1.16 -94.96,39.9 -97.25,39.91 -93.09,0.58 -36.09,37.47 -66.3,-41.76l-17.24 -880.21 40.15 -27.04c-23.34,-55.04 -20.63,-41.13 -82.31,11.02 -79.83,67.51 -10.93,90.99 6.95,221.49l-8.27 843.46c-144.7,23.82 -239.45,77.84 -316.83,-78.25 -105.09,-212.02 -56.97,-933.49 -66.17,-1097.44 -2.84,-50.69 11.48,-5.43 -13.79,-75.08 -66.24,43.63 -25.62,-1.05 -57.88,63.53 -69.08,138.33 -25.83,1537.46 -15.63,1663.02l242.36 -75.82c-69.07,87.3 -183.23,168.24 -296.96,106.64 -59.76,-290.42 -6.23,-890.76 -17.03,-1236.13 -5.15,-165.1 -40.72,-437.6 83.06,-539.1 47.14,-38.65 131.82,-80.91 193.9,-113.37 219.92,-114.98 151.3,-78.14 175.04,-136.68 -7.38,1.04 -17.07,3.47 -21.83,4.84 -4.69,1.34 -15.71,3.52 -21.39,5.32 -7.21,2.29 -32.44,10.73 -40.36,13.94 -17.57,7.14 -42,21.13 -55.29,27.98 -450.31,231.93 -390.19,192.79 -392.3,821.17 -0.92,273.48 -16.4,1156.28 69.61,1321.26l112.62 -2.83 -101.99 78.59c-176.9,219.68 243.61,355.04 527.72,493.3 179.42,87.32 724.63,407.08 862.54,421.62 15.66,-7.54 32.02,-12.02 49.21,-14.68z"/>
   <path class="fil4" d="M3800.45 1793.94l0 -476.65c-311.18,146.02 -675.06,360.36 -837.16,412.67l-36.32 80.3c333.49,-82.41 372.73,49.64 664.43,55.29l209.05 -71.61z"/>
   <path class="fil5" d="M2890.7 1767.18c-124.96,25.1 -266.99,142.4 -385.65,223.22 25.27,69.65 10.95,24.39 13.79,75.08 9.2,163.95 -38.92,885.42 66.17,1097.44 77.38,156.09 172.13,102.07 316.83,78.25l8.27 -843.46c-17.88,-130.5 -86.78,-153.98 -6.95,-221.49 61.68,-52.15 58.97,-66.06 82.31,-11.02l596.57 -242.41 9.36 -57.24c-291.7,-5.65 -330.94,-137.7 -664.43,-55.29l36.32 -80.3c-73.49,6 -45.49,-26.73 -72.59,37.22z"/>
   <path class="fil6" d="M3800.45 3863.19l0 -376.99c-29.37,13.81 -58.21,26.33 -86.4,37.02 -83.74,108.91 -199.85,140.81 -329.63,206.5l-102.31 90.78c8.84,3 37.89,4.76 45.02,6.13 13.35,2.57 92.61,-3.13 162.65,58.52 -273.32,71.51 -271.31,191.18 -392.46,142.05l-46.73 67.87c233.4,55.39 266.26,22.15 481.75,-84.84 84.34,-41.87 173.79,-103.13 268.11,-147.04z"/>
   <path class="fil7" d="M3023.96 2930.87l11.02 85.81c203.16,-46.48 377.24,-170.6 500.17,-278.52 3.04,-69.58 8.92,-43.45 -18.55,-93.21 -101.05,-31.38 -209.79,-119.82 -345.69,-177.13 -55.04,-59.1 -51.51,47.82 -48.67,-96.35 24.81,-27.18 28.85,-46.3 66.41,-54.13 138.22,-28.79 61.44,8.96 90.2,33.17 77.12,56.55 59.03,64.52 161.2,124.64 95.02,55.91 110.21,54.67 123.8,139.25 44.5,-27.19 18.13,-7.74 77.6,-27.85l0.15 -49.94c64.46,-241.21 100.65,-254.62 127.6,-564.53l-58.25 -11.8 -596.25 262c-170.86,100.18 -107.94,384.19 -90.74,708.59z"/>
   <path class="fil8" d="M3800.45 1209.3l0 -97.92 -1196.33 596.5c-448.18,232.16 -413.49,164.24 -410.35,915.89 1.44,346.7 -38.46,1003.6 53.37,1269.74l103.21 23.49c-86.01,-164.98 -70.53,-1047.78 -69.61,-1321.26 2.11,-628.38 -58.01,-589.24 392.3,-821.17 13.29,-6.85 37.72,-20.84 55.29,-27.98 7.92,-3.21 33.15,-11.65 40.36,-13.94 5.68,-1.8 16.7,-3.98 21.39,-5.32 4.76,-1.37 14.45,-3.8 21.83,-4.84 5.37,-4.69 13.23,-10.34 16.97,-13.06l971.57 -500.13z"/>
   <path class="fil9" d="M3800.45 1317.29l0 -107.99 -971.57 500.13c-3.74,2.72 -11.6,8.37 -16.97,13.06 138.46,25.05 33.38,-7.92 78.79,44.69 27.1,-63.95 -0.9,-31.22 72.59,-37.22 162.1,-52.31 525.98,-266.65 837.16,-412.67z"/>
   <path class="fil10" d="M3800.45 4173.88l0 -83.07c-158.39,88.9 -349.2,174.89 -434.51,87.77l7.54 -27.31c33.34,-53.88 274.32,-170.58 426.97,-244.45l0 -43.63c-94.32,43.91 -183.77,105.17 -268.11,147.04 -215.49,106.99 -248.35,140.23 -481.75,84.84l46.73 -67.87c-102.29,3.49 -13.59,-55.86 -103.58,17.37 -62.37,-13.01 -122.99,-25.67 -162.93,-75.18 110.42,-76.04 206.17,-83.65 321.02,-178.63 4.23,-3.5 13.84,-6.27 16.85,-16.86 3.08,-10.8 11.25,-11.67 16.75,-17.64 -109.85,32.37 -452.95,155.26 -519.05,249.42 153.38,102.43 353.26,216.35 536.77,279.03 300.03,102.47 392.95,35.7 597.3,-110.83z"/>
   <path class="fil11" d="M3800.45 3029.95l0 -662.64c-32.93,133.05 -121.59,301.09 -181.88,422.75 110.16,79.55 114.02,95.42 132.4,254.36l49.48 -14.47z"/>
   <path class="fil12" d="M3800.45 4090.81l0 -183.99c-152.65,73.87 -393.63,190.57 -426.97,244.45l-7.54 27.31c85.31,87.12 276.12,1.13 434.51,-87.77z"/>
   <path class="fil13" d="M2505.05 1990.4c118.66,-80.82 260.69,-198.12 385.65,-223.22 -45.41,-52.61 59.67,-19.64 -78.79,-44.69 -23.74,58.54 44.88,21.7 -175.04,136.68 -62.08,32.46 -146.76,74.72 -193.9,113.37 -123.78,101.5 -88.21,374 -83.06,539.1 10.8,345.37 -42.73,945.71 17.03,1236.13 113.73,61.6 227.89,-19.34 296.96,-106.64l-242.36 75.82c-10.2,-125.56 -53.45,-1524.69 15.63,-1663.02 32.26,-64.58 -8.36,-19.9 57.88,-63.53z"/>
   <path class="fil14" d="M3800.45 1913.72l0 -80.27c-34.2,15.24 -99.23,43.18 -218.41,89.34l-596.57 242.41 -40.15 27.04 15.98 815.86 1.26 64.35c-1.85,-8.37 -9.91,-39.16 -3.44,-57.82 0.78,-2.26 1.51,-4.44 2.18,-6.53 25.97,-81.04 -29.49,-38.8 62.66,-77.23 -17.2,-324.4 -80.12,-608.41 90.74,-708.59l596.25 -262c6.2,-4.44 15.51,-8.2 20.23,-10.67l61.57 -30.95c2.87,-1.94 5.42,-3.57 7.7,-4.94z"/>
   <path class="fil15" d="M3185.43 3756.26c-5.5,5.97 -13.67,6.84 -16.75,17.64 -3.01,10.59 -12.62,13.36 -16.85,16.86 -114.85,94.98 -210.6,102.59 -321.02,178.63 39.94,49.51 100.56,62.17 162.93,75.18 89.99,-73.23 1.29,-13.88 103.58,-17.37 121.15,49.13 119.14,-70.54 392.46,-142.05 -70.04,-61.65 -149.3,-55.95 -162.65,-58.52 -7.13,-1.37 -36.18,-3.13 -45.02,-6.13l102.31 -90.78c129.78,-65.69 245.89,-97.59 329.63,-206.5 -177.93,24.55 -355.41,166.92 -528.62,233.04z"/>
   <path class="fil16" d="M3800.45 2367.31l0 -206.71c-15.25,142.73 -59.38,310.15 -158.85,376.01l-0.15 49.94 -27.28 110.36 -79.02 41.25c-122.93,107.92 -297.01,232.04 -500.17,278.52l-11.02 -85.81c-94.53,39.42 -33.73,-6.05 -64.84,83.76 -6.47,18.66 1.59,49.45 3.44,57.82 30.21,79.23 -26.79,42.34 66.3,41.76 2.29,-0.01 94.98,-38.75 97.25,-39.91l492.46 -284.24c60.29,-121.66 148.95,-289.7 181.88,-422.75z"/>
   <path class="fil8" d="M3800.45 4960.13l0 -67.13c-17.19,2.66 -33.55,7.14 -49.21,14.68 2.31,2.9 7.01,29.64 49.21,52.45z"/>
   <path class="fil17" d="M3800.45 2160.6l0 -246.88c-2.28,1.37 -4.83,3 -7.7,4.94l-61.57 30.95c-4.72,2.47 -14.03,6.23 -20.23,10.67l58.25 11.8c-26.95,309.91 -63.14,323.32 -127.6,564.53 99.47,-65.86 143.6,-233.28 158.85,-376.01zm0 -327.15l0 -39.51 -209.05 71.61 -9.36 57.24c119.18,-46.16 184.21,-74.1 218.41,-89.34z"/>
   <path class="fil16" d="M3170.91 2467.82c135.9,57.31 244.64,145.75 345.69,177.13l47.25 -30.55c-13.59,-84.58 -28.78,-83.34 -123.8,-139.25 -102.17,-60.12 -84.08,-68.09 -161.2,-124.64l-132.74 -5.84 24.8 123.15z"/>
   <path class="fil18" d="M3563.85 2614.4l-47.25 30.55c27.47,49.76 21.59,23.63 18.55,93.21l79.02 -41.25 27.28 -110.36c-59.47,20.11 -33.1,0.66 -77.6,27.85z"/>
   <path class="fil19" d="M3170.91 2467.82l-24.8 -123.15 132.74 5.84c-28.76,-24.21 48.02,-61.96 -90.2,-33.17 -37.56,7.83 -41.6,26.95 -66.41,54.13 -2.84,144.17 -6.37,37.25 48.67,96.35z"/>
  </g>
 </g>
</svg>
