<?xml version="1.0" encoding="UTF-8"?>
<!DOCTYPE svg PUBLIC "-//W3C//DTD SVG 1.1//EN" "http://www.w3.org/Graphics/SVG/1.1/DTD/svg11.dtd">
<!-- Creator: CorelDRAW -->
<svg xmlns="http://www.w3.org/2000/svg" xml:space="preserve" width="38.2166mm" height="68.088mm" version="1.1" style="shape-rendering:geometricPrecision; text-rendering:geometricPrecision; image-rendering:optimizeQuality; fill-rule:evenodd; clip-rule:evenodd"
viewBox="0 0 3821.66 6808.8"
 xmlns:xlink="http://www.w3.org/1999/xlink"
 xmlns:xodm="http://www.corel.com/coreldraw/odm/2003">
 <defs>
  <style type="text/css">
   <![CDATA[
    .fil12 {fill:#0C1315}
    .fil0 {fill:#192527}
    .fil3 {fill:#212A2E}
    .fil13 {fill:#2B1917}
    .fil1 {fill:#374145}
    .fil10 {fill:#5F281E}
    .fil7 {fill:#712F2E}
    .fil9 {fill:#883A37}
    .fil4 {fill:#8D6F4D}
    .fil8 {fill:#A64E42}
    .fil15 {fill:#AC5445}
    .fil5 {fill:#AC8757}
    .fil14 {fill:#B39569}
    .fil11 {fill:#B9945A}
    .fil6 {fill:#C76050}
    .fil2 {fill:#D2AD73}
   ]]>
  </style>
 </defs>
 <g id="Слой_x0020_1">
  <metadata id="CorelCorpID_0Corel-Layer"/>
  <g id="_2323928208864">
   <path class="fil0" d="M3810.56 6205.71l0 -1271.68c-437.46,-225.66 -287.64,45.23 -579.64,118.31 -136.78,34.24 -1404.45,-342.51 -1577.02,-410.11 188.86,88.99 1550.68,1180.82 1805.99,1390.83 134.12,110.33 248.05,161.67 350.67,172.65zm0 -4635.25l0 -1277.83c-204.62,11.6 -367.67,175.24 -579.15,344.87 -867.04,695.49 -1913.73,1455.75 -2705.46,2128.08 -216.18,183.59 -200.27,264.03 -187.38,598.84 11.25,291.97 163.21,328.9 345.96,471.12 305.72,237.91 616.2,489.98 897.45,714l102.1 -121.66 114.05 -142.46c-72.32,-107.21 -288.79,-253.33 -415.38,-335.71l-151.67 -107.04c-177.31,23.58 -140.47,-77.76 -150.4,-251.42 48.47,-112.96 527.64,-345.98 635.1,-385.82 -26.43,-266.3 -65.42,-261.63 146.94,-394.63 190.83,-94.84 497.18,-318.67 701.51,-444.82 176.05,-108.7 784.38,-514.41 1246.33,-795.52z"/>
   <path class="fil1" d="M3810.56 6497.44l0 -291.73c-102.62,-10.98 -216.55,-62.32 -350.67,-172.65 -255.31,-210.01 -1617.13,-1301.84 -1805.99,-1390.83l-71.92 -92.69c-281.25,-224.02 -591.73,-476.09 -897.45,-714 -182.75,-142.22 -334.71,-179.15 -345.96,-471.12 -12.89,-334.81 -28.8,-415.25 187.38,-598.84 791.73,-672.33 1838.42,-1432.59 2705.46,-2128.08 211.48,-169.63 374.53,-333.27 579.15,-344.87l0 -276.49c-420.85,37.54 -783.11,432.3 -1029.78,627.78l-2155.9 1689.76c-558.23,433.27 -645.09,363.41 -613.33,1339.61 39.61,17.93 410.34,304.73 497.58,372.83 659.3,514.68 1710.59,1311.1 2304.35,1823.42 482.52,416.33 755.65,610.19 997.08,627.9z"/>
   <path class="fil2" d="M3810.56 4191.65l0 -271.67c-262.4,-158.71 -605.51,-377.67 -676.59,-448.37l-29.14 -37.49c140.2,-82.7 145.1,-67.12 282.87,24.04 63.83,42.24 243.5,160.06 422.86,272.76l0 -130.91 -470.87 -309.36c232.64,-226.47 309.61,-214.37 470.87,-108.2l0 -421.93 -664.37 436.23c-91.48,57.06 -171.94,109.87 -279.78,177.83 -105.16,66.27 -212.43,108.13 -162.01,213.92 302,-22.1 607.48,265.64 794.29,397.45 85.87,60.59 199.22,132.41 311.87,205.7z"/>
   <path class="fil3" d="M3810.56 6808l0 -310.56c-241.43,-17.71 -514.56,-211.57 -997.08,-627.9 -593.76,-512.32 -1645.05,-1308.74 -2304.35,-1823.42 -87.24,-68.1 -457.97,-354.9 -497.58,-372.83 47.77,527.14 263.69,424.12 335.79,604.46l374.21 282.07c155.05,61.54 1845.59,1436.93 2226.27,1739.45 411.48,326.98 639.89,496.18 862.74,508.73z"/>
   <path class="fil4" d="M3810.56 4654.12l0 -462.47c-112.65,-73.29 -226,-145.11 -311.87,-205.7 -186.81,-131.81 -492.29,-419.55 -794.29,-397.45 -102.37,-40.88 -184.69,-215.32 -200.73,-346.81 -7.92,-64.93 -1.42,-30.58 6.84,-74.38l22.5 -41.99c-127.16,-35.51 -204.64,-137.55 -284.94,-214.68l-385.35 -99.84c-212.36,133 -173.37,128.33 -146.94,394.63 41.14,75.85 25.05,37.25 56.82,124.11l2.16 151.36 27.06 128.25c119.37,230.87 149.32,230.26 307.58,424.93l284.05 65.38 193.22 -125.21c3.51,-5.6 11.6,-16.56 18.27,-24.14 291.64,186.8 553.18,315.28 856.68,492.57 102.76,60.03 223.52,143.73 348.94,211.44zm-1873.87 -1116.52c-81.92,-464.45 411.46,-385.65 491.42,43.6 79.26,425.51 -414.45,392.73 -491.42,-43.6z"/>
   <path class="fil5" d="M3810.56 2760.52l0 -431.28 -1277.55 796.08 -22.5 41.99c-8.26,43.8 -14.76,9.45 -6.84,74.38 16.04,131.49 98.36,305.93 200.73,346.81 -50.42,-105.79 56.85,-147.65 162.01,-213.92 107.84,-67.96 188.3,-120.77 279.78,-177.83l664.37 -436.23z"/>
   <path class="fil6" d="M3810.56 2010.51l0 -440.05c-461.95,281.11 -1070.28,686.82 -1246.33,795.52 -204.33,126.15 -510.68,349.98 -701.51,444.82l385.35 99.84c92.53,-22.11 901.33,-498.47 1562.49,-900.13z"/>
   <path class="fil7" d="M3810.56 4858.89l0 -204.77c-125.42,-67.71 -246.18,-151.41 -348.94,-211.44 -303.5,-177.29 -565.04,-305.77 -856.68,-492.57 -6.67,7.58 -14.76,18.54 -18.27,24.14l-193.22 125.21c76.73,154.98 -13.5,40.63 140.73,125.46 38.62,21.24 101.2,41.87 141.96,61.97 120.19,59.26 164.96,110.85 304.96,122.43 140.59,23.98 617.13,325.34 754.14,404.47 26.88,15.52 51.63,30.6 75.32,45.1z"/>
   <path class="fil8" d="M3810.56 2329.24l0 -318.73c-661.16,401.66 -1469.96,878.02 -1562.49,900.13 80.3,77.13 157.78,179.17 284.94,214.68l1277.55 -796.08z"/>
   <path class="fil9" d="M1798.13 4285.42l-114.05 142.46c139.06,96.06 1276.07,391.06 1497.07,378.04l133.25 -172.06 -333.3 -224.54c-140,-11.58 -184.77,-63.17 -304.96,-122.43 -40.76,-20.1 -103.34,-40.73 -141.96,-61.97 -154.23,-84.83 -64,29.52 -140.73,-125.46l-284.05 -65.38c-29.58,95.65 10.74,16.27 -55.54,81.06 -3.95,3.86 -64.06,46.09 -82.43,58.34 -65.62,43.74 -96.14,62.49 -173.3,111.94z"/>
   <path class="fil10" d="M3810.56 4934.03l0 -75.14c-23.69,-14.5 -48.44,-29.58 -75.32,-45.1 -137.01,-79.13 -613.55,-380.49 -754.14,-404.47l333.3 224.54 -133.25 172.06c-221,13.02 -1358.01,-281.98 -1497.07,-378.04l-102.1 121.66 71.92 92.69c172.57,67.6 1440.24,444.35 1577.02,410.11 292,-73.08 142.18,-343.97 579.64,-118.31z"/>
   <path class="fil11" d="M3810.56 3600.01l0 -417.56c-161.26,-106.17 -238.23,-118.27 -470.87,108.2l470.87 309.36z"/>
   <path class="fil12" d="M1231.08 3842.67l151.67 107.04c126.59,82.38 343.06,228.5 415.38,335.71 77.16,-49.45 107.68,-68.2 173.3,-111.94 18.37,-12.25 78.48,-54.48 82.43,-58.34 66.28,-64.79 25.96,14.59 55.54,-81.06 -158.26,-194.67 -188.21,-194.06 -307.58,-424.93l-570.74 233.52z"/>
   <path class="fil13" d="M1936.69 3537.6c76.97,436.33 570.68,469.11 491.42,43.6 -79.96,-429.25 -573.34,-508.05 -491.42,-43.6z"/>
   <path class="fil14" d="M3810.56 3919.98l0 -189.06c-179.36,-112.7 -359.03,-230.52 -422.86,-272.76 -137.77,-91.16 -142.67,-106.74 -282.87,-24.04l29.14 37.49c71.08,70.7 414.19,289.66 676.59,448.37z"/>
   <path class="fil7" d="M1080.68 3591.25c9.93,173.66 -26.91,275 150.4,251.42l570.74 -233.52 -27.06 -128.25 -658.88 290.84c11.51,-146.22 -8.58,-109.15 84.94,-165.88 117.31,-71.15 312.21,-89.66 401.48,-195.19 -174.97,59.52 -342.52,173.38 -521.62,180.58z"/>
   <path class="fil9" d="M1602.3 3410.67c-89.27,105.53 -284.17,124.04 -401.48,195.19 -93.52,56.73 -73.43,19.66 -84.94,165.88l658.88 -290.84 -2.16 -151.36c-1.52,0.42 -101.68,28.57 -111.56,32.88 -133.33,58.27 -15.49,-1.78 -58.74,48.25z"/>
   <path class="fil15" d="M1080.68 3591.25c179.1,-7.2 346.65,-121.06 521.62,-180.58 43.25,-50.03 -74.59,10.02 58.74,-48.25 9.88,-4.31 110.04,-32.46 111.56,-32.88 -31.77,-86.86 -15.68,-48.26 -56.82,-124.11 -107.46,39.84 -586.63,272.86 -635.1,385.82z"/>
  </g>
 </g>
</svg>
