<?xml version="1.0" encoding="UTF-8"?>
<!DOCTYPE svg PUBLIC "-//W3C//DTD SVG 1.1//EN" "http://www.w3.org/Graphics/SVG/1.1/DTD/svg11.dtd">
<!-- Creator: CorelDRAW -->
<svg xmlns="http://www.w3.org/2000/svg" xml:space="preserve" width="38.8348mm" height="68.1238mm" version="1.1" style="shape-rendering:geometricPrecision; text-rendering:geometricPrecision; image-rendering:optimizeQuality; fill-rule:evenodd; clip-rule:evenodd"
viewBox="0 0 3883.48 6812.38"
 xmlns:xlink="http://www.w3.org/1999/xlink"
 xmlns:xodm="http://www.corel.com/coreldraw/odm/2003">
 <defs>
  <style type="text/css">
   <![CDATA[
    .fil12 {fill:#0A0D0C}
    .fil0 {fill:#192527}
    .fil3 {fill:#212A2E}
    .fil1 {fill:#374145}
    .fil15 {fill:#504A32}
    .fil10 {fill:#5F281E}
    .fil8 {fill:#712F2E}
    .fil4 {fill:#8D6F4D}
    .fil13 {fill:#924141}
    .fil9 {fill:#A64E42}
    .fil5 {fill:#AC8757}
    .fil14 {fill:#B39569}
    .fil11 {fill:#B9945A}
    .fil6 {fill:#C76050}
    .fil7 {fill:#D0B88B}
    .fil2 {fill:#D2AD73}
   ]]>
  </style>
 </defs>
 <g id="Слой_x0020_1">
  <metadata id="CorelCorpID_0Corel-Layer"/>
  <g id="_2323936653152">
   <path class="fil0" d="M2.88 1567.91c252.3,-153.35 459.99,-268.83 527.88,-277.05 160.8,-19.47 318.25,76.02 342.04,167.29 131.41,84.32 118.95,57.65 179.35,214.61 79.71,91.95 73.17,173.29 31.43,294.41 -28.3,84.63 -5.76,33.34 -21.16,101.41 503.92,-207.04 580.01,-82.37 973.55,165.22 191.42,120.43 755.44,414.63 819.55,553.47 143.44,202.74 83.31,305.05 -44.56,466.37l45.81 139.7c95.36,199.29 -795.39,556.17 -927.39,696.02 41.83,270.93 95.09,614.44 -203.49,653.48 -51.15,6.69 -167.27,23.76 -233.24,85.2 -148.23,-56.1 14.52,-123.37 -289.39,68.33 -138.74,87.52 -212.91,198.69 -418.47,187.71 -110.97,9.73 -218.11,93.16 -379.73,53.85 -111.95,-27.23 -249.27,-115.76 -336.35,-164.2 -23.32,-12.97 -45.18,-24.74 -65.83,-35.47l0 1269.12c245.34,22.56 426.52,-185.45 666.55,-366.47 322.16,-242.97 622.74,-447.21 936.74,-681.01 300.3,-223.59 546.91,-494.92 855.65,-736.16 862.08,-673.62 1131.06,-675.39 1068.89,-1346.73 -31.11,-335.88 -832.29,-808.58 -1270.43,-1172.66 -590.63,-490.79 -1198.83,-917.96 -1798.92,-1410.24 -184.28,-151.17 -329.71,-206 -458.48,-200.6l0 1274.4z"/>
   <path class="fil1" d="M2.88 293.51c128.77,-5.4 274.2,49.43 458.48,200.6 600.09,492.28 1208.29,919.45 1798.92,1410.24 438.14,364.08 1239.32,836.78 1270.43,1172.66 62.17,671.34 -206.81,673.11 -1068.89,1346.73 -308.74,241.24 -555.35,512.57 -855.65,736.16 -314,233.8 -614.58,438.04 -936.74,681.01 -240.03,181.02 -421.21,389.03 -666.55,366.47l0 291.48c289.94,17.78 536.12,-218.93 1048.24,-629.52 304.9,-244.44 609.49,-504.84 928.65,-730.65l1837.18 -1462.38 -39.69 321.75c135.06,-164.32 85.02,-627.52 73.97,-884.75 -14.3,-332.8 -172.27,-460.4 -361.39,-603.67 -464.26,-351.72 -2969.94,-2408.83 -3273.82,-2477.91 -72.47,-16.47 -143.6,-20.63 -213.14,-15l0 276.78z"/>
   <path class="fil2" d="M432.93 3977.95c-87.26,103.44 -17.41,59.67 -129.81,117.77 -28.74,-10.72 -150.84,-80.74 -300.24,-171l0 271.96c143.68,93.58 285.4,189.26 366.64,266.82 25.21,-164.54 112.69,-152.66 267.56,-239.9 529.86,-298.48 1505.79,-947.83 1939.63,-1166.59 151.58,-76.44 241.14,-91.79 278.81,-269.74 -64.11,-138.84 -628.13,-433.04 -819.55,-553.47 -393.54,-247.59 -469.63,-372.26 -973.55,-165.22l-94.54 55.46 -965 633.63 0 429.87c45.6,30.28 97.97,67.72 162.37,109.23 159.81,103 530.79,354.62 686.14,400.53l-331.54 247.41 -516.97 -339.65 0 130.74c195.16,122.52 388.41,237.9 430.05,242.15zm837.56 -731.29c-167.67,-121.98 -763.71,-463.68 -810.28,-542.86 143.67,-98.7 189.49,-24.8 308.46,58.88 86.27,60.68 189.09,125.47 275.23,183.21 163,109.25 350.93,217.13 511.32,328.2 -115.29,136.34 -146.83,72.9 -284.73,-27.43zm-445.78 -787.06c76.71,-104.45 164.95,-154.94 284.15,-237.68 379.86,-263.66 873.92,169.92 966.96,300.27 -140.52,59.89 -504.65,333.57 -646.62,285.04 -187.47,-64.09 -365.54,-292.46 -604.49,-347.63z"/>
   <path class="fil3" d="M2.88 6809.33c227.47,9.92 450.8,-143.41 858.98,-458.93 474.81,-367.01 1886.4,-1517.95 2254.71,-1761.67l472.27 -348.59 188.42 -242.08 39.69 -321.75 -1837.18 1462.38c-319.16,225.81 -623.75,486.21 -928.65,730.65 -512.12,410.59 -758.3,647.3 -1048.24,629.52l0 310.47z"/>
   <path class="fil4" d="M2.88 4658.44l0 -461.76c143.68,93.58 285.4,189.26 366.64,266.82 36.24,36.82 57.21,64.19 109.29,103.58 72.39,54.75 16.79,45.65 119.32,60.99l-13.41 63.09c-169.02,139.6 -381.11,74.68 -581.84,-32.72z"/>
   <path class="fil5" d="M2.88 2757.67l965 -633.63c13.81,-106.8 3.03,-89.99 115.7,-156.87 41.74,-121.12 48.28,-202.46 -31.43,-294.41l-1049.27 653.83 0 431.08z"/>
   <path class="fil6" d="M2.88 2007.95c468.73,-284.82 861.78,-531.2 869.92,-549.8 -23.79,-91.27 -181.24,-186.76 -342.04,-167.29 -67.89,8.22 -275.58,123.7 -527.88,277.05l0 440.04z"/>
   <path class="fil7" d="M369.52 4463.5c36.24,36.82 57.21,64.19 109.29,103.58 72.39,54.75 16.79,45.65 119.32,60.99 387.4,-279.37 1167.17,-715.35 1649.7,-1021.53l563.13 -352.9c127.87,-161.32 188,-263.63 44.56,-466.37 -37.67,177.95 -127.23,193.3 -278.81,269.74 -433.84,218.76 -1409.77,868.11 -1939.63,1166.59 -154.87,87.24 -242.35,75.36 -267.56,239.9z"/>
   <path class="fil8" d="M584.72 4691.16c-169.02,139.6 -381.11,74.68 -581.84,-32.72l0 205.23c102.69,62.87 186.77,114.47 340.27,143.73 300.86,57.35 307.76,-13.22 505.01,-125.75 4.92,-206.82 344.36,-316.35 494.14,-414.07 200.11,-130.57 373.65,-258.93 587.08,-378.22 132,-139.85 1022.75,-496.73 927.39,-696.02 -441.03,156.76 -1217.59,820.76 -1687.09,1047.85 -172.58,83.47 -405.09,237.94 -541.26,253.82l-43.7 -3.85z"/>
   <path class="fil9" d="M2.88 2326.59l1049.27 -653.83c-60.4,-156.96 -47.94,-130.29 -179.35,-214.61 -8.14,18.6 -401.19,264.98 -869.92,549.8l0 318.64z"/>
   <path class="fil10" d="M2.88 4938.26c20.65,10.73 42.51,22.5 65.83,35.47 87.08,48.44 224.4,136.97 336.35,164.2 161.62,39.31 268.76,-44.12 379.73,-53.85l63.37 -202.43c-197.25,112.53 -204.15,183.1 -505.01,125.75 -153.5,-29.26 -237.58,-80.86 -340.27,-143.73l0 74.59z"/>
   <path class="fil11" d="M824.71 2459.6c238.95,55.17 417.02,283.54 604.49,347.63 141.97,48.53 506.1,-225.15 646.62,-285.04 -93.04,-130.35 -587.1,-563.93 -966.96,-300.27 -119.2,82.74 -207.44,133.23 -284.15,237.68z"/>
   <path class="fil12" d="M848.16 4881.65l-63.37 202.43c205.56,10.98 279.73,-100.19 418.47,-187.71 303.91,-191.7 141.16,-124.43 289.39,-68.33 65.97,-61.44 182.09,-78.51 233.24,-85.2 298.58,-39.04 245.32,-382.55 203.49,-653.48 -213.43,119.29 -386.97,247.65 -587.08,378.22 -149.78,97.72 -489.22,207.25 -494.14,414.07z"/>
   <path class="fil11" d="M519.85 3944.71l331.54 -247.41c-155.35,-45.91 -526.33,-297.53 -686.14,-400.53 -64.4,-41.51 -116.77,-78.95 -162.37,-109.23l0 417.52 516.97 339.65z"/>
   <path class="fil13" d="M598.13 4628.07l-13.41 63.09 43.7 3.85c136.17,-15.88 368.68,-170.35 541.26,-253.82 469.5,-227.09 1246.06,-891.09 1687.09,-1047.85l-45.81 -139.7 -563.13 352.9c-482.53,306.18 -1262.3,742.16 -1649.7,1021.53z"/>
   <path class="fil14" d="M303.12 4095.72c112.4,-58.1 42.55,-14.33 129.81,-117.77 -41.64,-4.25 -234.89,-119.63 -430.05,-242.15l0 188.92c149.4,90.26 271.5,160.28 300.24,171z"/>
   <path class="fil14" d="M460.21 2703.8c46.57,79.18 642.61,420.88 810.28,542.86 137.9,100.33 169.44,163.77 284.73,27.43 -160.39,-111.07 -348.32,-218.95 -511.32,-328.2 -86.14,-57.74 -188.96,-122.53 -275.23,-183.21 -118.97,-83.68 -164.79,-157.58 -308.46,-58.88z"/>
   <path class="fil15" d="M967.88 2124.04l94.54 -55.46c15.4,-68.07 -7.14,-16.78 21.16,-101.41 -112.67,66.88 -101.89,50.07 -115.7,156.87z"/>
  </g>
 </g>
</svg>
