<?xml version="1.0" encoding="UTF-8"?>
<!DOCTYPE svg PUBLIC "-//W3C//DTD SVG 1.1//EN" "http://www.w3.org/Graphics/SVG/1.1/DTD/svg11.dtd">
<!-- Creator: CorelDRAW -->
<svg xmlns="http://www.w3.org/2000/svg" xml:space="preserve" width="38.2314mm" height="68.5278mm" version="1.1" style="shape-rendering:geometricPrecision; text-rendering:geometricPrecision; image-rendering:optimizeQuality; fill-rule:evenodd; clip-rule:evenodd"
viewBox="0 0 3823.14 6852.78"
 xmlns:xlink="http://www.w3.org/1999/xlink"
 xmlns:xodm="http://www.corel.com/coreldraw/odm/2003">
 <defs>
  <style type="text/css">
   <![CDATA[
    .fil4 {fill:#0C1315}
    .fil0 {fill:#192527}
    .fil3 {fill:#212A2E}
    .fil1 {fill:#394246}
    .fil9 {fill:#7B4E23}
    .fil17 {fill:#8C4E30}
    .fil15 {fill:#8D6F4D}
    .fil8 {fill:#976A36}
    .fil18 {fill:#987954}
    .fil7 {fill:#A5A876}
    .fil6 {fill:#AA773B}
    .fil12 {fill:#AAA58B}
    .fil5 {fill:#B68845}
    .fil13 {fill:#B9945A}
    .fil16 {fill:#C4903F}
    .fil14 {fill:#C59149}
    .fil11 {fill:#C59857}
    .fil10 {fill:#CBA655}
    .fil2 {fill:#D8B874}
   ]]>
  </style>
 </defs>
 <g id="Слой_x0020_1">
  <metadata id="CorelCorpID_0Corel-Layer"/>
  <g id="_2324530218960">
   <path class="fil0" d="M3812.78 6244.91l0 -963.38c-65.52,2.65 -135.04,-17.97 -211.63,-73.18l-147.44 120.05c-213.76,210.96 -364,235.69 -390.8,417.31 149.79,131.59 270.01,239.48 409.69,350.34 95.73,75.97 207.95,146.84 340.18,148.86zm0 -4743.76l0 -1185.95c-95.52,0.38 -195.82,28.14 -299.81,96.47l-2442.43 1931.84c-184.87,147.79 -702.21,469.69 -730.84,702.35 -78.34,636.55 140.11,670.27 484.95,937.96 267.78,207.86 562.62,480.24 837.25,637.2l2.13 -749.46c-152.43,-242.49 -309.78,-683.8 38.46,-827.85 83.82,-123.94 1048.74,-789.29 1252.59,-933.26 221.62,-156.52 420.96,-302.59 636.5,-457.91 84.13,-60.63 154.12,-114.32 221.2,-151.39z"/>
   <path class="fil1" d="M3812.78 6545.33l0 -300.42c-132.23,-2.02 -244.45,-72.89 -340.18,-148.86 -139.68,-110.86 -259.9,-218.75 -409.69,-350.34 -182.75,-114.03 -1358.85,-1014.77 -1401.01,-1124.69 -274.63,-156.96 -569.47,-429.34 -837.25,-637.2 -344.84,-267.69 -563.29,-301.41 -484.95,-937.96 28.63,-232.66 545.97,-554.56 730.84,-702.35l2442.43 -1931.84c103.99,-68.33 204.29,-96.09 299.81,-96.47l0 -304.12c-255.27,22.81 -567.96,236.14 -1149.98,714.12 -353.22,290.09 -715.61,569.4 -1082.78,856.92 -373.77,292.7 -713.89,568.15 -1079.67,860.79 -171.86,137.51 -388.63,239.39 -458.56,494.48 -40.07,146.17 -47.28,783.76 -14.73,916.55l61.86 -149.06c75.8,115.75 1575,1289.03 1817.39,1487.36l924.38 734.57c524.63,413.67 734.83,631.52 982.09,618.52z"/>
   <path class="fil2" d="M3812.78 4408.18l0 -430.29c-191.62,-73.78 -396.24,-239.89 -526.68,-333.85 -93.04,-67.01 -202.72,-134.24 -296.59,-196.35 -463.13,-306.45 -201.08,-61.85 -304.2,-301.18 212.82,18.09 752.88,441.64 966.27,581.88 75.46,49.59 125.25,76.45 161.2,98.32l0 -259.52c-66.05,-47.43 -135.12,-96.72 -206.03,-139.82l-578.45 -381.41c-5.12,-4.99 -13.91,-16 -17.96,-20.21 -4.09,-4.25 -11.96,-13.74 -17.53,-20.94 98.07,-79.22 44.27,-110.63 310.96,87.03 86.69,64.27 217.07,141.97 318.1,210.24 73.29,49.52 130.69,88.78 190.91,129.8l0 -294.48c-79.52,-51.63 -155.29,-98.93 -224.2,-149.58 -65.52,-48.16 -110.77,-73.43 -147.26,-101.75l-123.32 -136.7c54.45,-35.39 273.96,91.86 494.78,236.54l0 -266.53c-16.44,-9.29 -34.38,-20.01 -59.63,-36.74 -147.1,-97.44 -98.92,-59.31 -143.82,-161.26 79.67,-36.99 144.88,-24.05 203.45,8.38l0 -671.24c-671.94,451.6 -1696.27,1296.4 -1897.87,1281.71 34.71,41.96 37.68,48.33 67.05,123.97l1447.98 1005.31c187.2,130.88 254.93,186.35 382.84,138.67z"/>
   <path class="fil3" d="M27.06 3853.94c67.43,343.31 318.64,350.04 365.19,490.73l141.12 106.71c233.17,113.5 589.53,435.03 802.24,609.21 435.18,356.37 2072.3,1741.05 2383.7,1780.47 31.89,4.04 63.03,5.9 93.47,5.85l0 -301.58c-247.26,13 -457.46,-204.85 -982.09,-618.52l-924.38 -734.57c-242.39,-198.33 -1741.59,-1371.61 -1817.39,-1487.36l-61.86 149.06z"/>
   <path class="fil4" d="M1661.9 4621.02c42.16,109.92 1218.26,1010.66 1401.01,1124.69 26.8,-181.62 177.04,-206.35 390.8,-417.31l147.44 -120.05 -63.32 -74.49c-147.12,-56.42 -193.24,-114.11 -313.4,-197.96l-210.93 -144.15c-56.41,-43.02 -32.51,-25.51 -64.27,-54.17l-770.93 -532.53 -57.15 -27.77 -57.92 -61.98c-106.39,-17.65 -2.34,21.89 -124.32,-45.51l-229.56 -165.43c-4.92,-3.62 -18.98,-4.43 -22.56,-16.33 -3.61,-12.01 -14.89,-11.39 -22.76,-16.47l-2.13 749.46z"/>
   <path class="fil5" d="M3812.78 4659.61l0 -251.43c-127.91,47.68 -195.64,-7.79 -382.84,-138.67l-1447.98 -1005.31c-118.05,-29.79 -124.72,-65.64 -227.94,-69.92 -204.76,-8.49 -173.15,30.65 -189.03,190.73 172.72,-123.11 113.4,-114.52 262.23,-104.22l-23.14 138.98c112.83,55.1 54.49,-15.64 184.47,73.89 135.41,29.83 544.3,349.75 674.79,450.31l1068.03 774.21 81.41 -58.57z"/>
   <path class="fil6" d="M3812.78 1858.52l0 -357.37c-67.08,37.07 -137.07,90.76 -221.2,151.39 -215.54,155.32 -414.88,301.39 -636.5,457.91 -203.85,143.97 -1168.77,809.32 -1252.59,933.26l120.83 47.8c7.26,3.2 17.39,7.32 24.34,10.61 97.05,45.91 37.99,14.55 67.25,38.11 201.6,14.69 1225.93,-830.11 1897.87,-1281.71z"/>
   <path class="fil7" d="M3812.78 4826.09l0 -166.48 -81.41 58.57 -1068.03 -774.21c-73.18,105.34 12.66,53.29 -117.07,59.95 -15.5,0.8 -58.69,-21.25 -73.75,-26.12 -75.29,-24.33 -55.28,-42.61 -167.58,-8.94l44.16 53.15 830.1 560.72c157.06,54.89 194.56,96.56 322.01,177.82 128.9,82.19 175.61,131.4 311.57,65.54z"/>
   <path class="fil8" d="M3812.78 5062.21l0 -107.7c-29.96,11.94 -45.76,25.59 -42.17,66.35 -51.22,-45.48 -77.39,-56.99 -140.83,-106.25 -141.45,-109.81 -363.76,-205.8 -450.58,-331.88l-830.1 -560.72 -17.68 104.67c-130.62,-11.1 -66.52,55.82 -138.9,-28.3l-14.22 106.67 770.93 532.53c179.43,16.46 194.9,103.93 382.09,154.38 100.25,27.02 273.95,125.45 343.1,223.11 31.26,-3.36 78.8,-22.28 138.36,-52.86z"/>
   <path class="fil9" d="M3812.78 5281.53l0 -219.32c-59.56,30.58 -107.1,49.5 -138.36,52.86 -16.94,29.88 40.29,15.44 -66.13,22.98 -68.7,4.87 -66.66,-2.88 -54.48,-9.42 13.01,-6.98 37.56,-12.58 0,0 -4.42,1.48 -9.71,3.22 -15.98,5.23l63.32 74.49c76.59,55.21 146.11,75.83 211.63,73.18z"/>
   <path class="fil10" d="M1664.03 3871.56c7.87,5.08 19.15,4.46 22.76,16.47 3.58,11.9 17.64,12.71 22.56,16.33l229.56 165.43c121.98,67.4 17.93,27.86 124.32,45.51 7.93,-90.14 -164.69,-200.12 -237.3,-288.46 -152.94,-186.08 -134.19,-273.54 -22.02,-397.53l0.17 -9.54 23.14 -138.98c-148.83,-10.3 -89.51,-18.89 -262.23,104.22 15.88,-160.08 -15.73,-199.22 189.03,-190.73 103.22,4.28 109.89,40.13 227.94,69.92 -29.37,-75.64 -32.34,-82.01 -67.05,-123.97 -29.26,-23.56 29.8,7.8 -67.25,-38.11 -6.95,-3.29 -17.08,-7.41 -24.34,-10.61l-120.83 -47.8c-348.24,144.05 -190.89,585.36 -38.46,827.85z"/>
   <path class="fil11" d="M3812.78 3977.89l0 -151.18c-35.95,-21.87 -85.74,-48.73 -161.2,-98.32 -213.39,-140.24 -753.45,-563.79 -966.27,-581.88 103.12,239.33 -158.93,-5.27 304.2,301.18 93.87,62.11 203.55,129.34 296.59,196.35 130.44,93.96 335.06,260.07 526.68,333.85z"/>
   <path class="fil11" d="M3812.78 2719.38l0 -189.62c-58.57,-32.43 -123.78,-45.37 -203.45,-8.38 44.9,101.95 -3.28,63.82 143.82,161.26 25.25,16.73 43.19,27.45 59.63,36.74z"/>
   <path class="fil12" d="M1976.7 3751.61l132.74 124.42 195.5 92.83c112.3,-33.67 92.29,-15.39 167.58,8.94 15.06,4.87 58.25,26.92 73.75,26.12 129.73,-6.66 43.89,45.39 117.07,-59.95 -130.49,-100.56 -539.38,-420.48 -674.79,-450.31 -85.21,121.28 -82.55,128.89 -11.85,257.95z"/>
   <path class="fil13" d="M3812.78 3137.4l0 -151.49c-220.82,-144.68 -440.33,-271.93 -494.78,-236.54l123.32 136.7c36.49,28.32 81.74,53.59 147.26,101.75 68.91,50.65 144.68,97.95 224.2,149.58z"/>
   <path class="fil14" d="M3812.78 3567.19l0 -135.31c-60.22,-41.02 -117.62,-80.28 -190.91,-129.8 -101.03,-68.27 -231.41,-145.97 -318.1,-210.24 -266.69,-197.66 -212.89,-166.25 -310.96,-87.03 5.57,7.2 13.44,16.69 17.53,20.94 4.05,4.21 12.84,15.22 17.96,20.21l578.45 381.41c70.91,43.1 139.98,92.39 206.03,139.82z"/>
   <path class="fil15" d="M3812.78 4954.51l0 -128.42c-135.96,65.86 -182.67,16.65 -311.57,-65.54 -127.45,-81.26 -164.95,-122.93 -322.01,-177.82 86.82,126.08 309.13,222.07 450.58,331.88 63.44,49.26 89.61,60.77 140.83,106.25 -3.59,-40.76 12.21,-54.41 42.17,-66.35z"/>
   <path class="fil16" d="M2063.23 4115.3l57.92 61.98c2.25,-211.62 44.24,-125.98 -11.71,-301.25l-132.74 -124.42c-109.84,-25.96 -102.22,9.69 -155,-132.36 -41.15,-110.73 -24.94,-79.85 -17.79,-189.94 -112.17,123.99 -130.92,211.45 22.02,397.53 72.61,88.34 245.23,198.32 237.3,288.46z"/>
   <path class="fil17" d="M3537.83 5133.86c109.35,-35.13 -80.2,14.86 70.46,4.19 106.42,-7.54 49.19,6.9 66.13,-22.98 -69.15,-97.66 -242.85,-196.09 -343.1,-223.11 -187.19,-50.45 -202.66,-137.92 -382.09,-154.38 31.76,28.66 7.86,11.15 64.27,54.17l210.93 144.15c120.16,83.85 166.28,141.54 313.4,197.96z"/>
   <path class="fil6" d="M2121.15 4177.28l57.15 27.77 14.22 -106.67c72.38,84.12 8.28,17.2 138.9,28.3l17.68 -104.67 -44.16 -53.15 -195.5 -92.83c55.95,175.27 13.96,89.63 11.71,301.25z"/>
   <path class="fil18" d="M1976.7 3751.61c-70.7,-129.06 -73.36,-136.67 11.85,-257.95 -129.98,-89.53 -71.64,-18.79 -184.47,-73.89l-0.17 9.54c-7.15,110.09 -23.36,79.21 17.79,189.94 52.78,142.05 45.16,106.4 155,132.36z"/>
  </g>
 </g>
</svg>
