<?xml version="1.0" encoding="UTF-8"?>
<!DOCTYPE svg PUBLIC "-//W3C//DTD SVG 1.1//EN" "http://www.w3.org/Graphics/SVG/1.1/DTD/svg11.dtd">
<!-- Creator: CorelDRAW -->
<svg xmlns="http://www.w3.org/2000/svg" xml:space="preserve" width="38.8496mm" height="68.546mm" version="1.1" style="shape-rendering:geometricPrecision; text-rendering:geometricPrecision; image-rendering:optimizeQuality; fill-rule:evenodd; clip-rule:evenodd"
viewBox="0 0 3884.96 6854.6"
 xmlns:xlink="http://www.w3.org/1999/xlink"
 xmlns:xodm="http://www.corel.com/coreldraw/odm/2003">
 <defs>
  <style type="text/css">
   <![CDATA[
    .fil0 {fill:#192527}
    .fil3 {fill:#212A2E}
    .fil1 {fill:#394246}
    .fil8 {fill:#7B4E23}
    .fil13 {fill:#8D6F4D}
    .fil7 {fill:#976A36}
    .fil6 {fill:#A5A876}
    .fil14 {fill:#A97A45}
    .fil5 {fill:#AA773B}
    .fil15 {fill:#B39569}
    .fil4 {fill:#B68845}
    .fil11 {fill:#B9945A}
    .fil12 {fill:#C59149}
    .fil9 {fill:#C59857}
    .fil2 {fill:#D8B874}
    .fil10 {fill:#DAC78E}
   ]]>
  </style>
 </defs>
 <g id="Слой_x0020_1">
  <metadata id="CorelCorpID_0Corel-Layer"/>
  <g id="_2323939554480">
   <path class="fil0" d="M3.62 1498.82c141.13,-76.04 270.83,-76.85 494.54,88.48l100.21 82.63c73.69,31.18 21.19,3.79 109.22,61.84 32.51,21.44 58.95,42 82.42,58.87 80.97,58.17 104.4,75.71 184.44,133.52 112.35,81.14 249.92,182.13 366.48,268.73 115.65,85.92 634.53,403.46 692.22,542.22 68.77,10.34 59.61,-5.95 134.18,42.6 72.12,46.96 65.12,68.68 83.31,96.3 139.37,253.68 -201.66,302.62 -315.94,465.79l157.42 127.1 120.34 18.91 15.04 87.52c168.45,237.84 -172.2,314.66 -467.76,519.02l-1266.15 888.33c-173.61,121.61 -318.29,290.8 -489.97,301.5l0 963.71c59.9,-0.03 123.88,-14.25 192.26,-48.53l3281.62 -2570.06c76.41,-117.37 74.17,-531.72 18.88,-663.48 -50.61,-120.62 -262.23,-258.74 -364.68,-339.39l-1615.82 -1277.82c-262.73,-225.07 -551.9,-438.8 -824.05,-656.33 -169.25,-135.29 -407.96,-371.76 -688.21,-374.03l0 1182.57z"/>
   <path class="fil1" d="M3.62 316.25c280.25,2.27 518.96,238.74 688.21,374.03 272.15,217.53 561.32,431.26 824.05,656.33l1615.82 1277.82c102.45,80.65 314.07,218.77 364.68,339.39 55.29,131.76 57.53,546.11 -18.88,663.48l-3281.62 2570.06c-68.38,34.28 -132.36,48.5 -192.26,48.53l0 299.89c226.62,-15.29 486.56,-223.62 1048.45,-652.06 306.42,-233.65 624.11,-468.25 928.09,-730.95l1383.4 -1086.76c88.74,-67.05 156.34,-111.35 239.95,-182.23 92.29,-78.24 110.19,-130.27 196.06,-210.92l-5.37 235.29c118.76,-140.71 74.99,-688.44 38.09,-903.03 -47.6,-276.86 -248.73,-394.9 -421.21,-528.51 -375.01,-290.5 -699.47,-557.46 -1084.27,-856.24 -364.84,-283.28 -718.85,-580.77 -1088.8,-851.98 -652.18,-478.12 -893.17,-793.2 -1234.39,-766.67l0 304.53z"/>
   <path class="fil2" d="M3.62 3831.38c62.23,38.65 81.4,64.34 127.54,182.25 -41.1,-4.66 -83.97,-16.16 -127.54,-32.51l0 425.7c41.67,-16.33 89.8,-43.31 150.37,-81.89 221.34,-140.99 1928.79,-1278.21 1987.64,-1364.16l-32.3 -93.25c-63.56,-90.29 -50.44,16.59 -76.18,-132.41 -149.49,42.76 -279.3,-115.01 -395.92,-203.27 -81.29,-61.51 -120.4,-106.53 -196.56,-155.97l-573.13 -416.08c-116.23,-93.72 -341.22,-227.49 -269.17,-289.86l-100.21 -82.63c-103.03,21.71 -280.7,124.78 -494.54,268.2l0 678.66c58.93,34.22 111.32,87.4 165.26,127.85l607.95 412.14c131.08,88.25 198.7,115.81 315.44,178.74 -39.74,40.74 73.54,198.72 -223.57,18.55l-777.88 -497.8c-40.44,-24.92 -62.95,-36.43 -87.2,-49.93l0 267.12c191.44,125.69 382.75,263.48 467.25,318.79l166.96 117.29c32.11,23.99 89.54,50.26 84.44,123.61 -114.92,17.73 -226.85,-75.25 -336.85,-153.49 -127.47,-90.66 -180.75,-118.86 -294.96,-197.01 -29.32,-20.06 -58.32,-39.2 -86.84,-57.75l0 294.66c36.59,24.92 74.46,50.63 117.74,79.81 100.33,67.63 236.39,123.3 275.6,208.11l7.91 41.59c-105.98,18.73 -245.01,-81.71 -401.25,-193.96l0 258.9zm1020.25 -864.97c-116.78,-75.51 -873.61,-549.34 -856.08,-635.17l49.04 -17.75c80.03,-8.63 83.49,4.49 141.83,45.89 38.74,27.5 85.63,74.2 137.61,110.39 136.58,95.08 816.35,483.08 856.54,599.34l0.2 77.6c-113.17,-13.49 -225.39,-113.21 -329.14,-180.3zm-548.61 -842.58c117.7,-42.7 182.5,28.64 341.38,135.94l660.54 463.32c6.15,4.58 14.08,11.28 20.21,15.87 6.09,4.57 13.73,11.61 19.87,16.09 6.1,4.45 13.68,11.53 19.94,15.76 91.55,61.78 57.42,46.21 183.41,58.75l-101.93 79.87 -229.81 -128.89c-96.69,-65.57 -209.93,-135.54 -319.18,-212.35l-552.03 -365.1c-82.01,-87.1 8.49,66.53 -42.4,-79.26z"/>
   <path class="fil3" d="M3.62 6847.83c366.11,-3.58 628.05,-285.18 820.23,-440.59 268.33,-217 518.02,-410.19 789.44,-621.94 256.81,-200.36 1405.47,-1155.72 1585.29,-1221.02l404.65 -326.27c83.75,-95.49 188.49,-143.16 190.97,-319.86l5.37 -235.29c-85.87,80.65 -103.77,132.68 -196.06,210.92 -83.61,70.88 -151.21,115.18 -239.95,182.23l-1383.4 1086.76c-303.98,262.7 -621.67,497.3 -928.09,730.95 -561.89,428.44 -821.83,636.77 -1048.45,652.06l0 302.05z"/>
   <path class="fil4" d="M2141.63 2960.77c-58.85,85.95 -1766.3,1223.17 -1987.64,1364.16 -60.57,38.58 -108.7,65.56 -150.37,81.89l0 249.41 1656.74 -1192.03c124.09,-83.79 183.9,-176.06 274.34,-124.4 114.28,-163.17 455.31,-212.11 315.94,-465.79 -72.59,111.41 -19.18,54.78 -109.01,86.76z"/>
   <path class="fil5" d="M3.62 1855.5c213.84,-143.42 391.51,-246.49 494.54,-268.2 -223.71,-165.33 -353.41,-164.52 -494.54,-88.48l0 356.68z"/>
   <path class="fil6" d="M3.62 4824.09l7.69 -3.91c229.09,-118.57 425.38,-307.84 633.83,-387.68l958.07 -652.34c101.05,-77.49 301.99,-189.96 355.75,-266.72 57.4,-105.23 -2.3,-31.45 133.16,-46.54l-157.42 -127.1c-90.44,-51.66 -150.25,40.61 -274.34,124.4l-1656.74 1192.03 0 167.86z"/>
   <path class="fil7" d="M645.14 4432.5c-42.5,226.78 -137.43,61.68 -422.51,381.61 -92.36,103.65 -171.27,121.28 -219.01,139.05l0 106.88c387.47,-201.31 1264.35,-878.37 1501.84,-1003.93 94.45,-49.94 173.19,-71.74 208.8,-174.85l-92.4 0.72 -18.65 -101.82 -958.07 652.34z"/>
   <path class="fil8" d="M2043.78 3660.77c-60.19,91.16 -225.13,185.71 -329.52,220.49 -35.61,103.11 -114.35,124.91 -208.8,174.85 -237.49,125.56 -1114.37,802.62 -1501.84,1003.93l0 222.14c171.68,-10.7 316.36,-179.89 489.97,-301.5l1266.15 -888.33c295.56,-204.36 636.21,-281.18 467.76,-519.02 -108.19,42.18 -98.66,59.87 -183.72,87.44z"/>
   <path class="fil9" d="M3.62 3981.12c43.57,16.35 86.44,27.85 127.54,32.51 -46.14,-117.91 -65.31,-143.6 -127.54,-182.25l0 149.74z"/>
   <path class="fil9" d="M3.62 2723.71c24.25,13.5 46.76,25.01 87.2,49.93l777.88 497.8c297.11,180.17 183.83,22.19 223.57,-18.55 -116.74,-62.93 -184.36,-90.49 -315.44,-178.74l-607.95 -412.14c-53.94,-40.45 -106.33,-93.63 -165.26,-127.85l0 189.55z"/>
   <path class="fil9" d="M167.79 2331.24c-17.53,85.83 739.3,559.66 856.08,635.17 103.75,67.09 215.97,166.81 329.14,180.3l-0.2 -77.6c-40.19,-116.26 -719.96,-504.26 -856.54,-599.34 -51.98,-36.19 -98.87,-82.89 -137.61,-110.39 -58.34,-41.4 -61.8,-54.52 -141.83,-45.89l-49.04 17.75z"/>
   <path class="fil10" d="M2033.15 2735.11c-57.69,-138.76 -576.57,-456.3 -692.22,-542.22 -116.56,-86.6 -254.13,-187.59 -366.48,-268.73 -80.04,-57.81 -103.47,-75.35 -184.44,-133.52 -23.47,-16.87 -49.91,-37.43 -82.42,-58.87 -88.03,-58.05 -35.53,-30.66 -109.22,-61.84 -72.05,62.37 152.94,196.14 269.17,289.86l573.13 416.08c76.16,49.44 115.27,94.46 196.56,155.97 116.62,88.26 246.43,246.03 395.92,203.27z"/>
   <path class="fil11" d="M3.62 3142.27c28.52,18.55 57.52,37.69 86.84,57.75 114.21,78.15 167.49,106.35 294.96,197.01 110,78.24 221.93,171.22 336.85,153.49 5.1,-73.35 -52.33,-99.62 -84.44,-123.61l-166.96 -117.29c-84.5,-55.31 -275.81,-193.1 -467.25,-318.79l0 151.44z"/>
   <path class="fil12" d="M3.62 3572.48c156.24,112.25 295.27,212.69 401.25,193.96l-7.91 -41.59c-39.21,-84.81 -175.27,-140.48 -275.6,-208.11 -43.28,-29.18 -81.15,-54.89 -117.74,-79.81l0 135.55z"/>
   <path class="fil9" d="M475.26 2123.83c50.89,145.79 -39.61,-7.84 42.4,79.26l552.03 365.1c109.25,76.81 222.49,146.78 319.18,212.35l229.81 128.89 101.93 -79.87c-125.99,-12.54 -91.86,3.03 -183.41,-58.75 -6.26,-4.23 -13.84,-11.31 -19.94,-15.76 -6.14,-4.48 -13.78,-11.52 -19.87,-16.09 -6.13,-4.59 -14.06,-11.29 -20.21,-15.87l-660.54 -463.32c-158.88,-107.3 -223.68,-178.64 -341.38,-135.94z"/>
   <path class="fil13" d="M3.62 4953.16c47.74,-17.77 126.65,-35.4 219.01,-139.05 285.08,-319.93 380.01,-154.83 422.51,-381.61 -208.45,79.84 -404.74,269.11 -633.83,387.68l-7.69 3.91 0 129.07z"/>
   <path class="fil14" d="M1603.21 3780.16l18.65 101.82 92.4 -0.72c104.39,-34.78 269.33,-129.33 329.52,-220.49l-62.16 -27.97c56.39,-57.37 154.84,-133.77 -22.66,-119.36 -53.76,76.76 -254.7,189.23 -355.75,266.72z"/>
   <path class="fil15" d="M2043.78 3660.77c85.06,-27.57 75.53,-45.26 183.72,-87.44l-15.04 -87.52 -120.34 -18.91c-135.46,15.09 -75.76,-58.69 -133.16,46.54 177.5,-14.41 79.05,61.99 22.66,119.36l62.16 27.97z"/>
   <path class="fil10" d="M2141.63 2960.77c89.83,-31.98 36.42,24.65 109.01,-86.76 -18.19,-27.62 -11.19,-49.34 -83.31,-96.3 -74.57,-48.55 -65.41,-32.26 -134.18,-42.6 25.74,149 12.62,42.12 76.18,132.41l32.3 93.25z"/>
  </g>
 </g>
</svg>
