<?xml version="1.0" encoding="UTF-8"?>
<!DOCTYPE svg PUBLIC "-//W3C//DTD SVG 1.1//EN" "http://www.w3.org/Graphics/SVG/1.1/DTD/svg11.dtd">
<!-- Creator: CorelDRAW -->
<svg xmlns="http://www.w3.org/2000/svg" xml:space="preserve" width="38.853mm" height="68.3902mm" version="1.1" style="shape-rendering:geometricPrecision; text-rendering:geometricPrecision; image-rendering:optimizeQuality; fill-rule:evenodd; clip-rule:evenodd"
viewBox="0 0 3885.3 6839.02"
 xmlns:xlink="http://www.w3.org/1999/xlink"
 xmlns:xodm="http://www.corel.com/coreldraw/odm/2003">
 <defs>
  <style type="text/css">
   <![CDATA[
    .fil8 {fill:#0E191B}
    .fil0 {fill:#1A2527}
    .fil1 {fill:#222D31}
    .fil4 {fill:#2C6934}
    .fil2 {fill:#394246}
    .fil7 {fill:#3C8454}
    .fil6 {fill:#4E944C}
    .fil9 {fill:#64A351}
    .fil11 {fill:#712F2E}
    .fil10 {fill:#883A37}
    .fil5 {fill:#896C48}
    .fil3 {fill:#A34E3E}
    .fil12 {fill:#CE6752}
   ]]>
  </style>
 </defs>
 <g id="Слой_x0020_1">
  <metadata id="CorelCorpID_0Corel-Layer"/>
  <g id="_2323935569024">
   <path class="fil0" d="M3.79 1657.45c171.67,-102.87 323.48,-174.02 421.99,-174.2 186.87,-216.3 446.78,344.31 544.3,487.28 159.95,234.49 363.44,470.89 483.78,715.4l-66.14 247.17 -3.79 590.45 961.07 635.02c129.31,92.37 63.65,8.27 116.7,120.04l42.02 77.97c87.35,65.6 472.48,-297.16 567.93,-373.11 257.05,-204.52 471.85,-230.44 477.87,-609.67 8.32,-524.17 -70.97,-478.89 -366.24,-724.06 -440.95,-366.13 -2830.54,-2321.21 -3088.62,-2347.06 -31.22,-3.13 -61.49,-3.33 -90.87,-1.11l0 1355.88z"/>
   <path class="fil1" d="M3.79 6830.85c234.29,12.51 480.55,-138.23 908,-492.28l2275.47 -1766.74 321.24 -259.89 117.19 -126.07c70.77,-140.65 169.96,-140.68 200.37,-450.73 -337.02,205.91 -1437.97,1258.56 -1337.92,750.63 -36.67,82.3 -588.56,412.4 -712.49,498.04 -130.88,90.43 -222.31,166.73 -341.93,254.49 -102.93,75.51 -246.31,225 -346.89,190.33 -101.53,115.38 -28.82,32.38 -125.37,108.36 -201.8,158.82 -744.61,655.89 -933.68,658.31 -7.31,0.09 -15.36,-0.73 -23.99,-2.25l0 637.8z"/>
   <path class="fil2" d="M3.79 301.57c29.38,-2.22 59.65,-2.02 90.87,1.11 258.08,25.85 2647.67,1980.93 3088.62,2347.06 295.27,245.17 374.56,199.89 366.24,724.06 -6.02,379.23 -220.82,405.15 -477.87,609.67 -95.45,75.95 -480.58,438.71 -567.93,373.11l-15.58 129.19c-100.05,507.93 1000.9,-544.72 1337.92,-750.63 -30.41,310.05 -129.6,310.08 -200.37,450.73 295.12,-174.46 244.91,-383.67 240.69,-778.94 -4.07,-380.3 -13.47,-598.1 -242.66,-774.02 -383.17,-294.11 -762.96,-582.36 -1129.64,-881.86 -368.73,-301.17 -743.65,-598.4 -1117.65,-892.66 -227.21,-178.77 -917.36,-775.81 -1180.84,-830.94 -69.01,-14.44 -132.63,-19.63 -191.8,-17.49l0 291.61z"/>
   <path class="fil3" d="M267.09 2779.89l-3 -523.63c99.04,60.46 80.58,43.38 154.88,194.87 42.75,87.14 72.69,131.93 101.49,224.67l-253.37 104.09zm-263.3 672.48l0 -1607.93 495.37 -332.62c-34.98,-23.71 -1.81,-17.15 -73.38,-28.57 186.87,-216.3 446.78,344.31 544.3,487.28 159.95,234.49 363.44,470.89 483.78,715.4 -352.46,103.81 -1252.86,775.25 -1439.98,791.54 -3.09,-8.2 -6.51,-16.6 -10.09,-25.1z"/>
   <path class="fil4" d="M3.79 5432.25l1083.04 -3.62c100.58,34.67 243.96,-114.82 346.89,-190.33 119.62,-87.76 211.05,-164.06 341.93,-254.49 123.93,-85.64 675.82,-415.74 712.49,-498.04l15.58 -129.19 -42.02 -77.97c-365.66,151.17 -638.24,404.54 -949.58,584.1l-213.97 175.17c-105.55,73.14 -100.78,89.09 -247.87,101.23 -202.89,16.73 -523.57,-7.23 -740.88,-8.37 -61.72,-0.32 -172.26,3.54 -305.61,7.89l0 293.62z"/>
   <path class="fil5" d="M3.79 4590.24l1354.7 -789.83 25.44 -276.86 3.79 -590.45c-323.64,126.54 -1088.75,707.26 -1383.93,780.03l0 877.11z"/>
   <path class="fil6" d="M3.79 5138.63c133.35,-4.35 243.89,-8.21 305.61,-7.89 217.31,1.14 537.99,25.1 740.88,8.37 147.09,-12.14 142.32,-28.09 247.87,-101.23l213.97 -175.17c-73.66,-53.9 -49.97,-40.64 -75.13,-116.18l-10.54 -35.59c-1.59,-5.25 -6.27,-14.27 -7.87,-20.04 -67.81,-244.32 86.59,-654.38 -68.16,-857.66 8.01,151.53 22.03,278.95 -29,410.95 -155.75,402.8 -226.81,289.62 -292.46,304.32 -163.38,36.58 -54.41,24.35 -131.04,102.93 -81.16,83.23 -118.44,-1.61 -207.78,84.7 -183.04,176.83 -49.66,53.6 -299.42,99.54 -128.9,23.71 -258.88,45.88 -386.93,49.12l0 253.83z"/>
   <path class="fil7" d="M3.79 4884.8c128.05,-3.24 258.03,-25.41 386.93,-49.12 249.76,-45.94 116.38,77.29 299.42,-99.54 89.34,-86.31 126.62,-1.47 207.78,-84.7 76.63,-78.58 -32.34,-66.35 131.04,-102.93 65.65,-14.7 136.71,98.48 292.46,-304.32 51.03,-132 37.01,-259.42 29,-410.95l8.07 -32.83 -1354.7 789.83 0 294.56z"/>
   <path class="fil8" d="M1086.83 5428.63l-1083.04 3.62 0 760.8c8.63,1.52 16.68,2.34 23.99,2.25 189.07,-2.42 731.88,-499.49 933.68,-658.31 96.55,-75.98 23.84,7.02 125.37,-108.36z"/>
   <path class="fil9" d="M1358.49 3800.41l-8.07 32.83c154.75,203.28 0.35,613.34 68.16,857.66 1.6,5.77 6.28,14.79 7.87,20.04l10.54 35.59c25.16,75.54 1.47,62.28 75.13,116.18 311.34,-179.56 583.92,-432.93 949.58,-584.1 -53.05,-111.77 12.61,-27.67 -116.7,-120.04l-961.07 -635.02 -25.44 276.86z"/>
   <path class="fil10" d="M3.79 3580.56c9.14,-18.57 13.21,-49.99 10.09,-103.09 -3.09,-8.2 -6.51,-16.6 -10.09,-25.1l0 128.19z"/>
   <path class="fil11" d="M13.88 3477.47c3.12,53.1 -0.95,84.52 -10.09,103.09l0 132.57c295.18,-72.77 1060.29,-653.49 1383.93,-780.03l66.14 -247.17c-352.46,103.81 -1252.86,775.25 -1439.98,791.54z"/>
   <path class="fil12" d="M3.79 1844.44l495.37 -332.62c-34.98,-23.71 -1.81,-17.15 -73.38,-28.57 -98.51,0.18 -250.32,71.33 -421.99,174.2l0 186.99z"/>
   <path class="fil11" d="M520.46 2675.8c-28.8,-92.74 -58.74,-137.53 -101.49,-224.67 -74.3,-151.49 -55.84,-134.41 -154.88,-194.87l3 523.63 253.37 -104.09z"/>
  </g>
 </g>
</svg>
