<?xml version="1.0" encoding="UTF-8"?>
<!DOCTYPE svg PUBLIC "-//W3C//DTD SVG 1.1//EN" "http://www.w3.org/Graphics/SVG/1.1/DTD/svg11.dtd">
<!-- Creator: CorelDRAW -->
<svg xmlns="http://www.w3.org/2000/svg" xml:space="preserve" width="38.2348mm" height="68.3714mm" version="1.1" style="shape-rendering:geometricPrecision; text-rendering:geometricPrecision; image-rendering:optimizeQuality; fill-rule:evenodd; clip-rule:evenodd"
viewBox="0 0 3823.48 6837.14"
 xmlns:xlink="http://www.w3.org/1999/xlink"
 xmlns:xodm="http://www.corel.com/coreldraw/odm/2003">
 <defs>
  <style type="text/css">
   <![CDATA[
    .fil10 {fill:#0E191B}
    .fil0 {fill:#1A2527}
    .fil1 {fill:#222D31}
    .fil4 {fill:#2C6934}
    .fil2 {fill:#394246}
    .fil7 {fill:#3C8454}
    .fil6 {fill:#4E944C}
    .fil8 {fill:#64A351}
    .fil11 {fill:#712F2E}
    .fil14 {fill:#715449}
    .fil12 {fill:#883A37}
    .fil5 {fill:#896C48}
    .fil9 {fill:#9A774C}
    .fil3 {fill:#A34E3E}
    .fil13 {fill:#CE6752}
   ]]>
  </style>
 </defs>
 <g id="Слой_x0020_1">
  <metadata id="CorelCorpID_0Corel-Layer"/>
  <g id="_2323934295504">
   <path class="fil0" d="M3813.29 1661.28l0 -1359.04c-261.36,22.83 -451.47,240.26 -601.86,357.67l-1834.35 1445.74c-195.28,158.28 -380.62,311.15 -586.44,472.44 -258.64,202.69 -446.84,215.06 -440.58,652 6.94,484.25 108.03,469.62 401.12,693.23 141.31,107.81 453.13,390.54 620.49,458.8l37.95 -173.58c76.61,-75.34 144.75,-113.34 242.09,-172.58l837.93 -522.29c43.1,-79.12 33.74,-477.84 35.33,-635.72l-131.76 7.05c-8.52,-220.93 -37.51,-222.72 102.47,-331.39 58.87,-45.7 182.62,-144.05 252.19,-170.67 210.32,-111.66 685.36,-492.91 1065.42,-721.66z"/>
   <path class="fil1" d="M116.85 4011.08c38.69,190.54 249.34,216.81 313.66,354.13l272.65 205.87c213.78,105.32 1947.04,1510.26 2282.56,1774.64 374.74,295.29 596.01,469.76 827.57,484.91l0 -638.46c-248.87,-52.48 -980.37,-702.99 -993.81,-756.35 -163.63,31.38 -211.81,-72.96 -357.44,-188.81 -113.3,-90.13 -192.48,-148.47 -319.22,-245.04 -188.86,-143.91 -434.02,-356.98 -624.04,-479.53l-137.92 7.21c74.04,103.25 1.92,139.82 -42.87,169.43l-1254.09 -974.91 32.95 286.91z"/>
   <path class="fil2" d="M3813.29 302.24l0 -291.82c-229.45,10.27 -391.88,130.97 -543.16,248.97 -196.04,152.9 -381.68,302.94 -569.25,453.98l-2248.22 1773.6c-180.98,138.47 -385.15,265.75 -415.28,569.5 -26.12,263.24 -81.24,795.82 79.47,954.61l-32.95 -286.91 1254.09 974.91c44.79,-29.61 116.91,-66.18 42.87,-169.43l137.92 -7.21 -147.11 -140.32c-167.36,-68.26 -479.18,-350.99 -620.49,-458.8 -293.09,-223.61 -394.18,-208.98 -401.12,-693.23 -6.26,-436.94 181.94,-449.31 440.58,-652 205.82,-161.29 391.16,-314.16 586.44,-472.44l1834.35 -1445.74c150.39,-117.41 340.5,-334.84 601.86,-357.67z"/>
   <path class="fil3" d="M3813.29 3438.56l0 -1589.86 -698.22 468.82c69.53,249.79 551.76,790.6 698.22,1121.04z"/>
   <path class="fil4" d="M3813.29 5432.49l0 -293.44c-411.58,13.39 -1035.05,30.88 -1120.73,-54.51 -259.66,-37.28 -973,-715.41 -1282.94,-876l-37.95 173.58 147.11 140.32c190.02,122.55 435.18,335.62 624.04,479.53 126.74,96.57 205.92,154.91 319.22,245.04 145.63,115.85 193.81,220.19 357.44,188.81l993.81 -3.33z"/>
   <path class="fil5" d="M3813.29 4593.97l0 -879.12c-13.96,3.18 -26.8,5.16 -38.43,5.83l-7 899.78 45.43 -26.49z"/>
   <path class="fil6" d="M3813.29 5139.05l0 -253.88c-176.79,3.65 -349.8,-29.4 -511.12,-145.12l-23.73 -17.24c-240.13,-218.16 -327.51,-228.82 -628.8,-468.84l-21.78 -264.19 109.46 -25.6 -163.09 -145.11c-41.41,50.49 -50.29,46.87 -53.01,186.26 -4.61,236.16 39.26,416.57 113.69,618.42l130.57 179.29 171.44 26.81c3.64,9.32 25.08,76.37 28.48,82.18 2.02,3.45 8.01,12.15 10.29,15.23l37.31 30.62c2.78,2.6 10.39,8.92 13.37,11.73 63.3,59.74 101.18,91.43 178.95,102.67 59.4,8.6 142.09,5.26 277.16,-6.62l-277.16 6.62 -512.76 12.26c85.68,85.39 709.15,67.9 1120.73,54.51z"/>
   <path class="fil7" d="M3813.29 4885.17l0 -291.2 -45.43 26.49c-159.6,-33.58 -314.83,-162.45 -385.83,-268.71l-564.74 -374.33 -79.97 -13.24 -109.46 25.6 21.78 264.19c301.29,240.02 388.67,250.68 628.8,468.84l23.73 17.24c161.32,115.72 334.33,148.77 511.12,145.12z"/>
   <path class="fil8" d="M1409.62 4208.54c309.94,160.59 1023.28,838.72 1282.94,876l789.92 -18.88c-311.88,27.43 -344.45,9.32 -456.11,-96.05 -2.98,-2.81 -10.59,-9.13 -13.37,-11.73l-37.31 -30.62c-2.28,-3.08 -8.27,-11.78 -10.29,-15.23 -3.4,-5.81 -24.84,-72.86 -28.48,-82.18l-171.44 -26.81 -130.57 -179.29c-74.43,-201.85 -118.3,-382.26 -113.69,-618.42 2.72,-139.39 11.6,-135.77 53.01,-186.26l-84.59 -305.4 -837.93 522.29c-97.34,59.24 -165.48,97.24 -242.09,172.58z"/>
   <path class="fil9" d="M2524.97 2877.95c-1.59,157.88 7.77,556.6 -35.33,635.72l84.59 305.4 163.09 145.11 79.97 13.24c34.24,-361.07 -79.68,-635.56 106.71,-916.82 526.31,-51.29 555.39,833.48 458.03,1291.15 71,106.26 226.23,235.13 385.83,268.71l7 -899.78c-36.92,-78.15 -34.67,-62.38 -51.38,-145.73 -219.45,-140.82 -469.29,-780.63 -669.77,-968.24l-528.74 271.24z"/>
   <path class="fil10" d="M3813.29 6192.17l0 -759.68 -993.81 3.33c13.44,53.36 744.94,703.87 993.81,756.35z"/>
   <path class="fil11" d="M3066.6 3350.53c118.69,49.71 135.72,79.86 175.72,237.85 25.81,101.9 44.88,201.19 38.56,311.59 -152.46,-17.33 -151.4,-55.85 -262.04,-121.88 -20.29,-172.75 -40.94,-293.03 47.76,-427.56zm-249.31 626.89l564.74 374.33c97.36,-457.67 68.28,-1342.44 -458.03,-1291.15 -186.39,281.26 -72.47,555.75 -106.71,916.82z"/>
   <path class="fil12" d="M3813.29 3590.41l0 -151.85c-146.46,-330.44 -628.69,-871.25 -698.22,-1121.04 -101.08,16.64 -104.63,33.31 -196.67,65.69 -22.23,7.82 -78.51,23.04 -102.01,22.79 -33.23,-0.35 -44.67,7.54 -47.81,14.31 -4.1,8.85 5.96,15.81 0,0 -2.69,-7.15 -8.66,-18.96 -20.71,-37.37 -69.57,26.62 -193.32,124.97 -252.19,170.67 -139.98,108.67 -110.99,110.46 -102.47,331.39l131.76 -7.05 528.74 -271.24c200.48,187.61 450.32,827.42 669.77,968.24l-27.13 38.18c46.15,-15.77 92.68,7.54 116.94,-22.72z"/>
   <path class="fil11" d="M3813.29 3714.85l0 -124.44c-18.3,22.83 -49.28,15.17 -83.2,16.8 -11.05,0.53 -22.41,2.05 -33.74,5.92l27.13 -38.18c2.58,12.89 4.71,23.4 6.61,32.26 10.34,48.46 13.56,47.4 44.77,113.47 11.63,-0.67 24.47,-2.65 38.43,-5.83z"/>
   <path class="fil13" d="M3813.29 1848.7l0 -187.42c-380.06,228.75 -855.1,610 -1065.42,721.66 12.05,18.41 18.02,30.22 20.71,37.37 5.96,15.81 -4.1,8.85 0,0 3.14,-6.77 14.58,-14.66 47.81,-14.31 23.5,0.25 79.78,-14.97 102.01,-22.79 92.04,-32.38 95.59,-49.05 196.67,-65.69l698.22 -468.82z"/>
   <path class="fil14" d="M3018.84 3778.09c110.64,66.03 109.58,104.55 262.04,121.88 6.32,-110.4 -12.75,-209.69 -38.56,-311.59 -40,-157.99 -57.03,-188.14 -175.72,-237.85 -88.7,134.53 -68.05,254.81 -47.76,427.56z"/>
  </g>
 </g>
</svg>
