<?xml version="1.0" encoding="UTF-8"?>
<!DOCTYPE svg PUBLIC "-//W3C//DTD SVG 1.1//EN" "http://www.w3.org/Graphics/SVG/1.1/DTD/svg11.dtd">
<!-- Creator: CorelDRAW -->
<svg xmlns="http://www.w3.org/2000/svg" xml:space="preserve" width="38.1492mm" height="68.087mm" version="1.1" style="shape-rendering:geometricPrecision; text-rendering:geometricPrecision; image-rendering:optimizeQuality; fill-rule:evenodd; clip-rule:evenodd"
viewBox="0 0 3814.92 6808.7"
 xmlns:xlink="http://www.w3.org/1999/xlink"
 xmlns:xodm="http://www.corel.com/coreldraw/odm/2003">
 <defs>
  <style type="text/css">
   <![CDATA[
    .fil0 {fill:#192326}
    .fil2 {fill:#212A2E}
    .fil1 {fill:#394246}
    .fil8 {fill:#561654}
    .fil4 {fill:#74165C}
    .fil13 {fill:#77152A}
    .fil12 {fill:#912F4E}
    .fil7 {fill:#AE3048}
    .fil9 {fill:#B54F50}
    .fil5 {fill:#B83A57}
    .fil10 {fill:#C55051}
    .fil3 {fill:#D33B63}
    .fil11 {fill:#D48854}
    .fil6 {fill:#F7D289}
   ]]>
  </style>
 </defs>
 <g id="Слой_x0020_1">
  <metadata id="CorelCorpID_0Corel-Layer"/>
  <g id="_2360802933440">
   <path class="fil0" d="M3799.32 6216.47l0 -1807.43c-11.13,6.76 -20,8.74 -25.9,4.44 -248.14,-180.76 -186.76,-87.73 -522.66,-104.42 -13.23,-108.75 -269.77,-80.35 -157.8,-149.21 -138.43,-212.97 546.11,254.02 544.06,-60.96 -1.76,-269.41 -359.64,-311.52 -255.43,-513.18l-221.72 -305.79c212.97,-123.67 428.8,-190.96 625.39,-258.36 5.18,2.94 9.85,6.21 14.06,9.8l0 -2731.31c-31.09,-0.18 -61.63,3.02 -91.42,10.11 -196.36,46.73 -2312.45,1752.95 -2744.48,2098.22 -387.2,309.46 -674.88,336.25 -615.09,1021.65 21.79,249.82 202.18,310.15 350.77,432.95l1357.54 1077.43c307.97,241.4 587.27,474.01 901.28,721.2 434.61,342.13 636.33,537.45 841.4,554.86zm0 -1819.91l0 -15.93 -10.18 9.45c3.48,2.55 6.88,4.71 10.18,6.48zm0 -860.77l0 -252.43c-28.37,100.43 -58.88,201.58 -16.31,253.2 5.75,0.71 11.17,0.42 16.31,-0.77zm0 -308.58l0 -100.93c-3.34,11.71 -3.65,29.55 -0.27,54.92l-40.23 64.31 -26.97 43.12c-20.06,-11.68 -5.31,-26.57 26.97,-43.12 11.53,-5.91 25.29,-12.03 40.5,-18.3z"/>
   <path class="fil1" d="M3799.32 6491.45l0 -274.98c-205.07,-17.41 -406.79,-212.73 -841.4,-554.86 -314.01,-247.19 -593.31,-479.8 -901.28,-721.2l-1357.54 -1077.43c-148.59,-122.8 -328.98,-183.13 -350.77,-432.95 -59.79,-685.4 227.89,-712.19 615.09,-1021.65 432.03,-345.27 2548.12,-2051.49 2744.48,-2098.22 29.79,-7.09 60.33,-10.29 91.42,-10.11l0 -291.06c-63.35,1.27 -128.17,11.19 -194.34,31.62 -238.55,73.66 -2740.15,2087.41 -3251.32,2497.85 -198.56,159.43 -327.07,260.95 -335.87,604.67 -6.84,266.76 -70.66,732.7 110.06,884.62l-58.71 -326.39c87.42,53.91 131.8,116.91 215.32,188.5l2100.34 1639.52c311.8,258.49 963.56,907.82 1414.52,962.07z"/>
   <path class="fil2" d="M3799.32 6800.76l0 -309.31c-450.96,-54.25 -1102.72,-703.58 -1414.52,-962.07l-2100.34 -1639.52c-83.52,-71.59 -127.9,-134.59 -215.32,-188.5l58.71 326.39c31.69,154.9 183.46,150.86 243.21,283.55l235.94 175.82c254.29,132.55 1934.85,1521.85 2335.39,1825.27 212.23,160.77 502.52,471.16 856.93,488.37z"/>
   <path class="fil3" d="M3799.32 3217.6l0 -700.52c-14,0.29 -28.87,-0.45 -44.64,-2.31 -194.64,-22.98 -260.53,-254.58 -410.52,-328.63 -46.57,38.44 -97.17,86.82 -143.61,132.99 -53.28,52.99 -76.82,103.22 -173.09,107.4 -37.15,-96.49 -34.39,-97.79 5.64,-173.03l-12.96 -405.6c-46.79,57.99 -132.91,148.73 -169.63,216.1 -26.27,191.08 -194.56,246.39 -250.38,396.23 -85.57,229.68 114.69,284.95 255.52,370.2 285.8,173.03 550.55,280.47 857.78,448.22l85.89 -61.05zm0 -1254.59l0 -193.81 -85.56 65.35c37.02,83.27 25.38,69.02 85.56,128.46z"/>
   <path class="fil4" d="M3386.99 3448.01c143.98,38.53 173.59,68.38 172.96,235.32 -0.52,136.36 -2.12,286.73 -11.83,430.49l-183.36 -81.8 -111.47 -56.25 19.22 -542.3c60.02,-12.42 62.55,-16.69 114.48,14.54zm367.14 1372.99l16.89 -1347.43c-98.11,-8.76 -142.95,-39.78 -210.32,-74.79 -33.62,-17.46 -90.7,-44.21 -105.74,-53.99 -92.86,-60.38 -38.87,-16.7 -70.36,-79.15l-201.5 -77.13c-74.95,74.04 -1.86,-17.66 -113.29,58.22 -274.98,187.22 -144.28,485.73 -177.61,1119.07 102.27,81.84 280.94,164.91 421.45,230.14 160.97,74.74 284.85,156.26 440.48,225.06z"/>
   <path class="fil5" d="M3799.32 4828.23l0 -1373.7c-9.6,7.17 -19.05,13.56 -28.3,19.04l-16.89 1347.43 10.71 1.91c12.33,1.98 23.78,3.76 34.48,5.32z"/>
   <path class="fil6" d="M3799.32 2350.29l0 -238.5c-4.69,-7.11 -9.61,-14.17 -14.72,-21.16 -78.61,-107.48 -181.8,-200.39 -239.32,-308.96 42.57,-72.24 150.58,-134.97 254.04,-175.1l0 -82.91c-0.26,-0.14 -0.52,-0.28 -0.78,-0.43 -58.76,-32.76 -41.33,-20.73 -106.21,-29.39l-610.26 -138.39c8.15,126.01 -31.24,743.86 37.19,845.42 51.85,-60.12 172.4,-188.26 214.78,-222.07 54.03,48.68 102.34,130.08 154.01,195.24 55.75,70.33 129.73,128.68 154.71,191.27 71.97,7.69 122.75,1.23 156.56,-15.02z"/>
   <path class="fil7" d="M3799.32 3429.01l0 -211.41 -85.89 61.05c-307.23,-167.75 -571.98,-275.19 -857.78,-448.22 -140.83,-85.25 -341.09,-140.52 -255.52,-370.2 55.82,-149.84 224.11,-205.15 250.38,-396.23 -97.7,68.81 -209.51,239.38 -284.19,334.1 -340.98,432.51 -328.38,351.1 332.61,655.58l284.17 134.83 201.5 77.13c125.54,54 277.86,139.34 414.72,163.37z"/>
   <path class="fil8" d="M3555.98 4876.96c12.73,-87.1 91.68,-20.48 216.73,-44.34l-7.87 -9.71 -10.71 -1.91c-155.63,-68.8 -279.51,-150.32 -440.48,-225.06 -140.51,-65.23 -319.18,-148.3 -421.45,-230.14 33.33,-633.34 -97.37,-931.85 177.61,-1119.07 111.43,-75.88 38.34,15.82 113.29,-58.22l-284.17 -134.83c-7.58,89.59 -30.88,62.53 -115.06,143.49 -51.21,49.26 -72.71,80.31 -83.45,170.76 81.94,58.12 44.45,-28.63 129.95,26.45l-6.04 855.74c-103.16,50.18 -159.41,126.97 -56.63,229.06l788.28 397.78z"/>
   <path class="fil7" d="M3799.32 2517.08l0 -61.82c-50.7,2.57 -106.78,-23.57 -156.56,-89.95 -24.98,-62.59 -98.96,-120.94 -154.71,-191.27 -51.67,-65.16 -99.98,-146.56 -154.01,-195.24 -42.38,33.81 -162.93,161.95 -214.78,222.07 -31.24,38.21 34.14,32.81 -86.16,52.63 -40.03,75.24 -42.79,76.54 -5.64,173.03 96.27,-4.18 119.81,-54.41 173.09,-107.4 46.44,-46.17 97.04,-94.55 143.61,-132.99 149.99,74.05 215.88,305.65 410.52,328.63 15.77,1.86 30.64,2.6 44.64,2.31z"/>
   <path class="fil9" d="M3364.76 4032.02l183.36 81.8c9.71,-143.76 11.31,-294.13 11.83,-430.49 0.63,-166.94 -28.98,-196.79 -172.96,-235.32 -56.6,47.41 -38.3,-29.02 -43.26,129.52 -1.2,38.09 5.79,118.05 7.8,160.45 4.7,98.58 11.69,195.34 13.23,294.04z"/>
   <path class="fil10" d="M3799.32 2455.26l0 -104.97c-33.81,16.25 -84.59,22.71 -156.56,15.02 49.78,66.38 105.86,92.52 156.56,89.95zm0 -343.47l0 -147.86 -39.79 -34.61c-4.11,-3.94 -9.64,-9.65 -13.74,-13.73l-118.69 -133.92c57.46,-48.83 113.87,-57.07 172.22,-124.46l0 -50.64c-103.46,40.13 -211.47,102.86 -254.04,175.1 57.52,108.57 160.71,201.48 239.32,308.96 5.11,6.99 10.03,14.05 14.72,21.16z"/>
   <path class="fil11" d="M3020.14 1847.9l12.96 405.6c120.3,-19.82 54.92,-14.42 86.16,-52.63 -68.43,-101.56 -29.04,-719.41 -37.19,-845.42l610.26 138.39 25.75 -58.19 -691.79 -136.76 -6.15 549.01z"/>
   <path class="fil7" d="M3799.32 1963.93l0 -0.92c-60.18,-59.44 -48.54,-45.19 -85.56,-128.46l85.56 -65.35 0 -111.99c-58.35,67.39 -114.76,75.63 -172.22,124.46l118.69 133.92c4.1,4.08 9.63,9.79 13.74,13.73l39.79 34.61zm0 -440.27l0 -141.72c-35.46,6.75 -51.61,27.07 -81.24,53.71l-25.75 58.19c64.88,8.66 47.45,-3.37 106.21,29.39 0.26,0.15 0.52,0.29 0.78,0.43z"/>
   <path class="fil12" d="M3364.76 4032.02c-1.54,-98.7 -8.53,-195.46 -13.23,-294.04 -2.01,-42.4 -9,-122.36 -7.8,-160.45 4.96,-158.54 -13.34,-82.11 43.26,-129.52 -51.93,-31.23 -54.46,-26.96 -114.48,-14.54l-19.22 542.3 111.47 56.25z"/>
   <path class="fil13" d="M3799.32 3454.53l0 -25.52c-136.86,-24.03 -289.18,-109.37 -414.72,-163.37 31.49,62.45 -22.5,18.77 70.36,79.15 15.04,9.78 72.12,36.53 105.74,53.99 67.37,35.01 112.21,66.03 210.32,74.79 9.25,-5.48 18.7,-11.87 28.3,-19.04z"/>
   <path class="fil12" d="M3799.32 4990.64l0 -162.41c-10.7,-1.56 -22.15,-3.34 -34.48,-5.32l7.87 9.71c-2.53,8.43 -9.52,36.07 -10.45,43.42l-3.25 40.93c-0.12,3.42 4.55,57.78 4.79,67.92 13.04,1.81 24.66,3.83 35.52,5.75z"/>
   <path class="fil4" d="M3763.8 4984.89c-0.24,-10.14 -4.91,-64.5 -4.79,-67.92l3.25 -40.93c0.93,-7.35 7.92,-34.99 10.45,-43.42 -125.05,23.86 -204,-42.76 -216.73,44.34l207.82 107.93z"/>
  </g>
 </g>
</svg>
