<?xml version="1.0" encoding="UTF-8"?>
<!DOCTYPE svg PUBLIC "-//W3C//DTD SVG 1.1//EN" "http://www.w3.org/Graphics/SVG/1.1/DTD/svg11.dtd">
<!-- Creator: CorelDRAW -->
<svg xmlns="http://www.w3.org/2000/svg" xml:space="preserve" width="38.7674mm" height="68.0954mm" version="1.1" style="shape-rendering:geometricPrecision; text-rendering:geometricPrecision; image-rendering:optimizeQuality; fill-rule:evenodd; clip-rule:evenodd"
viewBox="0 0 3876.74 6809.54"
 xmlns:xlink="http://www.w3.org/1999/xlink"
 xmlns:xodm="http://www.corel.com/coreldraw/odm/2003">
 <defs>
  <style type="text/css">
   <![CDATA[
    .fil0 {fill:#192326}
    .fil2 {fill:#212A2E}
    .fil1 {fill:#394246}
    .fil19 {fill:#511018}
    .fil16 {fill:#6D152D}
    .fil14 {fill:#6D1554}
    .fil9 {fill:#77152A}
    .fil12 {fill:#8A1854}
    .fil23 {fill:#8A1B2F}
    .fil17 {fill:#912F4E}
    .fil15 {fill:#AB1D4E}
    .fil7 {fill:#AE3048}
    .fil18 {fill:#AF3574}
    .fil20 {fill:#B14E6F}
    .fil22 {fill:#B35089}
    .fil21 {fill:#B54F50}
    .fil5 {fill:#B83A57}
    .fil10 {fill:#C55051}
    .fil4 {fill:#D26C7B}
    .fil3 {fill:#D33B63}
    .fil11 {fill:#D38F8C}
    .fil13 {fill:#D9A787}
    .fil8 {fill:#E29094}
    .fil6 {fill:#F7D289}
   ]]>
  </style>
 </defs>
 <g id="Слой_x0020_1">
  <metadata id="CorelCorpID_0Corel-Layer"/>
  <g id="_2324366913344">
   <path class="fil0" d="M3.59 3038.89c44.14,46 25.2,133.56 0,224.72l0 272.04c94.67,-36.23 87.5,-388.63 216.2,-327.69l63.74 -134.03c169.56,105.55 73.49,-72.81 72.4,145.21 -1.28,255.83 -297.65,-165.63 -352.34,-102.84l0 110.22c116.68,-47.2 308.93,-101.84 246.16,-134.39 1.01,203.17 689.95,29.64 568.33,107.28 -30.24,19.31 174.19,256.03 48.8,320.93 -104.87,54.28 -60.35,-72.84 -133.1,13.48 -103.84,123.21 716.42,131.89 566.58,248.44 -132.03,102.68 -155.61,-1.71 -286.29,59.36 -149.89,70.06 -8.67,-10.58 -67.34,56.44l-375.23 285.75c-178.19,148.75 -27.35,98.17 -133.53,107.88 -273.8,25.03 657.51,-685.28 495.17,-817.8 -224.34,-183.11 -380.49,-26.73 -609.98,-89.27 -233.07,-63.5 -136.81,1090.68 -319.57,1016.39l0 -24.21 326.17 -302.75c-42.3,-24.99 -240.16,272.21 -326.17,332.79l0 1811.68c328.81,22.33 672.11,-412.94 2002.45,-1434.19 316.32,-242.83 593.47,-461.37 906.75,-716.06 375.45,-305.25 688.69,-333.72 632.63,-994.16 -24.59,-289.65 -570.04,-617.88 -799.26,-789.01 -303.6,-226.66 -616.56,-489 -908.97,-714.98 -306.5,-236.85 -607.66,-466.13 -911,-711.27 -183.22,-148.07 -584.06,-550.2 -922.6,-556.89l0 2736.93z"/>
   <path class="fil1" d="M3.59 301.96c338.54,6.69 739.38,408.82 922.6,556.89 303.34,245.14 604.5,474.42 911,711.27 292.41,225.98 605.37,488.32 908.97,714.98 229.22,171.13 774.67,499.36 799.26,789.01 56.06,660.44 -257.18,688.91 -632.63,994.16 -313.28,254.69 -590.43,473.23 -906.75,716.06 -1330.34,1021.25 -1673.64,1456.52 -2002.45,1434.19l0 275.32c39.23,4.27 76.92,4.03 112.69,-1.5 321.25,-49.67 2427.88,-1810.03 2844.6,-2129.85 165.91,-127.34 293.69,-224.56 462.4,-349.99 94.1,-69.95 401.15,-380.15 440.12,-390.37 -1.71,-1005.04 -29.15,-817.51 -621.03,-1304.38 -344.99,-283.79 -738.38,-576.98 -1089.29,-851.22 -363.97,-284.45 -697.66,-563.37 -1066.05,-838.45 -257.21,-192.06 -632.95,-622.51 -1083.44,-617.38l0 291.26z"/>
   <path class="fil2" d="M3.59 6802.72c14.11,0.55 28.31,0.7 42.62,0.29 361.06,-10.35 649.97,-333.12 869.18,-498.35 406.16,-306.12 2105.7,-1687.14 2333.85,-1820.99l293.7 -210.74c68.67,-184.05 297.35,-77.15 320.46,-650.8 -38.97,10.22 -346.02,320.42 -440.12,390.37 -168.71,125.43 -296.49,222.65 -462.4,349.99 -416.72,319.82 -2523.35,2080.18 -2844.6,2129.85 -35.77,5.53 -73.46,5.77 -112.69,1.5l0 308.88z"/>
   <path class="fil3" d="M5.29 1972.41c19.73,37.09 26.14,59.53 49.19,98.06 0.07,0.12 27.01,41.4 33.17,48.71 40.08,47.59 -11.97,4.9 47.6,40.4 84.4,134.32 65.38,350.63 -131.66,359.03l0 696.47 25.27 -17.96c83.29,-96.57 169.24,-214.02 250.35,-314.66l269.59 -337.42c93.74,-115.85 180.92,-219.84 272.35,-335.63l289.67 -331.51c-91.73,-40.06 -132.77,-73.68 -220.45,-81.01l-30.4 20.95c181.64,37.05 66.65,-1.81 117.61,81.93 -114.22,-20.05 -461.84,-176.78 -537.62,-234.8l-63.43 -51.22c4.37,-2.27 11.13,-5.69 13.07,-6.85l52.67 -36.02 -282.23 -123.06 -46.96 60.18c249.6,111.92 -76.69,239.23 -104.6,254.63l-4.89 3.73 0 204.37 1.7 1.68z"/>
   <path class="fil4" d="M484.3 4187.26c197.87,-76.2 451.92,-277.47 652.03,-319.43 53.86,90.49 71.84,211.12 147.03,271.76 -203.17,65.74 -474.61,246.27 -675.06,258.05 -52.02,-54.32 -98.89,-110.93 -124,-210.38zm668.95 -532.39c74.54,33.16 42.98,-13.21 61.87,62.49 -101.29,83.86 -573.31,317.18 -741.3,359.71l97.82 -66.12 -9.39 -110.84 -0.94 -28.74c-47.93,-12.88 -87.84,-20.52 -121.71,-41.55 -79.15,-49.16 -104.33,11.52 -25.09,-57.45l-52.9 -85.42c26.99,-85.66 200.54,-335.9 292.79,-368.02 45.63,-68.8 55.79,-84.78 163.33,-105.91 139.65,21.9 220.06,116.56 297.81,193.76l71.31 147.84c-106.03,-30.45 -43.77,-1.18 -111.63,-26.59 53.48,33.81 77.34,41.97 78.03,126.84zm-372.28 835.01c132.58,-40.9 428.44,-223.22 553.96,-229.26l67.54 -48 -15.67 -1345.11c-27.69,-60.07 27.51,17.68 -65.95,46.35 -216.42,-158.83 -367.76,-239.71 -570.71,-36.09 -141.38,141.86 -255.83,298.17 -372.82,448.03 -274.4,351.49 -291.6,839.31 -217.79,1341.88 191.12,4.05 542.54,-201.16 621.44,-177.8z"/>
   <path class="fil5" d="M145.14 3154.88c-28.93,109.59 -10.29,15.23 -31.47,82.37 -20.16,63.9 -19.56,18.41 -7.88,50.64 101.16,-68.35 190.46,-218.99 281.12,-324.33 66.16,-76.89 193.15,-267.48 277,-299.42l-341.57 421.17c-75.3,91.7 -206.72,279.6 -318.75,366.39l0 1379.15c123.11,17.45 145.86,4.59 284.39,-54.98 3.01,-4.44 8.75,-16.29 10.31,-12.34 0.24,0.6 65.92,-71.72 290.37,-152.15 98.99,-35.47 133.63,-30.35 192.31,-121.5 -78.9,-23.36 -430.32,181.85 -621.44,177.8 -73.81,-502.57 -56.61,-990.39 217.79,-1341.88 116.99,-149.86 231.44,-306.17 372.82,-448.03 202.95,-203.62 354.29,-122.74 570.71,36.09 93.46,-28.67 38.26,-106.42 65.95,-46.35l35.11 0 17.02 -8.85 -11.79 -57.57c-31.39,-81.05 -1.88,15.3 -127.01,-97.66 -87.39,-78.89 -17.13,-61.06 -138.6,-142.1l-72.95 -65.72c-53.39,-63.22 83.28,1.32 -137.18,-77.8 -14.53,-140.3 21.29,55.98 -67.55,-41.49 -102.87,-112.87 -17.47,58.98 -19.04,-35.78 -0.26,-15.94 6.65,-28.61 14.42,-39.69 49.23,-70.22 -19.56,-14.95 77.46,-31.28l36.76 -70.22c76.25,28.92 49.39,15.16 105.17,59.39 50.98,-24.96 49.23,30.58 43.63,-25.86 -27.85,-26.15 -55.62,-50.83 -74.71,-72.39l48.81 -43.59c11.86,-52.04 -33.57,-3.09 22.45,-34.83 70.02,57.74 294.41,200.21 371.22,227.35 18.24,-79.69 -2.49,-31.7 59.07,-59.35l-432.76 -313.47c-118.52,63.31 -171.7,182.54 -262.65,296.43l-691.34 843.48c-40.26,57.17 -25.55,33.37 -37.2,78.37z"/>
   <path class="fil6" d="M3.59 2348.92c75.21,-41.33 56.51,-136.08 0,-226l0 226zm0 -742.9c13.65,-5.19 27.2,-9.99 40.49,-14.35 -0.73,-71.21 47.34,-15.44 -40.49,-62.95l0 77.3z"/>
   <path class="fil7" d="M3.59 3431.78l1.18 0.2c50.99,-75.1 62.87,-53.37 101.02,-144.09 -11.68,-32.23 -12.28,13.26 7.88,-50.64 21.18,-67.14 2.54,27.22 31.47,-82.37 -108.03,59.2 -76.17,125.45 -116.28,42.24l-25.27 17.96 0 216.7z"/>
   <path class="fil7" d="M1402.47 4212.62c84.07,-43.33 19.68,55.45 70.22,-55.4 26.02,47.01 -33.7,115.26 -137.76,103.4 -125.52,6.04 -421.38,188.36 -553.96,229.26 -58.68,91.15 -93.32,86.03 -192.31,121.5 -224.45,80.43 -290.13,152.75 -290.37,152.15 -1.56,-3.95 -7.3,7.9 -10.31,12.34 -18.81,99.95 59,30.54 -87.38,98.33 -43.56,20.17 -82.93,32.55 -115.46,47.12l105.56 27.54c147.49,0.92 978.2,-458.93 1189.61,-566.24 106.2,-53.91 223.26,-120.29 115.58,-260.51 -77.15,-100.44 -60.97,44.5 -83.12,-142.14l9.14 -1112.46 -35.11 0 15.67 1345.11z"/>
   <path class="fil8" d="M484.3 4187.26c25.11,99.45 71.98,156.06 124,210.38 200.45,-11.78 471.89,-192.31 675.06,-258.05 -75.19,-60.64 -93.17,-181.27 -147.03,-271.76 -200.11,41.96 -454.16,243.23 -652.03,319.43z"/>
   <path class="fil6" d="M561.31 3871.37l0.94 28.74c106.65,16.36 214.63,-53.6 302.5,-92.04 57.95,-25.35 84.34,-34.95 137.83,-70.78 79.03,-52.93 61.78,-63.84 150.67,-82.42 -0.69,-84.87 -24.55,-93.03 -78.03,-126.84 -151.51,-69.36 -175.95,-88.05 -228.91,-175.91 -219.36,155.63 -279.24,305.29 -285,519.25z"/>
   <path class="fil9" d="M28.86 3197.12c40.11,83.21 8.25,16.96 116.28,-42.24 11.65,-45 -3.06,-21.2 37.2,-78.37l691.34 -843.48c90.95,-113.89 144.13,-233.12 262.65,-296.43l432.76 313.47c112.25,64.04 210.58,121.02 274.53,232.41 34.28,14.37 8.83,-8.22 59.02,33.44 36.4,-19.72 28.45,36.84 28.95,-50.99 -12.53,-7.18 -60.38,-28.92 -65.6,-33.11 -91.17,-73.11 -18.83,22.35 -68.58,-102.51 1.75,-54.9 22.1,-11.63 -39.15,-57.82l-647.44 -393.59 -289.67 331.51c-91.43,115.79 -178.61,219.78 -272.35,335.63l-269.59 337.42c-81.11,100.64 -167.06,218.09 -250.35,314.66z"/>
   <path class="fil7" d="M3.59 2518.61c197.04,-8.4 216.06,-224.71 131.66,-359.03 53.51,152.41 -26.24,286.82 -131.66,296.96l0 62.07z"/>
   <path class="fil10" d="M3.59 2456.54c105.42,-10.14 185.17,-144.55 131.66,-296.96 -59.57,-35.5 -7.52,7.19 -47.6,-40.4 -6.16,-7.31 -33.1,-48.59 -33.17,-48.71 -23.05,-38.53 -29.46,-60.97 -49.19,-98.06l-1.7 -1.48 0 151.99c56.52,89.93 75.21,184.67 0,226l0 107.62zm0 -804.75c13.38,-16.38 26.86,-36 40.49,-60.12 -13.29,4.36 -26.84,9.16 -40.49,14.35l0 45.77z"/>
   <path class="fil7" d="M1427.14 2801.09l72.86 36.62c-2.63,-9.26 -33.09,-72.75 -34.29,-79.41 -10.9,-60.83 -25.26,17.17 7.28,-48.16l-34.96 -69.6c-117.67,-33.82 -48.73,-13.86 -77.38,-59.21 -53.45,-51.05 -36.84,-24.63 -89.59,-86.97 -57.33,-67.75 -30.59,-37.34 -98.51,-86.25 -110.18,-79.33 -50.55,-88.55 -215.86,-138.54 -97.02,16.33 -28.23,-38.94 -77.46,31.28 -7.77,11.08 -14.68,23.75 -14.42,39.69 1.57,94.76 -83.83,-77.09 19.04,35.78 88.84,97.47 53.02,-98.81 67.55,41.49 220.46,79.12 83.79,14.58 137.18,77.8l72.95 65.72c121.47,81.04 51.21,63.21 138.6,142.1 125.13,112.96 95.62,16.61 127.01,97.66z"/>
   <path class="fil11" d="M793.3 3309.74l-290.95 352.98c-53.62,114.02 8.73,60.67 -87.84,109.65 -79.24,68.97 -54.06,8.29 25.09,57.45 33.87,21.03 73.78,28.67 121.71,41.55 5.76,-213.96 65.64,-363.62 285,-519.25 52.96,87.86 77.4,106.55 228.91,175.91 67.86,25.41 5.6,-3.86 111.63,26.59l-71.31 -147.84c-61.5,-27.27 -84.01,-54.53 -139.67,-88.84 -60.03,-37.01 -84.58,-41.21 -162.16,-63.49 8.52,100.91 10.04,43.93 -20.41,55.29z"/>
   <path class="fil12" d="M1098.62 2258.74c28.72,40.11 7.92,18.1 41.65,52.08 5.24,5.27 36.51,30.54 43.64,35.88 104.87,78.5 81.63,19.69 165.36,154.17 60.53,97.21 60.77,48.43 11.38,80.46 28.65,45.35 -40.29,25.39 77.38,59.21 -14.87,-76.41 3.95,-133.82 41.99,-192.8l160.18 62.41c-22.3,-63.16 19.14,-19.79 -55.45,-93.16l-468.4 -300.09 -48.81 43.59c19.09,21.56 46.86,46.24 74.71,72.39 5.6,56.44 7.35,0.9 -43.63,25.86z"/>
   <path class="fil7" d="M3.59 1528.72c87.83,47.51 39.76,-8.26 40.49,62.95 -13.63,24.12 -27.11,43.74 -40.49,60.12l0 114.57 4.89 -3.73c27.91,-15.4 354.2,-142.71 104.6,-254.63l46.96 -60.18c-24.29,-28.6 -3.74,-22.51 -46.44,-44.75 -24.73,-12.89 -21.89,-16.78 -62.69,-20.54 -19.11,-1.76 -34.44,-1.6 -47.32,0.19l0 146zm0 442.21l1.7 1.48 -1.7 -1.68 0 0.2z"/>
   <path class="fil13" d="M562.25 3900.11l9.39 110.84 -97.82 66.12c167.99,-42.53 640.01,-275.85 741.3,-359.71 -18.89,-75.7 12.67,-29.33 -61.87,-62.49 -88.89,18.58 -71.64,29.49 -150.67,82.42 -53.49,35.83 -79.88,45.43 -137.83,70.78 -87.87,38.44 -195.85,108.4 -302.5,92.04z"/>
   <path class="fil14" d="M414.51 3772.37c96.57,-48.98 34.22,4.37 87.84,-109.65l290.95 -352.98 -138.9 9.19c-92.25,32.12 -265.8,282.36 -292.79,368.02l52.9 85.42z"/>
   <path class="fil15" d="M890.37 1796.89c-56.54,-83.77 -109.84,-81.66 -203.25,-122.29 -80.98,-35.22 -162.49,-75.55 -244.85,-103.72l-52.67 36.02c-1.94,1.16 -8.7,4.58 -13.07,6.85l63.43 51.22c75.78,58.02 423.4,214.75 537.62,234.8 -50.96,-83.74 64.03,-44.88 -117.61,-81.93l30.4 -20.95z"/>
   <path class="fil16" d="M1116.35 2116.9l468.4 300.09c74.59,73.37 33.15,30 55.45,93.16 3.1,3.59 -13.1,3.98 51.93,43.85 17.09,10.48 49.05,24.58 70.03,35.45 49.92,25.86 76.23,43.26 122.37,67.18l4.3 -78.37 -53.22 -40.57c-4.03,-3.05 -11.77,-8.51 -15.62,-11.47l-31 -25.63c-73.33,-30.92 -211.64,-126.71 -278.97,-191.17 -76.81,-27.14 -301.2,-169.61 -371.22,-227.35 -56.02,31.74 -10.59,-17.21 -22.45,34.83z"/>
   <path class="fil9" d="M105.79 3287.89c-38.15,90.72 -50.03,68.99 -101.02,144.09l-1.18 -0.2 0 19.92c112.03,-86.79 243.45,-274.69 318.75,-366.39l341.57 -421.17c-83.85,31.94 -210.84,222.53 -277,299.42 -90.66,105.34 -179.96,255.98 -281.12,324.33z"/>
   <path class="fil17" d="M3.59 4993.47c33.8,5.96 61.17,10.19 103.86,2.26 111.92,-20.82 59.66,-17.86 83.25,-46.87l-105.56 -27.54c32.53,-14.57 71.9,-26.95 115.46,-47.12 146.38,-67.79 68.57,1.62 87.38,-98.33 -138.53,59.57 -161.28,72.43 -284.39,54.98l0 162.62z"/>
   <path class="fil18" d="M1510.02 2309.42c67.33,64.46 205.64,160.25 278.97,191.17l54.63 -18.11c-63.95,-111.39 -162.28,-168.37 -274.53,-232.41 -61.56,27.65 -40.83,-20.34 -59.07,59.35z"/>
   <path class="fil19" d="M956.69 2269.57c165.31,49.99 105.68,59.21 215.86,138.54 67.92,48.91 41.18,18.5 98.51,86.25 52.75,62.34 36.14,35.92 89.59,86.97 49.39,-32.03 49.15,16.75 -11.38,-80.46 -83.73,-134.48 -60.49,-75.67 -165.36,-154.17 -7.13,-5.34 -38.4,-30.61 -43.64,-35.88 -33.73,-33.98 -12.93,-11.97 -41.65,-52.08 -55.78,-44.23 -28.92,-30.47 -105.17,-59.39l-36.76 70.22z"/>
   <path class="fil17" d="M1902.64 2515.92l-13.81 62.34 -4.3 78.37c93.79,-3.95 138.12,-79.61 110.59,-173.48 -21.95,-74.87 -122.72,-111.45 -197.71,-153.84 49.75,124.86 -22.59,29.4 68.58,102.51 5.22,4.19 53.07,25.93 65.6,33.11 -0.5,87.83 7.45,31.27 -28.95,50.99z"/>
   <path class="fil20" d="M1427.14 2801.09l11.79 57.57c69.27,47.49 45.29,47.6 117.38,82.45l14.27 -190.41 -97.59 -40.56c-32.54,65.33 -18.18,-12.67 -7.28,48.16 1.2,6.66 31.66,70.15 34.29,79.41l-72.86 -36.62z"/>
   <path class="fil16" d="M654.4 3318.93l138.9 -9.19c30.45,-11.36 28.93,45.62 20.41,-55.29l4.02 -41.43c-107.54,21.13 -117.7,37.11 -163.33,105.91z"/>
   <path class="fil21" d="M813.71 3254.45c77.58,22.28 102.13,26.48 162.16,63.49 55.66,34.31 78.17,61.57 139.67,88.84 -77.75,-77.2 -158.16,-171.86 -297.81,-193.76l-4.02 41.43z"/>
   <path class="fil22" d="M1788.99 2500.59l31 25.63c3.85,2.96 11.59,8.42 15.62,11.47l53.22 40.57 13.81 -62.34c-50.19,-41.66 -24.74,-19.07 -59.02,-33.44l-54.63 18.11z"/>
   <path class="fil23" d="M1402.47 4212.62l-67.54 48c104.06,11.86 163.78,-56.39 137.76,-103.4 -50.54,110.85 13.85,12.07 -70.22,55.4z"/>
  </g>
 </g>
</svg>
