<?xml version="1.0" encoding="UTF-8"?>
<!DOCTYPE svg PUBLIC "-//W3C//DTD SVG 1.1//EN" "http://www.w3.org/Graphics/SVG/1.1/DTD/svg11.dtd">
<!-- Creator: CorelDRAW -->
<svg xmlns="http://www.w3.org/2000/svg" xml:space="preserve" width="38.9414mm" height="68.6274mm" version="1.1" style="shape-rendering:geometricPrecision; text-rendering:geometricPrecision; image-rendering:optimizeQuality; fill-rule:evenodd; clip-rule:evenodd"
viewBox="0 0 3894.14 6862.74"
 xmlns:xlink="http://www.w3.org/1999/xlink"
 xmlns:xodm="http://www.corel.com/coreldraw/odm/2003">
 <defs>
  <style type="text/css">
   <![CDATA[
    .fil0 {fill:#192326}
    .fil5 {fill:#1D2C32}
    .fil2 {fill:#212A2E}
    .fil9 {fill:#24353A}
    .fil6 {fill:#293948}
    .fil1 {fill:#394246}
    .fil4 {fill:#4A596A}
    .fil3 {fill:#66819E}
    .fil7 {fill:#6990B1}
    .fil8 {fill:#6D7B8B}
   ]]>
  </style>
 </defs>
 <g id="Слой_x0020_1">
  <metadata id="CorelCorpID_0Corel-Layer"/>
  <g id="_2324530211712">
   <path class="fil0" d="M8.21 6239.42l0 -1785.93c353.79,-111.81 1077.1,-335.57 1156.23,-435.09 46.94,-54.99 149.24,-694.23 542.07,-437.03 148.81,99.97 52.06,168.76 143.03,280.14 467.03,-207.78 349.24,-484.96 358.2,-1026.34 -10.72,-121.2 -42.38,-207.78 -69.43,-317.31 -17.96,-72.77 -20.11,-113.02 -33.97,-176.41 -6.72,-30.79 -11.39,-57.83 -23.14,-85.32 -3.64,-8.52 -9.73,-18.1 -13.5,-25.53l-33.58 -47.94c-206.45,-32.53 -715.4,-563 -1047.17,-690.78 -118.45,-4.98 -537.44,141.26 -978.74,302.87l0 -1480.94c334.51,-4.63 773.17,425.39 944.91,564.1l1803.98 1440.75c227.97,178.65 772.88,499.57 787.71,833.88 14.35,323.25 3.57,458.75 -199.77,615.36l-1367.28 1068.46c-1227.21,948.2 -1609.26,1403.46 -1969.55,1403.06zm1428.19 -2558.49c252.78,-179.97 337.99,161.72 146.38,301 -89.93,65.36 -209.28,71.52 -252.77,-28.25 -70.3,-161.29 72.4,-248.55 106.39,-272.75z"/>
   <path class="fil1" d="M8.21 313.81c334.51,-4.63 773.17,425.39 944.91,564.1l1803.98 1440.75c227.97,178.65 772.88,499.57 787.71,833.88 14.35,323.25 3.57,458.75 -199.77,615.36l-1367.28 1068.46c-1227.21,948.2 -1609.26,1403.46 -1969.55,1403.06l0 302.75c34.14,0.31 69.71,-2.13 106.85,-7.84 386.16,-59.32 2225.98,-1689.7 2815.35,-2121.62 224.16,-164.28 771.81,-550.64 877.16,-752.84l2.42 227.78c117.11,-139.64 74.89,-714.01 26.18,-923.05 -63.94,-274.35 -270.58,-369.85 -464.68,-520.3 -378.22,-293.16 -737.08,-578.81 -1079.59,-861.16 -369.18,-304.34 -724.32,-574.14 -1098.22,-876.38 -596.94,-482.56 -892.96,-705.39 -1185.47,-691.58l0 298.63z"/>
   <path class="fil2" d="M8.21 6859.74c353.33,17.7 662.87,-339.07 1536.18,-1010.65 272.54,-209.57 1310.67,-1094.81 1526.84,-1176.94l667.02 -528.16 71.74 -256.34 -2.42 -227.78c-105.35,202.2 -653,588.56 -877.16,752.84 -589.37,431.92 -2429.19,2062.3 -2815.35,2121.62 -37.14,5.71 -72.71,8.15 -106.85,7.84l0 317.57z"/>
   <path class="fil3" d="M8.21 2993.22l1473.97 -524.01c269.21,-99.02 519.7,-137.81 551.94,-286.55 -206.45,-32.53 -715.4,-563 -1047.17,-690.78 20.15,103.11 24.01,48.02 2.01,102.02 -337.43,104.47 -656.1,231.45 -980.75,351.11l0 1048.21z"/>
   <path class="fil4" d="M176.99 4195.55c14.63,-144.15 867.75,-367.73 893.71,-369.93 -67.91,161.99 -105.71,123.13 -436.94,234.52 -116.81,39.29 -347.89,126.12 -456.77,135.41zm-168.78 257.94l0 -821.87 2086.65 -717.78c49.13,-38.44 65.03,-46.95 112.88,-78.67 -8.96,541.38 108.83,818.56 -358.2,1026.34 -90.97,-111.38 5.78,-180.17 -143.03,-280.14 -392.83,-257.2 -495.13,382.04 -542.07,437.03 -79.13,99.52 -802.44,323.28 -1156.23,435.09z"/>
   <path class="fil5" d="M8.21 3631.62l2086.65 -717.78 -139.48 -489.14c-102.95,31.36 -169.32,72.07 -288.96,124.91 -101.43,44.81 -170.4,52.85 -282.16,111.64 2.42,169.48 54.66,276.26 -21.3,426.17l-6.03 -402.74c-196.4,31.5 -604.26,193.78 -834.97,276.01 -41.05,14.63 -88.58,33.14 -131.67,47.66 -8.77,2.95 -18.09,5.84 -26.89,8.72 -8.77,2.86 -18.12,5.53 -26.9,8.35 -8.79,2.82 -18.25,5.36 -27.01,8.18 -8.74,2.81 -18.3,5.37 -26.95,8.24 -82.79,27.4 -181.47,59.83 -274.33,100.01l0 489.77z"/>
   <path class="fil6" d="M8.21 3141.85c92.86,-40.18 191.54,-72.61 274.33,-100.01 8.65,-2.87 18.21,-5.43 26.95,-8.24 8.76,-2.82 18.22,-5.36 27.01,-8.18 8.78,-2.82 18.13,-5.49 26.9,-8.35 8.8,-2.88 18.12,-5.77 26.89,-8.72 43.09,-14.52 90.62,-33.03 131.67,-47.66 230.71,-82.23 638.57,-244.51 834.97,-276.01l6.03 402.74c75.96,-149.91 23.72,-256.69 21.3,-426.17 111.76,-58.79 180.73,-66.83 282.16,-111.64 119.64,-52.84 186.01,-93.55 288.96,-124.91l139.48 489.14c49.13,-38.44 65.03,-46.95 112.88,-78.67 -10.72,-121.2 -42.38,-207.78 -69.43,-317.31 -17.96,-72.77 -20.11,-113.02 -33.97,-176.41 -6.72,-30.79 -11.39,-57.83 -23.14,-85.32 -3.64,-8.52 -9.73,-18.1 -13.5,-25.53l-33.58 -47.94c-32.24,148.74 -282.73,187.53 -551.94,286.55l-1473.97 524.01 0 148.63z"/>
   <path class="fil7" d="M8.21 1945.01c324.65,-119.66 643.32,-246.64 980.75,-351.11 22,-54 18.14,1.09 -2.01,-102.02 -118.45,-4.98 -537.44,141.26 -978.74,302.87l0 150.26z"/>
   <path class="fil8" d="M1436.4 3680.93c-33.99,24.2 -176.69,111.46 -106.39,272.75 43.49,99.77 162.84,93.61 252.77,28.25 191.61,-139.28 106.4,-480.97 -146.38,-301z"/>
   <path class="fil9" d="M176.99 4195.55c108.88,-9.29 339.96,-96.12 456.77,-135.41 331.23,-111.39 369.03,-72.53 436.94,-234.52 -25.96,2.2 -879.08,225.78 -893.71,369.93z"/>
  </g>
 </g>
</svg>
