<?xml version="1.0" encoding="UTF-8"?>
<!DOCTYPE svg PUBLIC "-//W3C//DTD SVG 1.1//EN" "http://www.w3.org/Graphics/SVG/1.1/DTD/svg11.dtd">
<!-- Creator: CorelDRAW -->
<svg xmlns="http://www.w3.org/2000/svg" xml:space="preserve" width="38.3232mm" height="68.6108mm" version="1.1" style="shape-rendering:geometricPrecision; text-rendering:geometricPrecision; image-rendering:optimizeQuality; fill-rule:evenodd; clip-rule:evenodd"
viewBox="0 0 3832.32 6861.08"
 xmlns:xlink="http://www.w3.org/1999/xlink"
 xmlns:xodm="http://www.corel.com/coreldraw/odm/2003">
 <defs>
  <style type="text/css">
   <![CDATA[
    .fil0 {fill:#192326}
    .fil5 {fill:#1D2C32}
    .fil2 {fill:#212A2E}
    .fil7 {fill:#293948}
    .fil10 {fill:#305767}
    .fil6 {fill:#384A57}
    .fil1 {fill:#394246}
    .fil4 {fill:#4A596A}
    .fil14 {fill:#4F5C6C}
    .fil9 {fill:#54718C}
    .fil12 {fill:#5B799F}
    .fil3 {fill:#66819E}
    .fil8 {fill:#6990B1}
    .fil11 {fill:#6B7376}
    .fil15 {fill:#B4D1E3}
    .fil13 {fill:#C6D7E6}
   ]]>
  </style>
 </defs>
 <g id="Слой_x0020_1">
  <metadata id="CorelCorpID_0Corel-Layer"/>
  <g id="_2323935020528">
   <path class="fil0" d="M3818.08 6239.51l0 -1784.07c-62.58,19.79 -113.12,35.94 -145.83,47.11 -70.99,-133.19 30.58,-149.42 -126.05,-252.22 -160.12,-94.11 -294.27,2.34 -384.89,104.7 -172.37,194.71 -62.59,256.73 -136.3,393.1 -73.07,87.31 -283.52,117.85 -445.34,15.65l-77.86 -64.76c-2.74,-10.75 -12.37,-11.3 -17.27,-18.02 -81.99,-52.34 -382.54,-351.1 -453.76,-430.48 -74.52,-83.05 -122.91,-141.97 -197.69,-226.73 -78.57,-89.07 -153.5,-130.61 -197.69,-226.61 -68.44,-77.04 -68.63,-201.68 -49.11,-350.13 18.66,-141.94 55.12,-200.18 171.62,-251.63l16.48 -43.43 324.78 -346.27c65.01,-126.2 185,-213.4 274.78,-330.17 78.68,-102.33 141.91,-222.27 319.28,-280.85 196.92,-50.34 671.96,-231.79 1124.85,-397.7l0 -1483.08c-18.67,0.55 -37.01,2.48 -54.95,5.92 -269.32,51.6 -1566.59,1139.03 -1875.81,1386.28l-1353.35 1080.27c-227.23,188.8 -212.48,208.49 -191.8,617.9 16.56,327.91 365.8,496.11 781.44,834.99 305.55,249.12 602.27,483.94 904.49,719.75 309.88,241.79 623.84,482.14 903.4,719.49 432.55,367.25 656.04,557.49 886.58,560.99zm-625.81 -1555.54c-57.52,-235.45 88.84,-420.11 344.5,-346.95l10.84 273.68c-148.01,103.93 -177.67,134.98 -355.34,73.27z"/>
   <path class="fil1" d="M3818.08 6542.16l0 -302.65c-230.54,-3.5 -454.03,-193.74 -886.58,-560.99 -279.56,-237.35 -593.52,-477.7 -903.4,-719.49 -302.22,-235.81 -598.94,-470.63 -904.49,-719.75 -415.64,-338.88 -764.88,-507.08 -781.44,-834.99 -20.68,-409.41 -35.43,-429.1 191.8,-617.9l1353.35 -1080.27c309.22,-247.25 1606.49,-1334.68 1875.81,-1386.28 17.94,-3.44 36.28,-5.37 54.95,-5.92l0 -298.52c-303.74,17.72 -605.9,290.65 -1239.59,793.25l-2171.7 1708.62c-186.32,139.62 -368.04,272.63 -386.94,601.28 -12.88,224.14 -57.95,741.74 82.71,896.4l-3.82 -192.02c127.35,-20.74 1196.55,893.95 1366.94,1024.14 103.5,79.08 133.22,94.54 239.32,186 75.01,64.67 142.73,133.7 228.32,194.88 472.34,337.62 911.87,735.71 1377.29,1093.44 130.85,100.59 289.8,216.76 507.47,220.77z"/>
   <path class="fil2" d="M102.56 4014.95c24.6,203.58 217.1,183.58 236.12,298.65l282.22 216.99c194.81,95.69 1250.39,969.67 1527.58,1189.91 951.37,755.91 1331.99,1118.1 1669.6,1139.04l0 -317.38c-217.67,-4.01 -376.62,-120.18 -507.47,-220.77 -465.42,-357.73 -904.95,-755.82 -1377.29,-1093.44 -85.59,-61.18 -153.31,-130.21 -228.32,-194.88 -106.1,-91.46 -135.82,-106.92 -239.32,-186 -170.39,-130.19 -1239.59,-1044.88 -1366.94,-1024.14l3.82 192.02z"/>
   <path class="fil3" d="M3818.08 2995.41l0 -1048.13c-18.7,6.88 -37.42,13.74 -56.16,20.57 -183.35,66.81 -345.35,120.34 -520.64,182.02l-482.9 184.47c56.23,102.96 214.42,222.83 315.05,309.5 52.51,45.23 46.13,30.43 96.66,77.19l341.4 383.37 306.59 -108.99z"/>
   <path class="fil4" d="M3818.08 4455.44l0 -821.7 -453.11 155.86 -6.51 99.46c-45.83,44.41 -12.84,2.79 -106.88,18.66 -0.33,0.2 -29.56,109.37 -102.64,-30.37 -51.88,-99.18 -28.69,-57.68 -19.68,-175.31l-41.95 -5.5c-45,146.27 -75.39,170.73 -176.58,213.82 -81.34,166.98 -221.88,210.48 -298.18,455.01 -32.97,156.06 -46.63,136.49 -48.83,311.62 -70.79,-32.89 -28.97,-27.19 -79.18,4.01 4.9,6.72 14.53,7.27 17.27,18.02l77.86 64.76c161.82,102.2 372.27,71.66 445.34,-15.65 73.71,-136.37 -36.07,-198.39 136.3,-393.1 90.62,-102.36 224.77,-198.81 384.89,-104.7 156.63,102.8 55.06,119.03 126.05,252.22 32.71,-11.17 83.25,-27.32 145.83,-47.11z"/>
   <path class="fil5" d="M3818.08 3633.74l0 -489.23c-92.11,40.3 -178,88.32 -236.3,146.73 -25.96,26 -60.15,58.49 -87.03,86.72 -128.47,134.91 -192.63,212.83 -158.81,309.94l29.03 101.7 453.11 -155.86z"/>
   <path class="fil6" d="M2217.23 2864.58c89.14,137.04 285.51,297.37 411.37,434.32 86.45,94.07 306.85,407.39 426.7,344.4 32.65,-129.34 107.06,-230.23 215.21,-306.45 5.36,-3.78 16.74,-10.51 25.1,-15.79 58.26,-73.76 43.3,-47.85 84.28,-130.59l-728.09 -796.03c-2.86,-10.79 -13.33,-10.36 -20.24,-15.19 -156.64,162.44 -375.2,309.27 -414.33,485.33z"/>
   <path class="fil3" d="M1774.39 3151.99c61.74,47.5 15.86,-29.52 57.82,66.24 0.51,1.17 12.21,77.74 12.63,82.67 4.82,56.84 2.97,130.85 4.5,189.18l76.66 -92.67c120.06,70.87 110.87,88.83 196.59,197.32l179.33 195.64c140.51,50.17 108.22,-26 134.2,141.98 183.85,-21.3 223.51,-50.28 274.29,104.6l46.64 -51.91c43.64,-42.32 35.46,-70.99 153.68,-74.68 101.19,-43.09 131.58,-67.55 176.58,-213.82 36.86,-90.31 16.14,-27.27 -32.01,-53.24 -119.85,62.99 -340.25,-250.33 -426.7,-344.4 -125.86,-136.95 -322.23,-297.28 -411.37,-434.32 -53.42,-56.44 -26.31,-42.63 -118.06,-58.86l-324.78 346.27z"/>
   <path class="fil7" d="M3818.08 3144.51l0 -149.1 -306.59 108.99c-37.67,75.92 -81,126.25 -117.32,199.97 -35.35,72.3 -231.51,364.75 -264.91,397.67 -9.01,117.63 -32.2,76.13 19.68,175.31 73.08,139.74 102.31,30.57 102.64,30.37l-36.83 -194.24 121.19 -25.58c-33.82,-97.11 30.34,-175.03 158.81,-309.94 26.88,-28.23 61.07,-60.72 87.03,-86.72 58.3,-58.41 144.19,-106.43 236.3,-146.73z"/>
   <path class="fil8" d="M3818.08 1947.28l0 -150.28c-452.89,165.91 -927.93,347.36 -1124.85,397.7l-36.33 89.57 101.48 50.07 482.9 -184.47c175.29,-61.68 337.29,-115.21 520.64,-182.02 18.74,-6.83 37.46,-13.69 56.16,-20.57z"/>
   <path class="fil9" d="M2099.17 2805.72c91.75,16.23 64.64,2.42 118.06,58.86 39.13,-176.06 257.69,-322.89 414.33,-485.33 6.91,4.83 17.38,4.4 20.24,15.19l728.09 796.03c-40.98,82.74 -26.02,56.83 -84.28,130.59 92.43,5.65 37.33,31.1 98.56,-16.69 36.32,-73.72 79.65,-124.05 117.32,-199.97l-341.4 -383.37c-50.53,-46.76 -44.15,-31.96 -96.66,-77.19 -100.63,-86.67 -258.82,-206.54 -315.05,-309.5l-101.48 -50.07 36.33 -89.57c-177.37,58.58 -240.6,178.52 -319.28,280.85 -89.78,116.77 -209.77,203.97 -274.78,330.17z"/>
   <path class="fil9" d="M1635.4 3797.18c44.19,96 119.12,137.54 197.69,226.61 74.78,84.76 123.17,143.68 197.69,226.73 71.22,79.38 371.77,378.14 453.76,430.48 50.21,-31.2 8.39,-36.9 79.18,-4.01 2.2,-175.13 15.86,-155.56 48.83,-311.62l-39.66 4.76c-285.75,-54.38 -332.62,-179.59 -480.99,-322.04 -131.5,-126.26 -256.39,-219.25 -378.5,-355.73 -30.03,33.05 -47.86,59.54 -78,104.82z"/>
   <path class="fil3" d="M1635.4 3797.18c30.14,-45.28 47.97,-71.77 78,-104.82 122.11,136.48 247,229.47 378.5,355.73 148.37,142.45 195.24,267.66 480.99,322.04 -225.52,-287.25 -155.05,-177.53 -303.61,-295.79l-52.58 -52.7c-22.22,-65.58 -121.84,-130.99 -182.73,-198.24 -65.28,-72.11 -138.79,-149.51 -197.93,-215.95 6.71,-43.57 1.84,-54.04 23.72,-107.62 -106.49,-46.37 -173.01,-186.49 -101.85,-304.41 -116.5,51.45 -152.96,109.69 -171.62,251.63 -19.52,148.45 -19.33,273.09 49.11,350.13z"/>
   <path class="fil10" d="M1849.34 3490.08l10.42 9.75c-21.88,53.58 -17.01,64.05 -23.72,107.62 59.14,66.44 132.65,143.84 197.93,215.95 60.89,67.25 160.51,132.66 182.73,198.24 71.62,-39.98 61.07,92.3 56.46,-98.95 64.03,-76.08 24.49,10.08 28.76,-132.32l-179.33 -195.64c-85.72,-108.49 -76.53,-126.45 -196.59,-197.32l-76.66 92.67z"/>
   <path class="fil11" d="M3192.27 4683.97c177.67,61.71 207.33,30.66 355.34,-73.27l-10.84 -273.68c-255.66,-73.16 -402.02,111.5 -344.5,346.95z"/>
   <path class="fil12" d="M2216.7 4021.64l52.58 52.7c148.56,118.26 78.09,8.54 303.61,295.79l39.66 -4.76c76.3,-244.53 216.84,-288.03 298.18,-455.01 -118.22,3.69 -110.04,32.36 -153.68,74.68l-46.64 51.91 -149.41 107.94c-168.8,-43.66 -185.9,-37.79 -211.37,-188.92l86.49 -23.62c-25.98,-167.98 6.31,-91.81 -134.2,-141.98 -4.27,142.4 35.27,56.24 -28.76,132.32 4.61,191.25 15.16,58.97 -56.46,98.95z"/>
   <path class="fil13" d="M2710.41 4036.95c-50.78,-154.88 -90.44,-125.9 -274.29,-104.6l-86.49 23.62c25.47,151.13 42.57,145.26 211.37,188.92l149.41 -107.94z"/>
   <path class="fil14" d="M3295.61 3321.06c-8.36,5.28 -19.74,12.01 -25.1,15.79 -108.15,76.22 -182.56,177.11 -215.21,306.45 48.15,25.97 68.87,-37.07 32.01,53.24l41.95 5.5c33.4,-32.92 229.56,-325.37 264.91,-397.67 -61.23,47.79 -6.13,22.34 -98.56,16.69z"/>
   <path class="fil15" d="M1859.76 3499.83l-10.42 -9.75c-1.53,-58.33 0.32,-132.34 -4.5,-189.18 -0.42,-4.93 -12.12,-81.5 -12.63,-82.67 -41.96,-95.76 3.92,-18.74 -57.82,-66.24l-16.48 43.43c-71.16,117.92 -4.64,258.04 101.85,304.41z"/>
   <path class="fil9" d="M3251.58 3907.72c94.04,-15.87 61.05,25.75 106.88,-18.66l6.51 -99.46 -29.03 -101.7 -121.19 25.58 36.83 194.24z"/>
  </g>
 </g>
</svg>
