<?xml version="1.0" encoding="UTF-8"?>
<svg id="_Слой_1" data-name="Слой 1" xmlns="http://www.w3.org/2000/svg" xmlns:xlink="http://www.w3.org/1999/xlink" viewBox="0 0 500 353">
  <defs>
    <style>
      .cls-1 {
        fill: #fff;
      }

      .cls-2 {
        clip-path: url(#clippath);
      }

      .cls-3 {
        fill: none;
      }

      .cls-4 {
        fill: #5c4b51;
      }
    </style>
    <clipPath id="clippath">
      <rect class="cls-3" x=".9" y="-6.16" width="499" height="358.66"/>
    </clipPath>
  </defs>
  <g class="cls-2">
    <g>
      <path d="m132.89,134.19h-30.13l-26.01-49.4h-18.71v49.4h-26.01V29.58c0-9.98,2.31-17.22,6.92-21.71C43.57,3.26,51.3.95,62.16.95h22.08c13.22,0,23.7,4.05,31.44,12.16,7.86,7.98,11.79,18.15,11.79,30.5,0,8.98-2.37,16.78-7.11,23.39-4.62,6.49-10.35,10.98-17.22,13.47l29.75,53.71Zm-50.34-71.11c5.49,0,9.98-1.87,13.47-5.61,3.62-3.87,5.43-8.61,5.43-14.22s-1.75-10.35-5.24-13.85c-3.37-3.49-7.92-5.24-13.66-5.24h-12.91c-7.73,0-11.6,3.93-11.6,11.79v27.13h24.51Zm159.67,71.11h-47.16c-14.97,0-25.51-2.56-31.62-7.67-5.99-5.24-8.98-14.41-8.98-27.51V.95h87.76v23.2h-61.75v31.25h43.23l-1.87,23.2h-41.35v18.53c0,5.24,1.19,8.86,3.56,10.85,2.37,2,6.67,2.99,12.91,2.99h45.28v23.2Zm107.68,0h-39.67c-14.97,0-25.82-2.87-32.56-8.61-6.61-5.86-9.92-15.34-9.92-28.44V.95h26.01v96.18c0,5.24,1.19,8.86,3.56,10.85,2.37,2,6.67,2.99,12.91,2.99h39.67v23.2Zm118.41-72.79v10.1c0,22.33-4.24,38.55-12.72,48.65-8.36,10.1-21.83,15.16-40.42,15.16s-32.06-5.05-40.42-15.16c-8.23-10.1-12.35-26.51-12.35-49.21v-9.73c0-20.71,4.18-36.12,12.54-46.22C383.43,4.88,396.78-.17,414.99-.17s31.81,5.11,40.42,15.34c8.61,10.23,12.91,25.64,12.91,46.22Zm-26.01,9.54v-6.92c0-11.98-1.5-21.52-4.49-28.63-3.49-8.23-10.98-12.35-22.46-12.35s-19.15,4.12-22.64,12.35c-2.87,6.74-4.3,16.28-4.3,28.63v6.92c0,16.09,2.25,26.95,6.74,32.56,1.75,2.37,4.3,4.43,7.67,6.18,3.49,1.62,7.61,2.43,12.35,2.43s8.98-.81,12.35-2.43c3.37-1.62,5.99-3.62,7.86-5.99,1.87-2.37,3.31-5.49,4.3-9.36,1.75-6.11,2.62-13.91,2.62-23.39Z"/>
      <rect class="cls-4" x=".9" y="165.37" width="499" height="187.13" rx="31.19" ry="31.19"/>
      <path class="cls-1" d="m121.85,282.02c0,12.6-4.62,22.52-13.85,29.75-9.23,7.11-21.02,10.67-35.37,10.67-11.35,0-22.33-3.12-32.93-9.36-5.24-3.24-9.54-7.8-12.91-13.66-3.37-5.99-5.05-12.79-5.05-20.4l23.58-1.12c0,6.74,2.87,11.98,8.61,15.72,5.74,3.74,12.1,5.61,19.09,5.61,15.59,0,23.39-5.49,23.39-16.47,0-8.98-5.3-14.28-15.91-15.91l-21.71-2.25c-10.85-1.62-19.46-5.49-25.82-11.6-6.36-6.11-9.54-14.91-9.54-26.38s4.55-20.96,13.66-28.44c9.11-7.49,20.58-11.23,34.43-11.23s25.2,3.56,33.68,10.67c8.48,6.99,12.72,16.03,12.72,27.13l-23.2,1.12c-2.12-10.85-9.42-16.28-21.89-16.28-7.61,0-13.6,1.62-17.96,4.87-4.24,3.24-6.36,7.11-6.36,11.6s1.56,7.86,4.68,10.48c3.12,2.5,6.99,4.05,11.6,4.68l21.33,2.25c23.83,3.24,35.74,16.09,35.74,38.55Zm108.5,39.3h-47.16c-14.97,0-25.51-2.56-31.62-7.67-5.99-5.24-8.98-14.41-8.98-27.51v-98.05h87.76v23.2h-61.75v31.25h43.23l-1.87,23.2h-41.35v18.53c0,5.24,1.19,8.86,3.56,10.85,2.37,2,6.67,2.99,12.91,2.99h45.28v23.2Zm126.4,0h-30.13l-26.01-49.4h-18.71v49.4h-26.01v-104.6c0-9.98,2.31-17.22,6.92-21.71,4.62-4.62,12.35-6.92,23.2-6.92h22.08c13.22,0,23.7,4.05,31.44,12.16,7.86,7.98,11.79,18.15,11.79,30.5,0,8.98-2.37,16.78-7.11,23.39-4.62,6.49-10.35,10.98-17.22,13.47l29.75,53.71Zm-50.34-71.11c5.49,0,9.98-1.87,13.47-5.61,3.62-3.87,5.43-8.61,5.43-14.22s-1.75-10.35-5.24-13.85c-3.37-3.49-7.92-5.24-13.66-5.24h-12.91c-7.73,0-11.6,3.93-11.6,11.79v27.13h24.51Zm168.47,32.75c0,12.35-3.37,21.83-10.1,28.44-6.61,6.61-15.91,9.92-27.88,9.92h-17.96c-14.72,0-25.2-2.56-31.44-7.67-6.11-5.11-9.17-13.97-9.17-26.57v-98.99h56.32c12.72,0,22.27,3.18,28.63,9.54,6.49,6.36,9.73,15.34,9.73,26.95,0,6.74-1.75,12.48-5.24,17.22-3.37,4.74-7.11,8.11-11.23,10.1,12.23,5.74,18.34,16.09,18.34,31.06Zm-42.29-42.85c9.61,0,14.41-4.8,14.41-14.41s-4.8-14.41-14.41-14.41h-28.26v28.82h28.26Zm16.28,41.54c0-5.99-1.06-10.48-3.18-13.47-2.12-3.12-5.93-4.68-11.41-4.68h-29.94v20.96c0,5.11,1.25,8.67,3.74,10.67,2.62,2,6.86,2.99,12.72,2.99h13.47c9.73,0,14.6-5.49,14.6-16.47Z"/>
    </g>
  </g>
</svg>