<?xml version="1.0" encoding="UTF-8"?>
<svg id="_Слой_1" data-name="Слой 1" xmlns="http://www.w3.org/2000/svg" viewBox="0 0 500 345">
  <defs>
    <style>
      .cls-1 {
        fill: #fff;
      }
    </style>
  </defs>
  <g>
    <path d="m126.35,145.13h-32.82l-28.33-53.81h-20.38v53.81h-28.33V31.18c0-10.87,2.51-18.78,7.54-23.75C29.05,2.48,37.48,0,49.3,0h24.05C87.76,0,99.21,4.38,107.7,13.14c8.49,8.76,12.74,19.87,12.74,33.33,0,9.78-2.55,18.24-7.64,25.38-5.1,7.13-11.38,12.06-18.85,14.78l32.41,58.5Zm-40.05-83.67c3.87-4.14,5.81-9.31,5.81-15.49s-1.87-11.18-5.61-14.98c-3.74-3.8-8.73-5.71-14.98-5.71h-14.06c-8.43,0-12.64,4.28-12.64,12.84v29.56h26.7c5.98,0,10.91-2.07,14.78-6.22Z"/>
    <path d="m245.39,145.13h-51.37c-16.31,0-27.76-2.82-34.35-8.46-6.59-5.64-9.89-15.59-9.89-29.86V0h95.6v25.28h-67.27v34.04h47.09l-2.04,25.28h-45.05v20.18c0,5.71,1.29,9.65,3.87,11.82,2.58,2.18,7.27,3.26,14.06,3.26h49.33v25.28Z"/>
    <path d="m362.59,145.13h-43.21c-16.31,0-28.1-3.16-35.37-9.48-7.27-6.32-10.91-16.61-10.91-30.88V0h28.33v104.77c0,5.71,1.29,9.65,3.87,11.82,2.58,2.18,7.27,3.26,14.06,3.26h43.21v25.28Z"/>
    <path d="m491.62,65.84v11.01c0,24.33-4.59,41.99-13.76,53-9.17,11.01-23.88,16.51-44.13,16.51s-34.89-5.5-43.93-16.51c-9.04-11.01-13.56-28.87-13.56-53.61v-10.6c0-22.56,4.59-39.34,13.76-50.35,9.17-11.01,23.71-16.51,43.62-16.51s34.55,5.57,43.93,16.71c9.38,11.14,14.06,27.93,14.06,50.35Zm-28.33,10.4v-7.54c0-13.05-1.63-23.44-4.89-31.19-3.81-8.97-11.96-13.45-24.46-13.45s-20.86,4.48-24.66,13.45c-3.13,7.34-4.69,17.73-4.69,31.19v7.54c0,17.53,2.45,29.35,7.34,35.47,1.9,2.58,4.72,4.79,8.46,6.62,3.74,1.83,8.22,2.75,13.45,2.75s9.68-.88,13.35-2.65c3.67-1.76,6.52-3.94,8.56-6.52,2.04-2.58,3.6-5.98,4.69-10.19,1.9-6.66,2.86-15.15,2.86-25.48Z"/>
  </g>
  <g>
    <path class="cls-1" d="m117.22,302.83c0,13.41-4.92,23.94-14.74,31.57-9.83,7.64-22.38,11.45-37.65,11.45-12.09,0-23.77-3.32-35.06-9.96-5.58-3.45-10.16-8.33-13.74-14.64-3.59-6.31-5.38-13.51-5.38-21.61l25.1-1.2c0,7.17,3.05,12.75,9.16,16.73,6.11,3.98,12.88,5.98,20.32,5.98,16.6,0,24.9-5.84,24.9-17.53,0-9.56-5.65-15.2-16.93-16.93l-23.11-2.39c-11.55-1.72-20.72-5.84-27.49-12.35-6.77-6.5-10.16-15.87-10.16-28.09s4.85-22.31,14.54-30.28c9.69-7.97,21.94-11.95,36.75-11.95s26.72,3.75,35.76,11.25c9.03,7.5,13.55,17.17,13.55,28.98l-24.7,1.2c-2.26-11.55-10.03-17.33-23.31-17.33-8.1,0-14.44,1.73-19.02,5.18-4.58,3.46-6.87,7.54-6.87,12.25s1.66,8.43,4.98,11.16c3.32,2.72,7.44,4.42,12.35,5.08l22.71,2.39c25.36,3.46,38.05,17.13,38.05,41.04Z"/>
    <path class="cls-1" d="m232.75,344.66h-50.2c-15.94,0-27.12-2.75-33.56-8.27-6.44-5.51-9.66-15.24-9.66-29.18v-104.38h93.42v24.7h-65.74v33.27h46.01l-1.99,24.7h-44.02v19.72c0,5.58,1.26,9.43,3.79,11.55,2.52,2.13,7.1,3.19,13.74,3.19h48.21v24.7Z"/>
    <path class="cls-1" d="m367.21,344.66h-32.07l-27.69-52.59h-19.92v52.59h-27.69v-111.35c0-10.62,2.46-18.36,7.37-23.21,4.91-4.85,13.15-7.27,24.7-7.27h23.51c14.07,0,25.26,4.28,33.56,12.85,8.3,8.57,12.45,19.42,12.45,32.57,0,9.56-2.49,17.83-7.47,24.8-4.98,6.97-11.12,11.79-18.43,14.44l31.67,57.17Zm-39.14-81.77c3.79-4.05,5.68-9.09,5.68-15.14s-1.83-10.92-5.48-14.64c-3.65-3.72-8.53-5.58-14.64-5.58h-13.74c-8.24,0-12.35,4.18-12.35,12.55v28.88h26.1c5.84,0,10.66-2.02,14.44-6.08Z"/>
    <path class="cls-1" d="m492.9,303.83c0,13.15-3.55,23.24-10.66,30.28-7.11,7.04-17.03,10.56-29.78,10.56h-19.12c-15.67,0-26.79-2.72-33.37-8.17-6.57-5.44-9.86-14.87-9.86-28.29v-105.38h59.96c13.54,0,23.73,3.39,30.58,10.16,6.84,6.77,10.26,16.33,10.26,28.68,0,7.17-1.83,13.28-5.48,18.33-3.65,5.05-7.67,8.63-12.05,10.76,13.01,6.11,19.52,17.13,19.52,33.07Zm-45.02-45.62c10.22,0,15.34-5.11,15.34-15.34s-5.11-15.34-15.34-15.34h-30.08v30.68h30.08Zm17.33,44.22c0-6.38-1.13-11.19-3.39-14.44-2.26-3.25-6.31-4.88-12.15-4.88h-31.87v22.31c0,5.45,1.36,9.23,4.08,11.35,2.72,2.13,7.2,3.19,13.45,3.19h14.34c10.36,0,15.54-5.84,15.54-17.53Z"/>
  </g>
</svg>