<?xml version="1.0" encoding="UTF-8"?>
<!DOCTYPE svg PUBLIC "-//W3C//DTD SVG 1.1//EN" "http://www.w3.org/Graphics/SVG/1.1/DTD/svg11.dtd">
<!-- Creator: CorelDRAW -->
<svg xmlns="http://www.w3.org/2000/svg" xml:space="preserve" width="19.7548mm" height="9.6598mm" version="1.1" style="shape-rendering:geometricPrecision; text-rendering:geometricPrecision; image-rendering:optimizeQuality; fill-rule:evenodd; clip-rule:evenodd"
viewBox="0 0 1975.48 965.98"
 xmlns:xlink="http://www.w3.org/1999/xlink"
 xmlns:xodm="http://www.corel.com/coreldraw/odm/2003">
 <defs>
  <style type="text/css">
   <![CDATA[
    .fil0 {fill:black;fill-rule:nonzero}
    .fil1 {fill:#F1B321;fill-rule:nonzero}
   ]]>
  </style>
 </defs>
 <g id="Слой_x0020_1">
  <metadata id="CorelCorpID_0Corel-Layer"/>
  <g id="_1739371090400">
   <polygon class="fil0" points="841.05,228.99 788.23,493.08 647.59,493.08 686.19,300.05 "/>
   <polygon class="fil1" points="1081.65,118.3 1006.69,493.08 866.04,493.08 926.79,189.35 "/>
   <polygon class="fil0" points="1322.17,8.23 1225.21,493.08 1084.56,493.08 1167.32,79.29 "/>
   <path class="fil0" d="M509.3 660.12l-60.39 301.93 -70.3 0 -99.64 -165.63 -33.21 165.63 -83.68 0 60.38 -301.93 70.31 0 100.07 165.2 32.78 -165.2 83.68 0zm100.46 307.97c-25.02,0 -48.75,-3.02 -71.17,-9.06 -22.43,-6.04 -40.69,-13.8 -54.78,-23.29l33.64 -63.83c15.24,9.77 31.49,17.18 48.74,22.21 17.25,5.03 34.51,7.55 51.76,7.55 16.39,0 29.11,-2.38 38.17,-7.12 9.06,-4.75 13.59,-11.29 13.59,-19.63 0,-7.19 -4.1,-12.79 -12.29,-16.82 -8.2,-4.02 -20.92,-8.34 -38.18,-12.94 -19.55,-5.18 -35.8,-10.42 -48.73,-15.74 -12.94,-5.32 -24.09,-13.44 -33.43,-24.37 -9.35,-10.93 -14.02,-25.31 -14.02,-43.13 0,-21.57 5.89,-40.48 17.68,-56.72 11.79,-16.25 28.61,-28.83 50.47,-37.75 21.85,-8.91 47.44,-13.37 76.78,-13.37 21.56,0 41.69,2.23 60.38,6.69 18.69,4.46 34.8,10.86 48.31,19.19l-31.05 63.41c-11.79,-7.48 -24.8,-13.16 -39.04,-17.04 -14.24,-3.88 -28.83,-5.82 -43.78,-5.82 -16.96,0 -30.26,2.73 -39.9,8.19 -9.63,5.47 -14.45,12.51 -14.45,21.14 0,7.47 4.17,13.22 12.51,17.25 8.34,4.03 21.28,8.34 38.82,12.94 19.55,4.89 35.73,9.92 48.52,15.1 12.8,5.18 23.8,13.08 33,23.72 9.2,10.64 13.81,24.59 13.81,41.84 0,21.28 -5.97,40.04 -17.91,56.29 -11.93,16.24 -28.9,28.83 -50.89,37.74 -22,8.91 -47.52,13.37 -76.56,13.37zm260.47 -240.25l-92.73 0 13.8 -67.72 270.45 0 -13.81 67.72 -92.3 0 -47.02 234.21 -85.4 0 47.01 -234.21zm352.79 175.55l-128.54 0 -34.94 58.66 -90.14 0 193.66 -301.93 84.11 0 72.9 301.93 -84.97 0 -12.08 -58.66zm-12.94 -62.97l-20.28 -97.92 -57.79 97.92 78.07 0zm469.24 -180.3l-60.39 301.93 -70.3 0 -99.64 -165.63 -33.21 165.63 -83.68 0 60.38 -301.93 70.31 0 100.07 165.2 32.78 -165.2 83.68 0zm98.73 67.72l-92.73 0 13.8 -67.72 270.44 0 -13.8 67.72 -92.31 0 -47.01 234.21 -85.41 0 47.02 -234.21z"/>
   <polygon class="fil1" points="173.87,659.89 113.49,961.77 0.2,961.77 49.13,717.12 "/>
  </g>
 </g>
</svg>
