<?xml version="1.0" encoding="UTF-8"?>
<svg id="_Слой_1" data-name="Слой 1" xmlns="http://www.w3.org/2000/svg" viewBox="0 0 500 97">
  <defs>
    <style>
      .cls-1 {
        fill: #fff;
      }

      .cls-2 {
        fill: #5c4b51;
      }
    </style>
  </defs>
  <path d="m52.77,84.8h-15.76l-13.61-25.85h-9.79v25.85H0V30.07c0-5.22,1.21-9.01,3.62-11.36,2.41-2.41,6.46-3.62,12.14-3.62h11.55c6.92,0,12.4,2.12,16.45,6.36,4.11,4.18,6.17,9.5,6.17,15.96,0,4.7-1.24,8.78-3.72,12.24-2.41,3.39-5.42,5.74-9.01,7.05l15.57,28.1Zm-26.34-37.2c2.87,0,5.22-.98,7.05-2.94,1.89-2.02,2.84-4.5,2.84-7.44s-.91-5.42-2.74-7.24c-1.76-1.83-4.14-2.74-7.15-2.74h-6.76c-4.05,0-6.07,2.06-6.07,6.17v14.2h12.83Zm83.54,37.2h-24.67c-7.83,0-13.35-1.34-16.55-4.01-3.13-2.74-4.7-7.54-4.7-14.39V15.09h45.92v12.14h-32.31v16.35h22.62l-.98,12.14h-21.64v9.69c0,2.74.62,4.63,1.86,5.68,1.24,1.04,3.49,1.57,6.76,1.57h23.69v12.14Zm56.34,0h-20.76c-7.83,0-13.51-1.5-17.04-4.5-3.46-3.07-5.19-8.03-5.19-14.88V15.09h13.61v50.32c0,2.74.62,4.63,1.86,5.68,1.24,1.04,3.49,1.57,6.76,1.57h20.76v12.14Zm61.95-38.09v5.29c0,11.68-2.22,20.17-6.66,25.46-4.37,5.29-11.42,7.93-21.15,7.93s-16.77-2.64-21.15-7.93c-4.31-5.29-6.46-13.87-6.46-25.75v-5.09c0-10.83,2.19-18.9,6.56-24.18,4.44-5.29,11.42-7.93,20.95-7.93s16.64,2.68,21.15,8.03c4.5,5.35,6.76,13.41,6.76,24.18Zm-13.61,4.99v-3.62c0-6.27-.78-11.26-2.35-14.98-1.83-4.31-5.74-6.46-11.75-6.46s-10.02,2.15-11.85,6.46c-1.5,3.52-2.25,8.52-2.25,14.98v3.62c0,8.42,1.17,14.1,3.52,17.04.91,1.24,2.25,2.32,4.01,3.23,1.83.85,3.98,1.27,6.46,1.27s4.7-.42,6.46-1.27c1.76-.85,3.13-1.89,4.11-3.13.98-1.24,1.73-2.87,2.25-4.9.91-3.2,1.37-7.28,1.37-12.24Z"/>
  <rect class="cls-2" x="238.92" y="-.08" width="261.08" height="97.91" rx="16.32" ry="16.32"/>
  <path class="cls-1" d="m302.2,60.94c0,6.59-2.41,11.78-7.24,15.57-4.83,3.72-11,5.58-18.5,5.58-5.94,0-11.68-1.63-17.23-4.9-2.74-1.7-4.99-4.08-6.76-7.15-1.76-3.13-2.64-6.69-2.64-10.67l12.34-.59c0,3.52,1.5,6.27,4.5,8.22,3,1.96,6.33,2.94,9.99,2.94,8.16,0,12.24-2.87,12.24-8.62,0-4.7-2.77-7.47-8.32-8.32l-11.36-1.17c-5.68-.85-10.18-2.87-13.51-6.07-3.33-3.2-4.99-7.8-4.99-13.8s2.38-10.97,7.15-14.88c4.76-3.92,10.77-5.87,18.01-5.87s13.18,1.86,17.62,5.58c4.44,3.66,6.66,8.39,6.66,14.2l-12.14.59c-1.11-5.68-4.93-8.52-11.45-8.52-3.98,0-7.11.85-9.4,2.55-2.22,1.7-3.33,3.72-3.33,6.07s.82,4.11,2.45,5.48c1.63,1.31,3.66,2.12,6.07,2.45l11.16,1.17c12.47,1.7,18.7,8.42,18.7,20.17Zm56.77,20.56h-24.67c-7.83,0-13.35-1.34-16.55-4.01-3.13-2.74-4.7-7.54-4.7-14.39V11.8h45.92v12.14h-32.31v16.35h22.62l-.98,12.14h-21.64v9.69c0,2.74.62,4.63,1.86,5.68,1.24,1.04,3.49,1.57,6.76,1.57h23.69v12.14Zm66.13,0h-15.76l-13.61-25.85h-9.79v25.85h-13.61V26.78c0-5.22,1.21-9.01,3.62-11.36,2.41-2.41,6.46-3.62,12.14-3.62h11.55c6.92,0,12.4,2.12,16.45,6.36,4.11,4.18,6.17,9.5,6.17,15.96,0,4.7-1.24,8.78-3.72,12.24-2.41,3.39-5.42,5.74-9.01,7.05l15.57,28.1Zm-26.34-37.2c2.87,0,5.22-.98,7.05-2.94,1.89-2.02,2.84-4.5,2.84-7.44s-.91-5.42-2.74-7.24c-1.76-1.83-4.14-2.74-7.15-2.74h-6.76c-4.05,0-6.07,2.06-6.07,6.17v14.2h12.83Zm88.14,17.13c0,6.46-1.76,11.42-5.29,14.88-3.46,3.46-8.32,5.19-14.59,5.19h-9.4c-7.7,0-13.18-1.34-16.45-4.01-3.2-2.68-4.8-7.31-4.8-13.9V11.8h29.47c6.66,0,11.65,1.66,14.98,4.99,3.39,3.33,5.09,8.03,5.09,14.1,0,3.52-.91,6.53-2.74,9.01-1.76,2.48-3.72,4.24-5.87,5.29,6.4,3,9.59,8.42,9.59,16.25Zm-22.13-22.42c5.03,0,7.54-2.51,7.54-7.54s-2.51-7.54-7.54-7.54h-14.78v15.08h14.78Zm8.52,21.73c0-3.13-.55-5.48-1.66-7.05-1.11-1.63-3.1-2.45-5.97-2.45h-15.66v10.97c0,2.68.65,4.54,1.96,5.58,1.37,1.04,3.59,1.57,6.66,1.57h7.05c5.09,0,7.64-2.87,7.64-8.62Z"/>
</svg>