<svg width="23" height="18" viewBox="0 0 23 18" fill="none" xmlns="http://www.w3.org/2000/svg">
<g clip-path="url(#clip0_46_5)">
<path d="M22.425 12.375H21.85V8.34258C21.85 7.74598 21.6076 7.17363 21.1765 6.75211L18.4 4.03594C17.9364 3.61055 17.383 3.375 16.7756 3.375H14.95V1.6875C14.95 0.755508 14.1773 0 13.225 0H4.025C3.0723 0 2.3 0.755508 2.3 1.6875V3.375H0.542656C0.257456 3.375 0 3.62812 0 3.90586C0 4.24687 0.257456 4.5 0.542656 4.5H9.74266C10.0913 4.5 10.35 4.75312 10.35 5.0625C10.35 5.37188 10.0912 5.625 9.775 5.625H1.725C1.40731 5.625 1.15 5.87812 1.15 6.1875C1.15 6.49688 1.40731 6.75 1.69266 6.75H8.59266C8.94125 6.75 9.2 7.00312 9.2 7.3125C9.2 7.62188 8.94125 7.875 8.625 7.875H0.575C0.257456 7.875 0 8.12812 0 8.4375C0 8.74688 0.257456 9 0.542656 9H7.44266C7.79125 9 8.05 9.25312 8.05 9.5625C8.05 9.87188 7.79125 10.125 7.475 10.125H2.3V14.625C2.3 16.4883 3.84531 18 5.75 18C7.65469 18 9.2 16.4883 9.2 14.625H13.8C13.8 16.4883 15.3453 18 17.25 18C19.1547 18 20.7 16.4883 20.7 14.625H22.425C22.7413 14.625 23 14.3718 23 14.0625V12.9375C23 12.6281 22.7412 12.375 22.425 12.375ZM5.75 16.3125C4.79766 16.3125 4.025 15.5566 4.025 14.625C4.025 13.6934 4.79766 12.9375 5.75 12.9375C6.70234 12.9375 7.475 13.6934 7.475 14.625C7.475 15.5566 6.70234 16.3125 5.75 16.3125ZM17.25 16.3125C16.2977 16.3125 15.525 15.5566 15.525 14.625C15.525 13.6934 16.2977 12.9375 17.25 12.9375C18.2023 12.9375 18.975 13.6934 18.975 14.625C18.975 15.5566 18.2023 16.3125 17.25 16.3125ZM19.55 9H14.95V5.625H16.7738L19.55 8.34258V9Z" fill="white"/>
</g>
<defs>
<clipPath id="clip0_46_5">
<rect width="23" height="18" fill="white"/>
</clipPath>
</defs>
</svg>
