<svg width="13" height="18" viewBox="0 0 13 18" fill="none" xmlns="http://www.w3.org/2000/svg">
<g clip-path="url(#clip0_46_27)">
<path d="M8.66667 0V4.5H13L8.66667 0ZM9.75 9H3.25V11.25H9.75V9ZM7.58333 4.5V0H1.625C0.727526 0 0 0.755508 0 1.6875V16.3125C0 17.2441 0.727526 18 1.625 18H11.375C12.2725 18 13 17.2445 13 16.3125V5.625H8.69714C8.06745 5.625 7.58333 5.12227 7.58333 4.5ZM2.16667 2.53125C2.16667 2.37762 2.28956 2.25 2.4375 2.25H5.14583C5.29479 2.25 5.41667 2.37762 5.41667 2.53125V3.09375C5.41667 3.24773 5.29479 3.375 5.14583 3.375H2.4375C2.28956 3.375 2.16667 3.24773 2.16667 3.09375V2.53125ZM2.16667 4.78125C2.16667 4.62656 2.28956 4.5 2.4375 4.5H5.14583C5.29479 4.5 5.41667 4.62656 5.41667 4.78125V5.34375C5.41667 5.49844 5.29479 5.625 5.14583 5.625H2.4375C2.28956 5.625 2.16667 5.49844 2.16667 5.34375V4.78125ZM10.8333 15.4688C10.8333 15.6226 10.7106 15.75 10.5625 15.75H7.85417C7.70521 15.75 7.58333 15.6234 7.58333 15.4688V14.9062C7.58333 14.7524 7.70605 14.625 7.85417 14.625H10.5625C10.7106 14.625 10.8333 14.7524 10.8333 14.9062V15.4688ZM10.8333 8.4375V11.8125C10.8333 12.1245 10.5921 12.375 10.2917 12.375H2.70833C2.40805 12.375 2.16667 12.1254 2.16667 11.8125V8.4375C2.16667 8.12461 2.40805 7.875 2.70833 7.875H10.2917C10.593 7.875 10.8333 8.12461 10.8333 8.4375Z" fill="white"/>
</g>
<defs>
<clipPath id="clip0_46_27">
<rect width="13" height="18" fill="white"/>
</clipPath>
</defs>
</svg>
