<svg width="16" height="18" viewBox="0 0 16 18" fill="none" xmlns="http://www.w3.org/2000/svg">
<g clip-path="url(#clip0_46_25)">
<path d="M2.28571 7.875V5.625C2.28571 5.00555 1.77214 4.5 1.14286 4.5C0.513571 4.5 0 5.00625 0 5.625V7.875C0 8.49445 0.513571 9 1.14286 9C1.77214 9 2.28571 8.49375 2.28571 7.875ZM12.5393 2.25C12.5393 1.00617 11.5168 0 10.2536 0H5.68214C4.45 0 3.42786 1.00617 3.42786 2.25L3.42876 9H12.5395L12.5393 2.25ZM14.8571 4.5C14.2279 4.5 13.7143 5.00555 13.7143 5.625L13.7141 7.875C13.7141 8.49445 14.2277 9 14.8573 9C15.487 9 16.0002 8.49445 16.0002 7.875V5.625C16 5.00625 15.4857 4.5 14.8571 4.5ZM14.4143 10.8949C14.2643 10.4344 13.825 10.125 13.3321 10.125H2.67143C2.17571 10.125 1.74286 10.4326 1.58643 10.8942L1.2025 12.0192C0.955357 12.7477 1.50429 13.5 2.25357 13.5H6.85714V15.8688C5.84821 16.0798 5.03571 16.5586 4.64714 17.1784C4.42143 17.5395 4.73214 18 5.18214 18H10.8179C11.2686 18 11.5814 17.5387 11.3536 17.178C10.9643 16.5586 10.1536 16.0805 9.14286 15.8695V13.5H13.7143C14.4911 13.5 15.0446 12.7484 14.7989 12.0189L14.4143 10.8949Z" fill="white"/>
</g>
<defs>
<clipPath id="clip0_46_25">
<rect width="16" height="18" fill="white"/>
</clipPath>
</defs>
</svg>
