<svg width="22" height="18" viewBox="0 0 22 18" fill="none" xmlns="http://www.w3.org/2000/svg">
<path d="M21.4191 4.81289L11.7013 1.25507C11.2293 1.08246 10.7147 1.08246 10.2427 1.25507L0.551719 4.81289C0.221306 4.93593 0 5.25937 0 5.625C0 5.99062 0.221306 6.31582 0.551719 6.43675L2.61491 7.19296C2.20619 7.74843 1.91847 8.3939 1.771 9.08964C1.37672 9.26015 1.1 9.66093 1.1 10.125C1.1 10.4749 1.26548 10.775 1.51044 10.9814L0.656906 16.2197C0.600875 16.5621 0.859375 16.875 1.19934 16.875H3.20066C3.54052 16.875 3.79913 16.5628 3.74309 16.22L2.88956 10.9818C3.13466 10.7754 3.3 10.4449 3.3 10.125C3.3 9.76324 3.12214 9.45597 2.86275 9.24996C3.00891 8.62558 3.3055 8.06097 3.72006 7.59656L10.2719 9.99527C10.7439 10.1679 11.2585 10.1679 11.7305 9.99527L21.4483 6.43746C21.78 6.31406 22 5.99062 22 5.625C22 5.25937 21.78 4.93593 21.4191 4.81289ZM12.0691 11.0531C11.7459 11.1832 11.3747 11.25 11 11.25C10.6246 11.25 10.2544 11.1844 9.9 11.0547L4.90875 9.22851L4.4 14.2488C4.4 15.7008 7.32531 16.875 11 16.875C14.6128 16.875 17.6 15.7008 17.6 14.2499L17.0919 9.22605L12.0691 11.0531Z" fill="white"/>
</svg>
