<svg width="18" height="18" viewBox="0 0 18 18" fill="none" xmlns="http://www.w3.org/2000/svg">
<g clip-path="url(#clip0_46_12)">
<path d="M16.3125 0H8.4375C7.50586 0 6.75 0.755508 6.75 1.6875V4.50035L1.6875 4.5C0.755508 4.5 0 5.25551 0 6.1875V16.875C0 17.4962 0.503789 18 1.125 18H16.875C17.4962 18 18 17.4962 18 16.875V1.6875C18 0.755508 17.2441 0 16.3125 0ZM4.5 11.8125C4.5 12.1231 4.24814 12.375 3.9375 12.375H2.8125C2.50186 12.375 2.25 12.1231 2.25 11.8125V10.6875C2.25 10.3768 2.50186 10.125 2.8125 10.125H3.9375C4.24814 10.125 4.5 10.3768 4.5 10.6875V11.8125ZM4.5 8.4375C4.5 8.74814 4.24814 9 3.9375 9H2.8125C2.50186 9 2.25 8.74814 2.25 8.4375V7.3125C2.25 7.00179 2.50186 6.75 2.8125 6.75H3.9375C4.24814 6.75 4.5 7.00179 4.5 7.3125V8.4375ZM11.25 10.6875C11.25 10.9981 10.9981 11.25 10.6875 11.25H9.5625C9.25312 11.25 9 10.9969 9 10.6875V9.5625C9 9.25312 9.25312 9 9.5625 9H10.6875C10.9969 9 11.25 9.25312 11.25 9.5625V10.6875ZM11.25 7.3125C11.25 7.62188 10.9969 7.875 10.6875 7.875H9.5625C9.25312 7.875 9 7.62188 9 7.3125V6.1875C9 5.87812 9.25312 5.625 9.5625 5.625H10.6875C10.9969 5.625 11.25 5.87812 11.25 6.1875V7.3125ZM11.25 3.9375C11.25 4.24688 10.9969 4.5 10.6875 4.5H9.5625C9.25312 4.5 9 4.24688 9 3.9375V2.8125C9 2.50172 9.25312 2.25 9.5625 2.25H10.6875C10.9969 2.25 11.25 2.50172 11.25 2.8125V3.9375ZM15.75 10.6875C15.75 10.9981 15.4981 11.25 15.1875 11.25H14.0625C13.7531 11.25 13.5 10.9969 13.5 10.6875V9.5625C13.5 9.25312 13.7531 9 14.0625 9H15.1875C15.4969 9 15.75 9.25312 15.75 9.5625V10.6875ZM15.75 7.3125C15.75 7.62188 15.4969 7.875 15.1875 7.875H14.0625C13.7531 7.875 13.5 7.62188 13.5 7.3125V6.1875C13.5 5.87812 13.7531 5.625 14.0625 5.625H15.1875C15.4969 5.625 15.75 5.87812 15.75 6.1875V7.3125ZM15.75 3.9375C15.75 4.24688 15.4969 4.5 15.1875 4.5H14.0625C13.7531 4.5 13.5 4.24688 13.5 3.9375V2.8125C13.5 2.50172 13.7531 2.25 14.0625 2.25H15.1875C15.4969 2.25 15.75 2.50172 15.75 2.8125V3.9375Z" fill="white"/>
</g>
<defs>
<clipPath id="clip0_46_12">
<rect width="18" height="18" fill="white"/>
</clipPath>
</defs>
</svg>
