<svg width="21" height="22" viewBox="0 0 21 22" fill="none" xmlns="http://www.w3.org/2000/svg">
<path d="M19.1914 9.12355L18.6996 7.91613L17.8277 5.775C17.0791 3.93723 15.2937 2.75 13.2781 2.75H7.72187C5.70675 2.75 3.92088 3.93723 3.17231 5.775L2.30038 7.91613L1.80862 9.12355C0.753375 9.51758 0 10.5127 0 11.6875V13.75C0 14.4427 0.2695 15.0679 0.7 15.5517V17.875C0.7 18.6343 1.32694 19.25 2.1 19.25H3.5C4.27306 19.25 4.9 18.6343 4.9 17.875V16.5H16.1V17.875C16.1 18.6343 16.7269 19.25 17.5 19.25H18.9C19.6731 19.25 20.3 18.6343 20.3 17.875V15.5517C20.7305 15.0683 21 14.4431 21 13.75V11.6875C21 10.5127 20.2466 9.51758 19.1914 9.12355ZM5.77194 6.79637C6.09087 6.01348 6.86306 5.5 7.72187 5.5H13.2781C14.1369 5.5 14.9091 6.01348 15.2281 6.79637L16.1 8.9375H4.9L5.77194 6.79637ZM3.5 13.7414C2.66 13.7414 2.1 13.1931 2.1 12.3707C2.1 11.5483 2.66 11 3.5 11C4.34 11 5.6 12.2336 5.6 13.0561C5.6 13.8785 4.34 13.7414 3.5 13.7414ZM17.5 13.7414C16.66 13.7414 15.4 13.8785 15.4 13.0561C15.4 12.2336 16.66 11 17.5 11C18.34 11 18.9 11.5483 18.9 12.3707C18.9 13.1931 18.34 13.7414 17.5 13.7414Z" fill="white"/>
</svg>
